STARTFONT 2.1
FONT -FreeType-Arial Rounded MT Bold-Bold-R-Normal--60-120-360-360-P-295-ISO10646-1
SIZE 12 360 360
FONTBOUNDINGBOX 81 71 -10 -14
COMMENT "Generated by fontforge, http://fontforge.sourceforge.net"
COMMENT ""
COMMENT "Converted from TrueType font "arial_rounded.ttf" by "ttf2bdf 2.6"."
COMMENT ""
STARTPROPERTIES 23
FOUNDRY "FreeType"
FAMILY_NAME "Arial Rounded MT Bold"
WEIGHT_NAME "Bold"
SLANT "R"
SETWIDTH_NAME "Normal"
ADD_STYLE_NAME ""
PIXEL_SIZE 60
POINT_SIZE 120
RESOLUTION_X 360
RESOLUTION_Y 360
SPACING "P"
AVERAGE_WIDTH 295
CHARSET_REGISTRY "ISO10646"
CHARSET_ENCODING "1"
FONT_ASCENT 56
FONT_DESCENT 12
COPYRIGHT "Copyright © 1993 , Monotype Typography ltd."
_TTF_FONTFILE "arial_rounded.ttf"
_TTF_PSNAME "ArialRoundedMTBold"
_XFREE86_GLYPH_RANGES "32_126 160_182 184_255 305_305 338_339 352_353 376_376 402_402 710_711 713_713"
_XFREE86_GLYPH_RANGES "728_733 960_960 8211_8212 8216_8218 8220_8222 8224_8226 8230_8230 8240_8240 8249_8250 8482_8482"
_XFREE86_GLYPH_RANGES "8486_8486 8706_8706 8710_8710 8719_8719 8721_8721 8725_8725 8729_8730 8734_8734 8747_8747 8776_8776"
_XFREE86_GLYPH_RANGES "8800_8800 8804_8805 9674_9674 "
ENDPROPERTIES
CHARS 336
STARTCHAR $0020
ENCODING 32
SWIDTH 250 0
DWIDTH 15 0
BBX 1 1 0 0
BITMAP
00
ENDCHAR
STARTCHAR $0021
ENCODING 33
SWIDTH 333 0
DWIDTH 20 0
BBX 9 43 5 0
BITMAP
3E00
7F00
FF00
FF80
FF80
FF80
FF80
FF80
FF80
FF80
FF80
FF80
FF80
FF00
7F00
7F00
7F00
7F00
7F00
7F00
7F00
7F00
7F00
7F00
7E00
7E00
3E00
3E00
1C00
0000
0000
0000
0000
0000
3E00
7F00
FF80
FF80
FF80
FF80
FF80
7F00
3E00
ENDCHAR
STARTCHAR $0022
ENCODING 34
SWIDTH 483 0
DWIDTH 29 0
BBX 22 15 3 28
BITMAP
FF87FC
FF87FC
FF87FC
FF87FC
FF87FC
FF87FC
FF87FC
FF87FC
FF87FC
FF87FC
7F03F8
7F03F8
7F03F8
7F03F8
7F03F8
ENDCHAR
STARTCHAR $0023
ENCODING 35
SWIDTH 550 0
DWIDTH 33 0
BBX 32 43 1 0
BITMAP
001E00F0
001F01F8
003F01F8
003F01F8
003F01F8
007F03F8
007F03F8
007F03F8
007E03F0
007E03F0
00FE07F0
3FFFFFFC
FFFFFFFF
FFFFFFFF
FFFFFFFF
FFFFFFFF
3FFFFFFE
01F80FC0
01F80FC0
01F81FC0
03F81FC0
03F81FC0
03F81FC0
03F01F80
03F01F80
07F03F80
3FFFFFFC
FFFFFFFF
FFFFFFFF
FFFFFFFF
FFFFFFFF
7FFFFFFE
0FC07E00
0FC07E00
1FC0FE00
1FC0FE00
1FC0FE00
1F80FC00
1F80FC00
1F80FC00
1F80FC00
1F00F800
0F007000
ENDCHAR
STARTCHAR $0024
ENCODING 36
SWIDTH 600 0
DWIDTH 36 0
BBX 30 60 3 -11
BITMAP
00030000
00078000
00078000
00078000
00078000
00078000
007FFC00
03FFFF00
07FFFF80
0FFFFFC0
1FFFFFE0
3FF7BFE0
3FC78FF0
3F878FF0
7F0787F8
7F0787F8
7F0783F8
7F0783F0
7F0781E0
7F878000
7FC78000
7FF78000
3FFF8000
3FFFC000
1FFFF800
0FFFFF00
07FFFF80
03FFFFC0
00FFFFE0
003FFFF0
0007FFF8
0007BFF8
00078FF8
000783FC
380783FC
7E0781FC
FE0781FC
FE0781FC
FF0781FC
FF0781FC
FF8783F8
7F8783F8
7FC78FF0
3FF79FF0
1FFFFFE0
1FFFFFC0
07FFFF80
03FFFE00
00FFF800
000F8000
00078000
00078000
00078000
00078000
00078000
00078000
00078000
00078000
00078000
00030000
ENDCHAR
STARTCHAR $0025
ENCODING 37
SWIDTH 850 0
DWIDTH 51 0
BBX 49 44 1 -1
BITMAP
03F800000E0000
0FFE00001E0000
1FFF00001E0000
3FFF80003E0000
7F1FC0007C0000
7E0FC0007C0000
7C0FC000F80000
FC07E001F00000
FC07E001F00000
FC07E003E00000
FC07E003C00000
FC07E007C00000
FC07E00F800000
FC07E00F000000
FC07E01F000000
FC07E03E000000
7C0FC03E000000
7E0FC07C000000
3F1F80F8000000
3FFF80F8000000
1FFF01F0000000
07FC01E0010000
004003E03FF000
000007C07FFC00
00000780FFFE00
00000F81FC7F00
00001F01F83F00
00001F01F01F00
00003E03F01F80
00007C03F01F80
00007C03F01F80
0000F803F01F80
0001F003F01F80
0001F003F01F80
0003E003F01F80
0003C003F01F80
0007C003F03F00
000F8001F83F00
000F8001FC7F00
001F0000FFFE00
003E00007FFC00
003E00003FF800
003C00000FE000
00380000000000
ENDCHAR
STARTCHAR $0026
ENCODING 38
SWIDTH 766 0
DWIDTH 46 0
BBX 40 43 4 0
BITMAP
0007F80000
001FFF0000
007FFFC000
00FFFFE000
01FFFFE000
01FF0FF000
03FC07F000
03FC03F800
03F803F800
03F803F800
03F803F800
03FC07F800
03FE0FF000
01FE1FF000
01FF3FE000
00FFFFC000
007FFF8000
007FFF0000
003FFC0000
00FFF00000
03FFF80000
07FFFC01F0
0FFFFE03F0
1FFBFF03F8
3FE1FF87F8
7FC0FFC7F0
7F807FEFF0
FF803FFFF0
FF003FFFE0
FF001FFFE0
FF000FFFC0
FF0007FFC0
FF0003FF80
FF8001FFE0
7FC003FFF0
7FE00FFFF8
3FF03FFFFC
3FFFFFFFFE
1FFFFFE7FF
0FFFFFC3FF
07FFFF80FF
01FFFE007E
003FF0003C
ENDCHAR
STARTCHAR $0027
ENCODING 39
SWIDTH 233 0
DWIDTH 14 0
BBX 9 15 3 28
BITMAP
FF80
FF80
FF80
FF80
FF80
FF80
FF80
FF80
FF80
FF80
7F00
7F00
7F00
7F00
7F00
ENDCHAR
STARTCHAR $0028
ENCODING 40
SWIDTH 350 0
DWIDTH 21 0
BBX 15 55 4 -12
BITMAP
001E
003E
007C
00FC
01F8
01F8
03F8
03F0
07F0
0FE0
0FE0
1FE0
1FC0
1FC0
3FC0
3FC0
3F80
7F80
7F80
7F80
7F00
FF00
FF00
FF00
FF00
FF00
FF00
FF00
FF00
FF00
FF00
FF00
FF00
FF00
7F00
7F80
7F80
7F80
3F80
3F80
3FC0
1FC0
1FC0
1FE0
0FE0
0FE0
07F0
03F0
03F8
01F8
01F8
00FC
007C
003E
001E
ENDCHAR
STARTCHAR $0029
ENCODING 41
SWIDTH 350 0
DWIDTH 21 0
BBX 15 55 3 -12
BITMAP
F000
F800
7C00
7E00
3F00
3F00
3F80
1F80
1FC0
0FC0
0FE0
0FE0
07F0
07F0
07F8
07F8
03F8
03FC
03FC
03FC
03FC
01FE
01FE
01FE
01FE
01FE
01FE
01FE
01FE
01FE
01FE
01FE
01FE
01FE
03FC
03FC
03FC
03FC
03F8
03F8
07F8
07F0
07F0
0FE0
0FE0
0FC0
1FC0
1F80
3F80
3F00
3E00
7E00
7C00
F800
F000
ENDCHAR
STARTCHAR $002A
ENCODING 42
SWIDTH 433 0
DWIDTH 26 0
BBX 25 23 1 23
BITMAP
001C0000
003E0000
003E0000
003E0000
003E0000
003E0000
003E0000
7C3C1F00
FF1C7F80
FFDDFF80
7FFFFF00
1FFFFC00
01FFC000
007F0000
00FF8000
01F7C000
03F7E000
03E3E000
07E3F000
0FC1F800
0F80F800
0F80F800
07007000
ENDCHAR
STARTCHAR $002B
ENCODING 43
SWIDTH 583 0
DWIDTH 35 0
BBX 30 30 2 6
BITMAP
001FE000
001FE000
001FE000
001FE000
001FE000
001FE000
001FE000
001FE000
001FE000
001FE000
001FE000
FFFFFFFC
FFFFFFFC
FFFFFFFC
FFFFFFFC
FFFFFFFC
FFFFFFFC
FFFFFFFC
FFFFFFFC
001FE000
001FE000
001FE000
001FE000
001FE000
001FE000
001FE000
001FE000
001FE000
001FE000
001FE000
ENDCHAR
STARTCHAR $002C
ENCODING 44
SWIDTH 316 0
DWIDTH 19 0
BBX 9 17 5 -9
BITMAP
3C00
7F00
FF00
FF80
FF80
FF80
7F80
7F80
0F80
0F80
0F00
1F00
3E00
7E00
FC00
F800
7000
ENDCHAR
STARTCHAR $002D
ENCODING 45
SWIDTH 333 0
DWIDTH 20 0
BBX 18 7 1 12
BITMAP
3FFF00
7FFF80
FFFFC0
FFFFC0
FFFFC0
7FFF80
3FFF00
ENDCHAR
STARTCHAR $002E
ENCODING 46
SWIDTH 316 0
DWIDTH 19 0
BBX 9 9 5 0
BITMAP
3C00
7F00
FF80
FF80
FF80
FF80
FF80
7F00
3E00
ENDCHAR
STARTCHAR $002F
ENCODING 47
SWIDTH 283 0
DWIDTH 17 0
BBX 15 43 1 0
BITMAP
003C
003E
007E
007E
007E
00FC
00FC
00FC
00FC
01FC
01F8
01F8
01F8
03F8
03F0
03F0
03F0
07F0
07E0
07E0
07E0
0FE0
0FC0
0FC0
0FC0
1FC0
1F80
1F80
1F80
3F80
3F00
3F00
3F00
7F00
7E00
7E00
7E00
FE00
FC00
FC00
FC00
F800
7800
ENDCHAR
STARTCHAR $0030
ENCODING 48
SWIDTH 600 0
DWIDTH 36 0
BBX 30 43 3 0
BITMAP
001FE000
00FFF800
01FFFE00
07FFFF00
0FFFFF80
0FFFFFC0
1FF07FE0
3FE01FE0
3FC00FF0
3FC00FF0
7F8007F8
7F8007F8
7F8007F8
7F8007F8
FF0003FC
FF0003FC
FF0003FC
FF0003FC
FF0003FC
FF0003FC
FF0003FC
FF0003FC
FF0003FC
FF0003FC
FF0003FC
FF0003FC
FF0003FC
FF0003FC
FF0003FC
7F8007F8
7F8007F8
7F8007F8
7F8007F8
3FC00FF0
3FC00FF0
1FE01FE0
1FF07FE0
0FFFFFC0
07FFFF80
03FFFF00
01FFFE00
007FF800
001FE000
ENDCHAR
STARTCHAR $0031
ENCODING 49
SWIDTH 600 0
DWIDTH 36 0
BBX 21 43 4 0
BITMAP
0000E0
0001F0
0003F8
0007F8
0007F8
000FF8
001FF8
003FF8
00FFF8
01FFF8
07FFF8
1FFFF8
7FF7F8
FFE7F8
FFC7F8
FF07F8
FE07F8
7807F8
0007F8
0007F8
0007F8
0007F8
0007F8
0007F8
0007F8
0007F8
0007F8
0007F8
0007F8
0007F8
0007F8
0007F8
0007F8
0007F8
0007F8
0007F8
0007F8
0007F8
0007F8
0007F8
0007F8
0003F0
0001E0
ENDCHAR
STARTCHAR $0032
ENCODING 50
SWIDTH 600 0
DWIDTH 36 0
BBX 30 43 4 0
BITMAP
003FE000
01FFFC00
07FFFF00
0FFFFF80
1FFFFFC0
3FFFFFE0
7FF07FF0
7FC01FF0
FF800FF0
FF000FF8
FF0007F8
FE0007F8
FE0007F8
FE0007F8
7C0007F8
38000FF8
00000FF0
00001FF0
00003FE0
00003FE0
00007FC0
0001FF80
0003FF00
0007FE00
001FFC00
003FF800
007FF000
00FFE000
01FF8000
03FF0000
07FE0000
0FFC0000
1FF80000
3FF00000
7FE00000
7FC00000
FFFFFFF0
FFFFFFF8
FFFFFFFC
FFFFFFFC
FFFFFFFC
7FFFFFF8
3FFFFFF0
ENDCHAR
STARTCHAR $0033
ENCODING 51
SWIDTH 600 0
DWIDTH 36 0
BBX 30 43 3 0
BITMAP
001FE000
00FFFC00
03FFFF00
07FFFF80
0FFFFFC0
1FFFFFE0
3FE07FE0
3FC01FE0
7F801FF0
7F000FF0
7F000FF0
3E000FF0
1E000FF0
00000FF0
00001FE0
00003FE0
0000FFC0
003FFF80
007FFF00
00FFFE00
00FFFF80
00FFFFC0
007FFFE0
00003FF0
00000FF8
000007F8
000007FC
000003FC
180003FC
7C0003FC
FE0003FC
FE0003FC
FF0007FC
FF0007F8
7F800FF8
7FC01FF8
3FF07FF0
3FFFFFE0
1FFFFFC0
0FFFFF80
03FFFF00
00FFFC00
003FE000
ENDCHAR
STARTCHAR $0034
ENCODING 52
SWIDTH 600 0
DWIDTH 36 0
BBX 34 43 1 0
BITMAP
000007C000
00000FE000
00001FF000
00003FF000
00003FF000
00007FF000
0000FFF000
0001FFF000
0003FFF000
0003FFF000
0007FFF000
000FEFF000
001FCFF000
001FCFF000
003F8FF000
007F0FF000
00FE0FF000
00FE0FF000
01FC0FF000
03F80FF000
07F80FF000
07F00FF000
0FE00FF000
1FE00FF000
3FC00FF000
3F800FF000
7F000FF000
FF000FF000
FFFFFFFF80
FFFFFFFFC0
FFFFFFFFC0
FFFFFFFFC0
7FFFFFFFC0
3FFFFFFF80
00000FF000
00000FF000
00000FF000
00000FF000
00000FF000
00000FF000
00000FF000
000007E000
000003C000
ENDCHAR
STARTCHAR $0035
ENCODING 53
SWIDTH 600 0
DWIDTH 36 0
BBX 30 43 3 0
BITMAP
03FFFFE0
07FFFFF0
0FFFFFF8
0FFFFFF8
0FFFFFF8
0FFFFFF0
1FFFFFE0
1FC00000
1FC00000
1FC00000
1FC00000
3FC00000
3FC00000
3F800000
3F87F000
3FBFFE00
3FFFFF00
7FFFFFC0
7FFFFFE0
7FFFFFE0
7FE07FF0
7FC01FF8
7F000FF8
3E0007F8
000007FC
000003FC
000003FC
000003FC
000003FC
380003FC
FC0003FC
FE0003FC
FE0007F8
FF0007F8
FF800FF8
7FC01FF0
7FF07FE0
3FFFFFE0
1FFFFFC0
0FFFFF80
07FFFE00
01FFFC00
003FE000
ENDCHAR
STARTCHAR $0036
ENCODING 54
SWIDTH 600 0
DWIDTH 36 0
BBX 31 43 3 0
BITMAP
000FF800
003FFF00
00FFFF80
01FFFFC0
07FFFFE0
07FFFFF0
0FFC1FF8
1FF00FF8
1FE007F8
3FE003F8
3FC001F8
7FC000F0
7F800000
7F800000
7F800000
7F81FC00
FF8FFF00
FF1FFFC0
FF3FFFE0
FF7FFFF0
FFFFFFF8
FFFC1FF8
FFF00FFC
FFE007FC
FFC003FC
FFC003FE
FF8001FE
FF8001FE
FF8001FE
7F8001FE
7F8001FE
7F8001FE
7FC003FE
3FC003FC
3FE007FC
1FF00FF8
1FFC1FF8
0FFFFFF0
07FFFFE0
03FFFFC0
01FFFF80
007FFE00
000FF000
ENDCHAR
STARTCHAR $0037
ENCODING 55
SWIDTH 600 0
DWIDTH 36 0
BBX 29 43 5 0
BITMAP
3FFFFFE0
FFFFFFF0
FFFFFFF8
FFFFFFF8
FFFFFFF8
7FFFFFF0
3FFFFFF0
00000FE0
00001FC0
00003FC0
00007F80
00007F00
0000FF00
0001FE00
0001FC00
0003FC00
0003F800
0007F000
0007F000
000FE000
000FE000
001FE000
001FC000
003FC000
003F8000
007F8000
007F8000
007F8000
00FF0000
00FF0000
00FF0000
01FF0000
01FF0000
01FE0000
01FE0000
03FE0000
03FE0000
03FE0000
03FE0000
03FC0000
01FC0000
01F80000
00F00000
ENDCHAR
STARTCHAR $0038
ENCODING 56
SWIDTH 600 0
DWIDTH 36 0
BBX 30 43 3 0
BITMAP
003FE000
00FFFC00
03FFFF00
07FFFF80
0FFFFFC0
1FFFFFE0
3FF07FE0
3FE01FF0
3FC00FF0
3F800FF0
7F8007F0
7F8007F0
3F8007F0
3F8007F0
3FC00FF0
3FE01FE0
1FF03FE0
0FFFFFC0
07FFFF80
01FFFE00
03FFFF00
0FFFFFC0
1FFFFFE0
3FF03FF0
7FC00FF0
7F8007F8
7F8007F8
FF0003FC
FF0003FC
FF0003FC
FF0003FC
FF0003FC
FF0003FC
FF8007FC
7F800FF8
7FC01FF8
3FF03FF0
3FFFFFF0
1FFFFFE0
0FFFFFC0
07FFFF80
01FFFE00
003FF000
ENDCHAR
STARTCHAR $0039
ENCODING 57
SWIDTH 600 0
DWIDTH 36 0
BBX 31 43 2 0
BITMAP
001FE000
00FFFC00
03FFFF00
07FFFF80
0FFFFFC0
1FFFFFE0
3FF07FF0
3FE01FF0
7FC00FF8
7F8007F8
7F8007F8
FF0007FC
FF0003FC
FF0003FC
FF0003FC
FF0003FE
FF0003FE
FF0003FE
FF8007FE
7F8007FE
7FC00FFE
7FE01FFE
3FF07FFE
1FFFFFFE
1FFFFDFE
0FFFF9FE
07FFF3FE
01FFE3FC
007F03FC
000003FC
000003FC
000007F8
1E0007F8
3F0007F8
3F800FF0
3FC01FF0
3FF07FE0
3FFFFFC0
1FFFFF80
0FFFFF00
07FFFE00
01FFF800
003FE000
ENDCHAR
STARTCHAR $003A
ENCODING 58
SWIDTH 316 0
DWIDTH 19 0
BBX 9 32 5 0
BITMAP
3E00
7F00
FF80
FF80
FF80
FF80
FF00
7F00
3C00
0000
0000
0000
0000
0000
0000
0000
0000
0000
0000
0000
0000
0000
0000
3C00
7F00
FF80
FF80
FF80
FF80
FF80
7F00
3E00
ENDCHAR
STARTCHAR $003B
ENCODING 59
SWIDTH 316 0
DWIDTH 19 0
BBX 10 41 4 -9
BITMAP
1F00
3F80
7FC0
7FC0
7FC0
7FC0
7F80
3F80
1E00
0000
0000
0000
0000
0000
0000
0000
0000
0000
0000
0000
0000
0000
0000
0000
1E00
7F00
7F80
FFC0
FFC0
FFC0
7FC0
3FC0
0FC0
07C0
0780
0F80
1F00
7F00
FE00
FC00
7000
ENDCHAR
STARTCHAR $003C
ENCODING 60
SWIDTH 583 0
DWIDTH 35 0
BBX 29 33 3 5
BITMAP
00000008
00000038
000001F8
000007F8
00001FF8
00007FF8
0003FFF8
000FFFF8
003FFFF8
00FFFFC0
07FFFF00
1FFFF800
7FFFE000
FFFF0000
FFFC0000
FFE00000
FF800000
FFE00000
FFFC0000
FFFF0000
7FFFE000
1FFFF800
07FFFF00
00FFFFC0
003FFFF8
000FFFF8
0003FFF8
00007FF8
00001FF8
000007F8
000001F8
00000038
00000008
ENDCHAR
STARTCHAR $003D
ENCODING 61
SWIDTH 583 0
DWIDTH 35 0
BBX 30 20 2 11
BITMAP
FFFFFFFC
FFFFFFFC
FFFFFFFC
FFFFFFFC
FFFFFFFC
FFFFFFFC
FFFFFFFC
FFFFFFFC
00000000
00000000
00000000
00000000
FFFFFFFC
FFFFFFFC
FFFFFFFC
FFFFFFFC
FFFFFFFC
FFFFFFFC
FFFFFFFC
FFFFFFFC
ENDCHAR
STARTCHAR $003E
ENCODING 62
SWIDTH 583 0
DWIDTH 35 0
BBX 29 32 3 5
BITMAP
80000000
E0000000
FC000000
FF000000
FFC00000
FFF80000
FFFE0000
FFFF8000
7FFFF000
0FFFFC00
03FFFF00
007FFFE0
001FFFF8
0003FFF8
00007FF8
00001FF8
00001FF8
0000FFF8
0003FFF8
001FFFF8
007FFFC0
03FFFF00
1FFFFC00
7FFFF000
FFFF8000
FFFE0000
FFF80000
FFC00000
FF000000
FC000000
E0000000
80000000
ENDCHAR
STARTCHAR $003F
ENCODING 63
SWIDTH 566 0
DWIDTH 34 0
BBX 29 43 3 0
BITMAP
003FE000
01FFFC00
03FFFF00
0FFFFF80
1FFFFFC0
3FFFFFE0
3FF07FF0
7FC01FF0
FF800FF8
FF8007F8
FF0007F8
FF0007F8
FE0007F8
FE000FF8
7C000FF0
00003FF0
00007FE0
0000FFE0
0001FFC0
0003FF00
0007FE00
000FFC00
001FF800
003FF000
003FE000
003FC000
003F8000
003F8000
003F8000
003F0000
001F0000
00000000
00000000
00000000
001F0000
003F8000
007FC000
007FC000
007FC000
007FC000
007FC000
003F8000
001F0000
ENDCHAR
STARTCHAR $0040
ENCODING 64
SWIDTH 983 0
DWIDTH 59 0
BBX 58 55 1 -12
BITMAP
000000FFF8000000
00000FFFFF800000
00007FFFFFE00000
0001FFFFFFF80000
0007FFFFFFFE0000
000FFFFFFFFF0000
003FFF800FFF8000
007FF80001FFC000
00FFE000003FE000
01FF8000001FF000
03FE00000007F800
07FC00000003F800
07F800FE0FF1FC00
0FF003FF8FE1FC00
0FE00FFFCFE0FE00
1FE01FFFEFE07E00
1FC03FFFFFE07E00
3F807FFFFFE07F00
3F80FFC1FFC03F00
7F01FF80FFC03F00
7F01FF007FC03F00
7E03FE007FC03F00
7E03FC003FC03F00
FE07FC003F803F00
FE07F8003F803F00
FC07F8003F803F00
FC0FF8003F807F00
FC0FF0003F007E00
FC0FF0007F007E00
FC0FF0007F00FE00
FC0FF0007F00FC00
FC0FF000FF01FC00
FC0FF000FE03F800
FC0FF001FE03F800
7C0FF801FE07F000
7E07F803FE1FE000
7E07FC07FE3FE000
7E03FFBFFFFFC000
3F03FFFFFFFF8000
3F01FFFFFFFE0000
3F80FFFCFFFC0000
1FC03FF8FFF00000
0FC00FC03F801FC0
0FE0000000003F80
07F0000000007F00
03FC00000000FF00
01FE00000003FE00
00FF80000007FC00
007FE000003FF800
003FFE0001FFF000
000FFFFFFFFFC000
0003FFFFFFFF0000
0000FFFFFFFC0000
00001FFFFFE00000
000000FFFC000000
ENDCHAR
STARTCHAR $0041
ENCODING 65
SWIDTH 716 0
DWIDTH 43 0
BBX 40 43 2 0
BITMAP
00007C0000
0000FF0000
0001FF8000
0003FFC000
0003FFC000
0007FFC000
0007FFE000
000FFFE000
000FFFF000
000FEFF000
001FE7F800
001FE7F800
003FC7F800
003FC3FC00
003F83FC00
007F83FE00
007F81FE00
00FF01FE00
00FF00FF00
00FF00FF00
01FE00FF80
01FE007F80
03FE007FC0
03FC007FC0
07FC003FC0
07FC003FE0
07FFFFFFE0
0FFFFFFFF0
0FFFFFFFF0
1FFFFFFFF8
1FFFFFFFF8
1FFFFFFFF8
3FE00007FC
3FE00007FC
7FC00003FE
7FC00003FE
7F800003FE
FF800001FF
FF800001FF
FF000000FF
FF000000FF
7E0000007E
3C0000003C
ENDCHAR
STARTCHAR $0042
ENCODING 66
SWIDTH 716 0
DWIDTH 43 0
BBX 35 43 5 0
BITMAP
3FFFFF0000
7FFFFFE000
FFFFFFF800
FFFFFFFC00
FFFFFFFE00
FFFFFFFE00
FF000FFF00
FF0003FF00
FF0001FF80
FF0000FF80
FF0000FF80
FF0000FF80
FF0000FF80
FF0000FF80
FF0000FF00
FF0001FF00
FF0003FE00
FF000FFE00
FFFFFFFC00
FFFFFFF000
FFFFFFC000
FFFFFFF800
FFFFFFFE00
FFFFFFFF00
FF0007FF80
FF0000FFC0
FF00007FC0
FF00007FC0
FF00003FE0
FF00003FE0
FF00003FE0
FF00003FE0
FF00003FE0
FF00007FE0
FF00007FC0
FF0000FFC0
FF0007FFC0
FFFFFFFF80
FFFFFFFF00
FFFFFFFE00
FFFFFFFC00
7FFFFFF000
3FFFFF8000
ENDCHAR
STARTCHAR $0043
ENCODING 67
SWIDTH 733 0
DWIDTH 44 0
BBX 38 43 3 0
BITMAP
0000FF8000
0007FFF800
003FFFFE00
007FFFFF00
01FFFFFFC0
03FFFFFFE0
07FFFFFFF0
0FFF80FFF0
0FFE003FF8
1FFC000FFC
3FF00007FC
3FF00007FC
3FE00003FC
7FE00001FC
7FC00001FC
7FC00000F8
FFC0000000
FF80000000
FF80000000
FF80000000
FF80000000
FF80000000
FF80000000
FF80000000
FF80000000
FF80000020
FF800000F8
7FC00001FC
7FC00001FC
7FC00003FC
3FE00003FC
3FE00007FC
1FF00007FC
1FF8000FF8
0FFC003FF8
0FFF80FFF0
07FFFFFFF0
03FFFFFFE0
01FFFFFFC0
00FFFFFF80
003FFFFE00
000FFFF800
0000FFC000
ENDCHAR
STARTCHAR $0044
ENCODING 68
SWIDTH 733 0
DWIDTH 44 0
BBX 37 43 5 0
BITMAP
3FFFFE0000
7FFFFFC000
FFFFFFF000
FFFFFFFC00
FFFFFFFE00
FFFFFFFF00
FFFFFFFF80
FF000FFF80
FF0001FFC0
FF0000FFC0
FF00007FE0
FF00003FE0
FF00003FF0
FF00001FF0
FF00001FF0
FF00001FF0
FF00000FF8
FF00000FF8
FF00000FF8
FF00000FF8
FF00000FF8
FF00000FF8
FF00000FF8
FF00000FF8
FF00000FF8
FF00000FF8
FF00000FF8
FF00001FF8
FF00001FF0
FF00001FF0
FF00003FF0
FF00003FE0
FF00007FE0
FF0000FFE0
FF0001FFC0
FF000FFF80
FFFFFFFF80
FFFFFFFF00
FFFFFFFE00
FFFFFFFC00
FFFFFFF000
7FFFFFC000
3FFFFE0000
ENDCHAR
STARTCHAR $0045
ENCODING 69
SWIDTH 666 0
DWIDTH 40 0
BBX 32 43 5 0
BITMAP
3FFFFFFC
7FFFFFFE
FFFFFFFF
FFFFFFFF
FFFFFFFF
FFFFFFFE
FFFFFFFC
FF000000
FF000000
FF000000
FF000000
FF000000
FF000000
FF000000
FF000000
FF000000
FF000000
FF000000
FFFFFFF8
FFFFFFFC
FFFFFFFC
FFFFFFFC
FFFFFFFC
FFFFFFF8
FF000000
FF000000
FF000000
FF000000
FF000000
FF000000
FF000000
FF000000
FF000000
FF000000
FF000000
FF000000
FFFFFFFE
FFFFFFFF
FFFFFFFF
FFFFFFFF
FFFFFFFF
7FFFFFFF
3FFFFFFE
ENDCHAR
STARTCHAR $0046
ENCODING 70
SWIDTH 600 0
DWIDTH 36 0
BBX 29 43 5 0
BITMAP
3FFFFFF0
7FFFFFF8
FFFFFFF8
FFFFFFF8
FFFFFFF8
FFFFFFF8
FFFFFFF0
FF000000
FF000000
FF000000
FF000000
FF000000
FF000000
FF000000
FF000000
FF000000
FF000000
FF000000
FFFFFF80
FFFFFFC0
FFFFFFC0
FFFFFFC0
FFFFFFC0
FFFFFF80
FF000000
FF000000
FF000000
FF000000
FF000000
FF000000
FF000000
FF000000
FF000000
FF000000
FF000000
FF000000
FF000000
FF000000
FF000000
FF000000
FF000000
7E000000
3C000000
ENDCHAR
STARTCHAR $0047
ENCODING 71
SWIDTH 800 0
DWIDTH 48 0
BBX 41 43 3 0
BITMAP
00007FF00000
0007FFFE0000
001FFFFF8000
007FFFFFE000
01FFFFFFF000
03FFFFFFF800
07FFFFFFFC00
0FFFC03FFC00
0FFE000FFE00
1FFC0007FE00
3FF80003FF00
3FF00001FF00
3FE00001FE00
7FE00000FE00
7FC000007C00
7FC000000000
FFC000000000
FF8000000000
FF8000000000
FF8000000000
FF8000000000
FF8001FFFE00
FF8003FFFF00
FF8007FFFF80
FF8007FFFF80
FF8003FFFF80
FFC001FFFF80
7FC000007F80
7FC000007F80
7FE000007F80
3FE000007F80
3FF000007F80
3FF800007F80
1FFC0000FF80
0FFE0003FF80
0FFFC01FFF80
07FFFFFFFF00
03FFFFFFFE00
01FFFFFFFC00
007FFFFFF000
003FFFFFC000
0007FFFE0000
00007FF00000
ENDCHAR
STARTCHAR $0048
ENCODING 72
SWIDTH 766 0
DWIDTH 46 0
BBX 36 43 5 0
BITMAP
3C000003C0
7E000007E0
FF00000FF0
FF00000FF0
FF00000FF0
FF00000FF0
FF00000FF0
FF00000FF0
FF00000FF0
FF00000FF0
FF00000FF0
FF00000FF0
FF00000FF0
FF00000FF0
FF00000FF0
FF00000FF0
FF00000FF0
FFFFFFFFF0
FFFFFFFFF0
FFFFFFFFF0
FFFFFFFFF0
FFFFFFFFF0
FFFFFFFFF0
FFFFFFFFF0
FF00000FF0
FF00000FF0
FF00000FF0
FF00000FF0
FF00000FF0
FF00000FF0
FF00000FF0
FF00000FF0
FF00000FF0
FF00000FF0
FF00000FF0
FF00000FF0
FF00000FF0
FF00000FF0
FF00000FF0
FF00000FF0
FF00000FF0
7E000007E0
3C000003C0
ENDCHAR
STARTCHAR $0049
ENCODING 73
SWIDTH 316 0
DWIDTH 19 0
BBX 8 43 5 0
BITMAP
3C
7E
FF
FF
FF
FF
FF
FF
FF
FF
FF
FF
FF
FF
FF
FF
FF
FF
FF
FF
FF
FF
FF
FF
FF
FF
FF
FF
FF
FF
FF
FF
FF
FF
FF
FF
FF
FF
FF
FF
FF
7E
3C
ENDCHAR
STARTCHAR $004A
ENCODING 74
SWIDTH 566 0
DWIDTH 34 0
BBX 28 43 1 0
BITMAP
000003C0
000007E0
00000FF0
00000FF0
00000FF0
00000FF0
00000FF0
00000FF0
00000FF0
00000FF0
00000FF0
00000FF0
00000FF0
00000FF0
00000FF0
00000FF0
00000FF0
00000FF0
00000FF0
00000FF0
00000FF0
00000FF0
00000FF0
00000FF0
00000FF0
00000FF0
3C000FF0
7E000FF0
FF000FF0
FF000FF0
FF000FF0
FF800FF0
FF801FF0
7F801FE0
7FC03FE0
7FE07FE0
3FFFFFC0
1FFFFFC0
1FFFFF80
0FFFFF00
07FFFE00
01FFFC00
003FE000
ENDCHAR
STARTCHAR $004B
ENCODING 75
SWIDTH 733 0
DWIDTH 44 0
BBX 36 43 5 0
BITMAP
3C00001F00
7E00003F80
FF00007F80
FF0000FFC0
FF0001FFC0
FF0003FF80
FF0007FF00
FF000FFF00
FF001FFC00
FF003FF800
FF007FF000
FF00FFE000
FF01FFC000
FF03FF8000
FF07FF0000
FF0FFE0000
FF1FFC0000
FF3FF80000
FF7FFC0000
FFFFFE0000
FFFFFF0000
FFFFFF0000
FFFFFF8000
FFFFFFC000
FFF8FFE000
FFF07FE000
FFE03FF000
FFC03FF800
FF801FF800
FF000FFC00
FF000FFE00
FF0007FF00
FF0003FF00
FF0003FF80
FF0001FFC0
FF0000FFC0
FF0000FFE0
FF00007FE0
FF00003FF0
FF00003FF0
FF00001FF0
7E00000FE0
3C000007C0
ENDCHAR
STARTCHAR $004C
ENCODING 76
SWIDTH 600 0
DWIDTH 36 0
BBX 30 43 5 0
BITMAP
3C000000
7E000000
FF000000
FF000000
FF000000
FF000000
FF000000
FF000000
FF000000
FF000000
FF000000
FF000000
FF000000
FF000000
FF000000
FF000000
FF000000
FF000000
FF000000
FF000000
FF000000
FF000000
FF000000
FF000000
FF000000
FF000000
FF000000
FF000000
FF000000
FF000000
FF000000
FF000000
FF000000
FF000000
FF000000
FF000000
FFFFFFF0
FFFFFFF8
FFFFFFFC
FFFFFFFC
FFFFFFFC
7FFFFFF8
3FFFFFF0
ENDCHAR
STARTCHAR $004D
ENCODING 77
SWIDTH 833 0
DWIDTH 50 0
BBX 42 43 4 0
BITMAP
3FF00003FF00
7FF80007FF80
FFFC000FFFC0
FFFC000FFFC0
FFFC000FFFC0
FFFE001FFFC0
FFFE001FFFC0
FFFE001FFFC0
FFFE001FFFC0
FFFF003FFFC0
FFFF003FFFC0
FF7F003FBFC0
FF7F007FBFC0
FF7F807FBFC0
FF7F807FBFC0
FF3F807F3FC0
FF3FC0FF3FC0
FF3FC0FF3FC0
FF3FC0FF3FC0
FF1FC0FE3FC0
FF1FE1FE3FC0
FF1FE1FE3FC0
FF0FE1FC3FC0
FF0FE3FC3FC0
FF0FF3FC3FC0
FF0FF3FC3FC0
FF07F3F83FC0
FF07FFF83FC0
FF07FFF83FC0
FF07FFF83FC0
FF03FFF03FC0
FF03FFF03FC0
FF03FFF03FC0
FF03FFF03FC0
FF01FFE03FC0
FF01FFE03FC0
FF01FFE03FC0
FF01FFE03FC0
FF00FFC03FC0
FF00FFC03FC0
FF007FC03FC0
7E007F801F80
3C001E000F00
ENDCHAR
STARTCHAR $004E
ENCODING 78
SWIDTH 766 0
DWIDTH 46 0
BBX 36 43 5 0
BITMAP
1E000003C0
7F800007E0
7F80000FF0
FFC0000FF0
FFE0000FF0
FFE0000FF0
FFF0000FF0
FFF8000FF0
FFF8000FF0
FFFC000FF0
FFFE000FF0
FFFE000FF0
FFFF000FF0
FFFF800FF0
FFFF800FF0
FF7FC00FF0
FF3FE00FF0
FF3FF00FF0
FF1FF00FF0
FF0FF80FF0
FF0FFC0FF0
FF07FC0FF0
FF03FE0FF0
FF01FF0FF0
FF01FF0FF0
FF00FF8FF0
FF007FCFF0
FF007FCFF0
FF003FEFF0
FF001FFFF0
FF001FFFF0
FF000FFFF0
FF0007FFF0
FF0007FFF0
FF0003FFF0
FF0001FFF0
FF0001FFF0
FF0000FFF0
FF00007FF0
FF00007FF0
FF00003FF0
7E00001FE0
3C000007C0
ENDCHAR
STARTCHAR $004F
ENCODING 79
SWIDTH 800 0
DWIDTH 48 0
BBX 42 43 3 0
BITMAP
0000FFC00000
000FFFFC0000
003FFFFF0000
00FFFFFFC000
01FFFFFFE000
03FFFFFFF000
07FFFFFFF800
0FFF80FFFC00
1FFE001FFE00
1FFC000FFE00
3FF80007FF00
3FF00003FF00
7FE00001FF80
7FE00001FF80
7FC00000FF80
7FC00000FF80
FFC00000FFC0
FF8000007FC0
FF8000007FC0
FF8000007FC0
FF8000007FC0
FF8000007FC0
FF8000007FC0
FF8000007FC0
FF8000007FC0
FF8000007FC0
FFC00000FFC0
7FC00000FF80
7FC00000FF80
7FE00001FF80
7FE00001FF80
3FF00003FF00
3FF80007FF00
1FFC000FFE00
1FFE001FFE00
0FFF80FFFC00
07FFFFFFF800
03FFFFFFF000
01FFFFFFE000
00FFFFFFC000
003FFFFF0000
000FFFFC0000
0000FFC00000
ENDCHAR
STARTCHAR $0050
ENCODING 80
SWIDTH 666 0
DWIDTH 40 0
BBX 33 43 5 0
BITMAP
1FFFFE0000
7FFFFFC000
FFFFFFF000
FFFFFFF800
FFFFFFFC00
FFFFFFFE00
FF001FFF00
FF0003FF00
FF0001FF00
FF0001FF80
FF0000FF80
FF0000FF80
FF0000FF80
FF0000FF80
FF0000FF80
FF0000FF80
FF0001FF80
FF0003FF00
FF0007FF00
FF001FFE00
FFFFFFFE00
FFFFFFFC00
FFFFFFF800
FFFFFFF000
FFFFFFC000
FFFFFC0000
FF00000000
FF00000000
FF00000000
FF00000000
FF00000000
FF00000000
FF00000000
FF00000000
FF00000000
FF00000000
FF00000000
FF00000000
FF00000000
FF00000000
FF00000000
7E00000000
3C00000000
ENDCHAR
STARTCHAR $0051
ENCODING 81
SWIDTH 800 0
DWIDTH 48 0
BBX 44 46 3 -3
BITMAP
0000FFC00000
000FFFFC0000
003FFFFF0000
00FFFFFFC000
01FFFFFFE000
03FFFFFFF000
07FFFFFFF800
0FFF80FFFC00
1FFE001FFE00
1FFC000FFE00
3FF80007FF00
3FF00003FF00
7FE00001FF80
7FE00001FF80
7FC00000FF80
7FC00000FF80
FFC00000FFC0
FF8000007FC0
FF8000007FC0
FF8000007FC0
FF8000007FC0
FF8000007FC0
FF8000007FC0
FF8000007FC0
FF8000007FC0
FF8000007FC0
FFC00000FFC0
7FC00000FF80
7FC00E00FF80
7FE01F81FF80
7FE03FE1FF00
3FF01FFBFF00
3FF807FFFF00
1FFC01FFFE00
1FFE00FFFC00
0FFF80FFFC00
07FFFFFFF800
03FFFFFFF800
01FFFFFFFE00
00FFFFFFFF80
003FFFFFFFC0
000FFFFCFFF0
0000FFC03FF0
000000001FF0
0000000007F0
0000000001E0
ENDCHAR
STARTCHAR $0052
ENCODING 82
SWIDTH 716 0
DWIDTH 43 0
BBX 36 43 5 0
BITMAP
3FFFFFC000
7FFFFFF800
FFFFFFFC00
FFFFFFFF00
FFFFFFFF80
FFFFFFFF80
FF0003FFC0
FF0000FFC0
FF00007FE0
FF00007FE0
FF00003FE0
FF00003FE0
FF00003FE0
FF00003FE0
FF00003FE0
FF00007FE0
FF00007FC0
FF0000FFC0
FF0007FF80
FFFFFFFF80
FFFFFFFF00
FFFFFFFC00
FFFFFFF000
FFFFFFC000
FFFFFF8000
FF01FFC000
FF007FE000
FF003FF000
FF001FF800
FF000FFC00
FF000FFE00
FF0007FF00
FF0003FF00
FF0003FF80
FF0001FFC0
FF0000FFC0
FF0000FFE0
FF00007FE0
FF00003FE0
FF00003FF0
FF00001FF0
7E00000FE0
3C000007C0
ENDCHAR
STARTCHAR $0053
ENCODING 83
SWIDTH 666 0
DWIDTH 40 0
BBX 34 43 3 0
BITMAP
000FFC0000
00FFFF8000
03FFFFE000
07FFFFF800
0FFFFFFC00
1FFFFFFE00
3FF80FFE00
3FE003FF00
7FC001FF00
7F8000FF00
7F80007F00
7F80007F00
7F80003F00
7FC0001E00
7FE0000000
3FFC000000
3FFF800000
1FFFF80000
1FFFFF8000
0FFFFFE000
03FFFFF800
00FFFFFC00
003FFFFE00
0007FFFF00
00007FFF80
000007FF80
000001FFC0
3800007FC0
7E00007FC0
FE00003FC0
FF00003FC0
FF00003FC0
FF80003FC0
7F80007FC0
7FC000FF80
7FE001FF80
3FF807FF00
1FFFFFFE00
0FFFFFFC00
07FFFFF800
03FFFFF000
00FFFFC000
000FFC0000
ENDCHAR
STARTCHAR $0054
ENCODING 84
SWIDTH 633 0
DWIDTH 38 0
BBX 36 43 1 0
BITMAP
3FFFFFFFC0
7FFFFFFFE0
FFFFFFFFF0
FFFFFFFFF0
FFFFFFFFF0
7FFFFFFFE0
3FFFFFFFC0
0003FC0000
0003FC0000
0003FC0000
0003FC0000
0003FC0000
0003FC0000
0003FC0000
0003FC0000
0003FC0000
0003FC0000
0003FC0000
0003FC0000
0003FC0000
0003FC0000
0003FC0000
0003FC0000
0003FC0000
0003FC0000
0003FC0000
0003FC0000
0003FC0000
0003FC0000
0003FC0000
0003FC0000
0003FC0000
0003FC0000
0003FC0000
0003FC0000
0003FC0000
0003FC0000
0003FC0000
0003FC0000
0003FC0000
0003FC0000
0001F80000
0000F00000
ENDCHAR
STARTCHAR $0055
ENCODING 85
SWIDTH 766 0
DWIDTH 46 0
BBX 36 43 5 0
BITMAP
3C000003C0
7E000007E0
FF00000FF0
FF00000FF0
FF00000FF0
FF00000FF0
FF00000FF0
FF00000FF0
FF00000FF0
FF00000FF0
FF00000FF0
FF00000FF0
FF00000FF0
FF00000FF0
FF00000FF0
FF00000FF0
FF00000FF0
FF00000FF0
FF00000FF0
FF00000FF0
FF00000FF0
FF00000FF0
FF00000FF0
FF00000FF0
FF00000FF0
FF00000FF0
FF00000FF0
FF00000FF0
FF00000FF0
FF00000FF0
FF80001FF0
7F80001FE0
7FC0003FE0
7FC0003FE0
3FF000FFE0
3FFC03FFC0
1FFFFFFFC0
1FFFFFFF80
0FFFFFFF00
07FFFFFE00
01FFFFF800
007FFFF000
0007FF0000
ENDCHAR
STARTCHAR $0056
ENCODING 86
SWIDTH 683 0
DWIDTH 41 0
BBX 37 43 2 0
BITMAP
3C000001E0
7E000003F0
FF000007F8
FF000007F8
FF800007F8
FF80000FF8
7F80000FF0
7FC0000FF0
7FC0001FF0
3FC0001FE0
3FE0001FE0
3FE0003FE0
1FE0003FC0
1FF0003FC0
0FF0007F80
0FF0007F80
0FF8007F80
07F800FF00
07F800FF00
07FC01FF00
03FC01FE00
03FC01FE00
01FE03FC00
01FE03FC00
01FE03FC00
00FF07F800
00FF07F800
00FF07F800
007F8FF000
007F8FF000
003F8FE000
003FDFE000
003FDFE000
001FDFC000
001FFFC000
001FFFC000
000FFF8000
000FFF8000
000FFF0000
0007FF0000
0003FE0000
0003FC0000
0000F80000
ENDCHAR
STARTCHAR $0057
ENCODING 87
SWIDTH 933 0
DWIDTH 56 0
BBX 54 43 1 0
BITMAP
3C0000FC0000F0
7E0001FE0001F8
FF0003FF0003FC
FF0003FF0003FC
FF0007FF8003FC
FF8007FF8007FC
FF8007FF8007FC
7F800FFF8007F8
7F800FFFC007F8
7FC00FFFC00FF8
7FC00FFFC00FF8
3FC01FFFE00FF0
3FC01FCFE00FF0
3FC01FCFE00FF0
3FE01FCFE01FF0
1FE03FC7F01FE0
1FE03F87F01FE0
1FE03F87F01FE0
1FF07F87F03FE0
0FF07F03F83FC0
0FF07F03F83FC0
0FF07F03F83FC0
0FF8FF03FC7FC0
07F8FE01FC7F80
07F8FE01FC7F80
07F9FE01FC7F80
07F9FE00FE7F80
03FDFC00FEFF00
03FDFC00FEFF00
03FFFC00FFFF00
03FFF8007FFF00
01FFF8007FFE00
01FFF8007FFE00
01FFF8007FFE00
01FFF0003FFE00
00FFF0003FFC00
00FFF0003FFC00
00FFE0003FFC00
007FE0001FF800
007FE0001FF800
007FC0000FF800
003FC0000FF000
001F000003E000
ENDCHAR
STARTCHAR $0058
ENCODING 88
SWIDTH 600 0
DWIDTH 36 0
BBX 34 43 1 0
BITMAP
1E00000F00
3F00003F80
7F80003F80
7FC0007F80
3FE000FF80
3FE000FF80
3FF001FF00
1FF003FF00
0FF803FE00
0FFC07FC00
07FC0FFC00
03FE0FF800
03FF1FF000
01FF3FF000
00FFBFE000
00FFFFC000
007FFF8000
003FFF8000
003FFF0000
001FFE0000
000FFE0000
001FFE0000
003FFF0000
003FFF0000
007FFF8000
00FFFFC000
00FFFFC000
01FFFFE000
03FF3FF000
07FE1FF000
07FE1FF800
0FFC0FFC00
1FF807FC00
1FF807FE00
3FF003FF00
7FE001FF00
7FE001FF80
FFC000FFC0
FF80007FC0
FF80007FC0
FF00003FC0
7E00001F80
3C00000F00
ENDCHAR
STARTCHAR $0059
ENCODING 89
SWIDTH 633 0
DWIDTH 38 0
BBX 34 43 2 0
BITMAP
3C00000F00
7E00001F80
FF00003FC0
FF80003FC0
FF80007FC0
7FC000FFC0
7FE000FF80
3FE001FF80
3FF001FF00
1FF003FE00
0FF807FE00
0FFC07FC00
07FC0FF800
03FE1FF800
03FF1FF000
01FF3FE000
00FFFFE000
00FFFFC000
007FFF8000
003FFF8000
003FFF0000
001FFE0000
000FFC0000
000FFC0000
0007F80000
0007F80000
0007F80000
0007F80000
0007F80000
0007F80000
0007F80000
0007F80000
0007F80000
0007F80000
0007F80000
0007F80000
0007F80000
0007F80000
0007F80000
0007F80000
0007F80000
0003F00000
0001E00000
ENDCHAR
STARTCHAR $005A
ENCODING 90
SWIDTH 650 0
DWIDTH 39 0
BBX 37 43 1 0
BITMAP
0FFFFFFF80
1FFFFFFFC0
3FFFFFFFE0
3FFFFFFFE0
1FFFFFFFE0
0FFFFFFFE0
000000FFE0
000000FFC0
000001FFC0
000003FF80
000007FF00
00000FFE00
00000FFE00
00001FFC00
00003FF800
00007FF000
00007FE000
0000FFE000
0001FFC000
0003FF8000
0007FF0000
0007FE0000
000FFC0000
001FFC0000
003FF80000
007FF00000
007FE00000
00FFC00000
01FFC00000
03FF800000
07FF000000
07FE000000
0FFC000000
1FFC000000
3FF8000000
7FF0000000
7FE0000000
FFFFFFFFF0
FFFFFFFFF8
FFFFFFFFF8
FFFFFFFFF8
7FFFFFFFF8
1FFFFFFFE0
ENDCHAR
STARTCHAR $005B
ENCODING 91
SWIDTH 350 0
DWIDTH 21 0
BBX 17 54 4 -11
BITMAP
1FFE00
7FFF00
FFFF80
FFFF80
FFFF00
FFFE00
FF0000
FF0000
FF0000
FF0000
FF0000
FF0000
FF0000
FF0000
FF0000
FF0000
FF0000
FF0000
FF0000
FF0000
FF0000
FF0000
FF0000
FF0000
FF0000
FF0000
FF0000
FF0000
FF0000
FF0000
FF0000
FF0000
FF0000
FF0000
FF0000
FF0000
FF0000
FF0000
FF0000
FF0000
FF0000
FF0000
FF0000
FF0000
FF0000
FF0000
FF0000
FF0000
FFFE00
FFFF00
FFFF80
FFFF80
7FFF00
1FFE00
ENDCHAR
STARTCHAR $005C
ENCODING 92
SWIDTH 283 0
DWIDTH 17 0
BBX 15 43 1 0
BITMAP
7800
F800
FC00
FC00
FC00
FE00
7E00
7E00
7E00
7F00
3F00
3F00
3F00
3F80
1F80
1F80
1F80
1FC0
0FC0
0FC0
0FC0
0FE0
07E0
07E0
07E0
07F0
03F0
03F0
03F0
03F8
01F8
01F8
01F8
01FC
00FC
00FC
00FC
00FE
007E
007E
007E
007E
003C
ENDCHAR
STARTCHAR $005D
ENCODING 93
SWIDTH 350 0
DWIDTH 21 0
BBX 17 54 0 -11
BITMAP
3FFC00
7FFF00
FFFF00
FFFF80
7FFF80
3FFF80
007F80
007F80
007F80
007F80
007F80
007F80
007F80
007F80
007F80
007F80
007F80
007F80
007F80
007F80
007F80
007F80
007F80
007F80
007F80
007F80
007F80
007F80
007F80
007F80
007F80
007F80
007F80
007F80
007F80
007F80
007F80
007F80
007F80
007F80
007F80
007F80
007F80
007F80
007F80
007F80
007F80
007F80
3FFF80
7FFF80
FFFF80
FFFF80
7FFF00
3FFC00
ENDCHAR
STARTCHAR $005E
ENCODING 94
SWIDTH 583 0
DWIDTH 35 0
BBX 27 23 4 20
BITMAP
003F8000
003FC000
007FC000
007FE000
00FFE000
00FFE000
01FFF000
01FFF000
03FFF800
03FBF800
07FBFC00
07F1FC00
0FF1FE00
0FF1FE00
1FE0FF00
1FE0FF00
3FC07F80
3FC07F80
3FC07F80
7F803FC0
7F803FC0
FF001FE0
FF001FE0
ENDCHAR
STARTCHAR $005F
ENCODING 95
SWIDTH 500 0
DWIDTH 30 0
BBX 30 3 0 -8
BITMAP
FFFFFFFC
FFFFFFFC
FFFFFFFC
ENDCHAR
STARTCHAR $0060
ENCODING 96
SWIDTH 333 0
DWIDTH 20 0
BBX 12 8 2 35
BITMAP
FF00
7F80
3FC0
1FE0
0FE0
07F0
01F0
00F0
ENDCHAR
STARTCHAR $0061
ENCODING 97
SWIDTH 600 0
DWIDTH 36 0
BBX 31 32 2 0
BITMAP
001FFC00
01FFFF80
07FFFFE0
0FFFFFF0
1FFFFFF0
3FFFFFF8
3FF01FF8
3FC007FC
7F8007FC
7F0003FC
3F0003FC
1E0003FC
00000FFC
0000FFFC
000FFFFC
01FFFFFC
0FFFFFFC
1FFFF3FC
3FFF03FC
7FE003FC
7F8003FC
FF0003FC
FF0007FC
FF0007FC
FF000FFC
FF801FFE
7FE07FFE
7FFFFFFE
3FFFF9FE
1FFFF0FE
0FFFC07E
01FE003C
ENDCHAR
STARTCHAR $0062
ENCODING 98
SWIDTH 633 0
DWIDTH 38 0
BBX 31 43 4 0
BITMAP
3C000000
7E000000
FF000000
FF000000
FF000000
FF000000
FF000000
FF000000
FF000000
FF000000
FF000000
FF000000
FF03FC00
FF0FFF00
FF1FFFC0
FF7FFFE0
FFFFFFF0
FFFFFFF8
FFF83FF8
FFF00FFC
FFE007FC
FFC003FC
FF8003FE
FF8003FE
FF8001FE
FF8001FE
FF0001FE
FF0001FE
FF0001FE
FF0001FE
FF8001FE
FF8003FE
FF8003FC
FFC003FC
FFC007FC
FFE00FF8
FFF83FF8
FFFFFFF0
FF7FFFF0
FF7FFFE0
FF1FFFC0
7E0FFF00
3C03FC00
ENDCHAR
STARTCHAR $0063
ENCODING 99
SWIDTH 600 0
DWIDTH 36 0
BBX 30 32 3 0
BITMAP
001FF000
00FFFE00
01FFFF80
07FFFFC0
0FFFFFF0
1FFFFFF0
1FF81FF8
3FE00FF8
3FC003FC
7FC003FC
7F8001F8
7F8000F8
FF000000
FF000000
FF000000
FF000000
FF000000
FF000000
FF000000
FF000078
FF8000FC
7F8001FC
7FC001FC
7FC003FC
3FE007FC
3FF81FF8
1FFFFFF8
0FFFFFF0
07FFFFE0
03FFFF80
00FFFE00
001FF000
ENDCHAR
STARTCHAR $0064
ENCODING 100
SWIDTH 633 0
DWIDTH 38 0
BBX 32 43 2 0
BITMAP
0000003C
0000007E
000000FF
000000FF
000000FF
000000FF
000000FF
000000FF
000000FF
000000FF
000000FF
000000FF
003F80FF
01FFF0FF
07FFF8FF
0FFFFEFF
1FFFFFFF
1FFFFFFF
3FF83FFF
7FE00FFF
7FC007FF
7F8003FF
FF8001FF
FF8001FF
FF0001FF
FF0001FF
FF0000FF
FF0000FF
FF0000FF
FF0001FF
FF0001FF
FF8001FF
7F8001FF
7F8003FF
7FC007FF
3FE00FFF
3FF81FFF
1FFFFFFF
0FFFFEFF
07FFFCFF
03FFF8FF
01FFF07E
003F803C
ENDCHAR
STARTCHAR $0065
ENCODING 101
SWIDTH 600 0
DWIDTH 36 0
BBX 30 32 3 0
BITMAP
001FF000
00FFFC00
03FFFF00
07FFFF80
0FFFFFE0
1FFFFFE0
3FF83FF0
3FE00FF8
7FC007F8
7F8007F8
7F8003FC
FF0003FC
FF0003FC
FF0003FC
FFFFFFFC
FFFFFFFC
FFFFFFFC
FFFFFFF8
FFFFFFE0
FF000000
FF000000
7F000000
7F800078
7FC001FC
3FE003FC
3FF81FF8
1FFFFFF8
0FFFFFF0
07FFFFE0
03FFFFC0
00FFFF00
001FF800
ENDCHAR
STARTCHAR $0066
ENCODING 102
SWIDTH 333 0
DWIDTH 20 0
BBX 23 43 -1 0
BITMAP
000FF8
007FFE
00FFFE
01FFFE
01FFFE
03FFFE
03FE00
03FC00
03FC00
03FC00
03FC00
03FC00
7FFFE0
FFFFF0
FFFFF0
FFFFF8
FFFFF0
3FFFE0
03FC00
03FC00
03FC00
03FC00
03FC00
03FC00
03FC00
03FC00
03FC00
03FC00
03FC00
03FC00
03FC00
03FC00
03FC00
03FC00
03FC00
03FC00
03FC00
03FC00
03FC00
03FC00
03FC00
01F800
00F000
ENDCHAR
STARTCHAR $0067
ENCODING 103
SWIDTH 633 0
DWIDTH 38 0
BBX 32 43 2 -12
BITMAP
003F803C
01FFF07E
07FFF87F
0FFFFEFF
1FFFFEFF
1FFFFFFF
3FF81FFF
7FE007FF
7FC003FF
7F8003FF
FF8001FF
FF8001FF
FF0000FF
FF0000FF
FF0000FF
FF0000FF
FF0000FF
FF0000FF
FF0000FF
FF0001FF
7F8001FF
7F8003FF
7FC003FF
3FE007FF
3FF81FFF
1FFFFFFF
0FFFFEFF
0FFFFCFF
03FFF8FF
01FFF0FF
003F80FF
000000FF
1C0001FF
3E0001FE
7F0003FE
7FC003FE
7FE00FFC
3FFFFFFC
3FFFFFF8
1FFFFFF0
07FFFFE0
01FFFF80
003FFC00
ENDCHAR
STARTCHAR $0068
ENCODING 104
SWIDTH 600 0
DWIDTH 36 0
BBX 28 43 4 0
BITMAP
3C000000
7E000000
FF000000
FF000000
FF000000
FF000000
FF000000
FF000000
FF000000
FF000000
FF000000
FF03F800
FF0FFE00
FF3FFF80
FF7FFFC0
FFFFFFC0
FFFFFFE0
FFF07FE0
FFE01FF0
FFC01FF0
FF801FF0
FF800FF0
FF000FF0
FF000FF0
FF000FF0
FF000FF0
FF000FF0
FF000FF0
FF000FF0
FF000FF0
FF000FF0
FF000FF0
FF000FF0
FF000FF0
FF000FF0
FF000FF0
FF000FF0
FF000FF0
FF000FF0
FF000FF0
FF000FF0
7E0007E0
3C0003C0
ENDCHAR
STARTCHAR $0069
ENCODING 105
SWIDTH 266 0
DWIDTH 16 0
BBX 8 43 4 0
BITMAP
3C
7E
FF
FF
FF
FF
7E
3C
00
00
00
3C
7E
FF
FF
FF
FF
FF
FF
FF
FF
FF
FF
FF
FF
FF
FF
FF
FF
FF
FF
FF
FF
FF
FF
FF
FF
FF
FF
FF
FF
7E
3C
ENDCHAR
STARTCHAR $006A
ENCODING 106
SWIDTH 266 0
DWIDTH 16 0
BBX 17 55 -5 -12
BITMAP
001E00
003F00
007F80
007F80
007F80
007F80
003F00
001E00
000000
000000
000000
001E00
003F00
007F80
007F80
007F80
007F80
007F80
007F80
007F80
007F80
007F80
007F80
007F80
007F80
007F80
007F80
007F80
007F80
007F80
007F80
007F80
007F80
007F80
007F80
007F80
007F80
007F80
007F80
007F80
007F80
007F80
007F80
007F80
007F80
007F80
007F80
00FF80
7FFF80
7FFF00
FFFF00
FFFE00
7FFE00
3FF800
0FE000
ENDCHAR
STARTCHAR $006B
ENCODING 107
SWIDTH 566 0
DWIDTH 34 0
BBX 28 43 5 0
BITMAP
3C000000
7E000000
FF000000
FF000000
FF000000
FF000000
FF000000
FF000000
FF000000
FF000000
FF000000
FF000F00
FF001F80
FF003F80
FF007F80
FF00FF80
FF01FF00
FF03FE00
FF07FC00
FF0FF800
FF1FF000
FF3FE000
FF7FC000
FFFFC000
FFFFE000
FFFFE000
FFFFF000
FFFFF800
FFF7F800
FFE7FC00
FFC3FE00
FF81FE00
FF01FF00
FF00FF80
FF00FF80
FF007FC0
FF003FE0
FF003FE0
FF001FF0
FF001FF0
FF000FE0
7E0007E0
3C0003C0
ENDCHAR
STARTCHAR $006C
ENCODING 108
SWIDTH 266 0
DWIDTH 16 0
BBX 8 43 4 0
BITMAP
3C
7E
FF
FF
FF
FF
FF
FF
FF
FF
FF
FF
FF
FF
FF
FF
FF
FF
FF
FF
FF
FF
FF
FF
FF
FF
FF
FF
FF
FF
FF
FF
FF
FF
FF
FF
FF
FF
FF
FF
FF
7E
3C
ENDCHAR
STARTCHAR $006D
ENCODING 109
SWIDTH 883 0
DWIDTH 53 0
BBX 45 31 4 0
BITMAP
3C03F800FE00
7E1FFE03FF80
FE3FFF0FFFC0
FE7FFF9FFFE0
FEFFFFFFFFF0
FFFFFFFFFFF0
FFF07FFE1FF8
FFC03FF80FF8
FF801FF007F8
FF801FF007F8
FF801FE007F8
FF001FE007F8
FF001FE007F8
FF001FE007F8
FF001FE007F8
FF001FE007F8
FF001FE007F8
FF001FE007F8
FF001FE007F8
FF001FE007F8
FF001FE007F8
FF001FE007F8
FF001FE007F8
FF001FE007F8
FF001FE007F8
FF001FE007F8
FF001FE007F8
FF001FE007F8
FF001FE007F8
7E000FC003F0
3C00078001E0
ENDCHAR
STARTCHAR $006E
ENCODING 110
SWIDTH 600 0
DWIDTH 36 0
BBX 28 32 4 0
BITMAP
3C03F800
7E0FFE00
FE3FFF80
FE7FFFC0
FFFFFFC0
FFFFFFE0
FFF07FE0
FFE01FF0
FFC01FF0
FF801FF0
FF800FF0
FF000FF0
FF000FF0
FF000FF0
FF000FF0
FF000FF0
FF000FF0
FF000FF0
FF000FF0
FF000FF0
FF000FF0
FF000FF0
FF000FF0
FF000FF0
FF000FF0
FF000FF0
FF000FF0
FF000FF0
FF000FF0
FF000FF0
7E0007E0
3C0003C0
ENDCHAR
STARTCHAR $006F
ENCODING 111
SWIDTH 600 0
DWIDTH 36 0
BBX 32 32 2 0
BITMAP
000FF000
007FFE00
01FFFF80
07FFFFE0
0FFFFFF0
1FFFFFF8
1FF81FF8
3FE007FC
7FC003FC
7FC003FE
7F8001FE
FF8001FE
FF0000FF
FF0000FF
FF0000FF
FF0000FF
FF0000FF
FF0000FF
FF0000FF
FF0000FF
FF8001FE
7F8001FE
7FC003FE
3FC003FC
3FE007FC
1FF81FF8
1FFFFFF8
0FFFFFF0
07FFFFE0
01FFFF80
007FFE00
000FF000
ENDCHAR
STARTCHAR $0070
ENCODING 112
SWIDTH 633 0
DWIDTH 38 0
BBX 31 43 4 -12
BITMAP
3C01F800
7E0FFF00
FF1FFF80
FF3FFFE0
FF7FFFF0
FFFFFFF0
FFF83FF8
FFF00FF8
FFE007FC
FFC003FC
FF8003FC
FF8003FE
FF8001FE
FF8001FE
FF0001FE
FF0001FE
FF0001FE
FF0001FE
FF8001FE
FF8003FE
FF8003FC
FFC003FC
FFE007FC
FFE00FF8
FFF83FF8
FFFFFFF0
FF7FFFF0
FF3FFFE0
FF1FFF80
FF0FFF00
FF03F800
FF000000
FF000000
FF000000
FF000000
FF000000
FF000000
FF000000
FF000000
FF000000
FF000000
7E000000
3C000000
ENDCHAR
STARTCHAR $0071
ENCODING 113
SWIDTH 633 0
DWIDTH 38 0
BBX 32 43 2 -12
BITMAP
003F803C
01FFF07E
03FFF8FF
0FFFFCFF
0FFFFEFF
1FFFFFFF
3FF83FFF
3FE00FFF
7FC007FF
7F8003FF
7F8001FF
FF8001FF
FF0001FF
FF0001FF
FF0000FF
FF0000FF
FF0000FF
FF0001FF
FF0001FF
FF8001FF
7F8001FF
7F8003FF
7FC007FF
3FE00FFF
3FF83FFF
1FFFFFFF
0FFFFFFF
0FFFFEFF
03FFF8FF
01FFF0FF
003F80FF
000000FF
000000FF
000000FF
000000FF
000000FF
000000FF
000000FF
000000FF
000000FF
000000FF
0000007E
0000003C
ENDCHAR
STARTCHAR $0072
ENCODING 114
SWIDTH 433 0
DWIDTH 26 0
BBX 22 32 4 0
BITMAP
3C0FC0
7E3FF0
FE7FF8
FF7FFC
FFFFFC
FFFFFC
FFFFF8
FFE0F8
FFC000
FFC000
FF8000
FF8000
FF8000
FF0000
FF0000
FF0000
FF0000
FF0000
FF0000
FF0000
FF0000
FF0000
FF0000
FF0000
FF0000
FF0000
FF0000
FF0000
FF0000
FF0000
7E0000
3C0000
ENDCHAR
STARTCHAR $0073
ENCODING 115
SWIDTH 550 0
DWIDTH 33 0
BBX 27 32 3 0
BITMAP
00FF8000
07FFF000
0FFFFC00
3FFFFE00
7FFFFF00
7FC1FF80
FF807F80
FF003F80
FF003F80
FF000F00
FF800000
FFE00000
7FFE0000
7FFFE000
3FFFF800
0FFFFE00
03FFFF00
00FFFF80
000FFFC0
0001FFE0
00003FE0
7C003FE0
FC001FE0
FE001FE0
FF001FE0
FF803FC0
FFE07FC0
7FFFFF80
3FFFFF00
1FFFFE00
07FFF800
00FFC000
ENDCHAR
STARTCHAR $0074
ENCODING 116
SWIDTH 350 0
DWIDTH 21 0
BBX 22 43 0 0
BITMAP
01E000
03F000
07F800
07F800
07F800
07F800
07F800
07F800
07F800
07F800
07F800
07F800
3FFFC0
7FFFE0
FFFFE0
FFFFE0
7FFFE0
3FFFC0
07F800
07F800
07F800
07F800
07F800
07F800
07F800
07F800
07F800
07F800
07F800
07F800
07F800
07F800
07F800
07F800
07F800
07F800
07FC00
07FFF8
03FFFC
03FFFC
01FFFC
00FFF8
003FC0
ENDCHAR
STARTCHAR $0075
ENCODING 117
SWIDTH 600 0
DWIDTH 36 0
BBX 28 32 4 0
BITMAP
3C0003C0
7E0007E0
FF000FF0
FF000FF0
FF000FF0
FF000FF0
FF000FF0
FF000FF0
FF000FF0
FF000FF0
FF000FF0
FF000FF0
FF000FF0
FF000FF0
FF000FF0
FF000FF0
FF000FF0
FF000FF0
FF000FF0
FF000FF0
FF000FF0
FF001FF0
FF801FF0
FF803FF0
FFC07FF0
7FE0FFF0
7FFFFFF0
7FFFFFF0
3FFFE7F0
1FFFC7F0
0FFF07E0
01FC03C0
ENDCHAR
STARTCHAR $0076
ENCODING 118
SWIDTH 550 0
DWIDTH 33 0
BBX 29 32 2 0
BITMAP
3C0001E0
7E0001F0
FE0003F8
FF0003F8
FF0007F8
FF0007F8
7F8007F0
7F800FF0
3F800FE0
3FC01FE0
3FC01FE0
1FC01FC0
1FE03FC0
0FE03F80
0FE03F80
0FF07F00
07F07F00
07F8FF00
03F8FE00
03F8FE00
01FDFC00
01FDFC00
01FDFC00
00FFF800
00FFF800
007FF000
007FF000
007FF000
003FE000
003FE000
001FC000
000F8000
ENDCHAR
STARTCHAR $0077
ENCODING 119
SWIDTH 816 0
DWIDTH 49 0
BBX 46 32 1 0
BITMAP
3C00078000F0
7C000FC000F8
FE001FE001FC
FE003FE001FC
FF003FF003FC
FF003FF003FC
7F003FF003F8
7F007FF803F8
3F807FF807F8
3F807FF807F0
3F80FFF807F0
1FC0FFFC0FF0
1FC0FFFC0FE0
1FC0FCFC0FE0
0FC1FCFE0FC0
0FE1FCFE1FC0
0FE1F87E1FC0
07E3F87E1F80
07F3F87F3F80
07F3F03F3F80
03F3F03F3F00
03FFF03FFF00
03FFF01FFF00
01FFE01FFE00
01FFE01FFE00
01FFE01FFE00
00FFC00FFC00
00FFC00FFC00
00FFC00FFC00
007F8007F800
003F8007F000
001E0001E000
ENDCHAR
STARTCHAR $0078
ENCODING 120
SWIDTH 516 0
DWIDTH 31 0
BBX 28 32 2 0
BITMAP
3C0003C0
7E0007E0
7F000FE0
7F801FE0
7FC03FE0
7FC03FC0
3FE07FC0
1FF0FF80
0FF0FF00
0FF9FF00
07FFFE00
03FFFC00
03FFFC00
01FFF800
00FFF000
007FE000
00FFF000
00FFF000
01FFF800
03FFFC00
07FFFC00
07FFFE00
0FF9FF00
1FF0FF80
3FE07F80
3FE07FC0
7FC03FE0
FF801FE0
FF000FF0
FF000FF0
FE0007F0
3C0003C0
ENDCHAR
STARTCHAR $0079
ENCODING 121
SWIDTH 550 0
DWIDTH 33 0
BBX 30 44 1 -12
BITMAP
1E000070
3F0000F8
7F0001FC
7F8001FC
7F8003FC
7F8003FC
3FC003F8
3FC007F8
1FC007F0
1FE007F0
1FE00FF0
0FE00FE0
0FF00FE0
07F01FE0
07F01FC0
07F81FC0
03F83F80
03F83F80
03FC3F80
01FC7F00
01FC7F00
00FEFF00
00FEFE00
00FEFE00
007FFC00
007FFC00
003FFC00
003FF800
003FF800
001FF000
001FF000
000FF000
001FE000
001FE000
003FE000
003FC000
007FC000
00FF8000
7FFF8000
FFFF0000
FFFF0000
FFFE0000
7FF80000
1FE00000
ENDCHAR
STARTCHAR $007A
ENCODING 122
SWIDTH 516 0
DWIDTH 31 0
BBX 30 31 1 0
BITMAP
3FFFFFC0
7FFFFFF0
7FFFFFF0
7FFFFFF0
7FFFFFF0
3FFFFFF0
00007FE0
00007FC0
0000FF80
0001FF00
0003FF00
0007FE00
000FFC00
001FF800
001FF000
003FE000
007FC000
00FF8000
01FF0000
03FE0000
07FE0000
0FFC0000
1FF80000
3FF00000
7FE00000
7FFFFFF0
FFFFFFFC
FFFFFFFC
FFFFFFFC
7FFFFFFC
3FFFFFF8
ENDCHAR
STARTCHAR $007B
ENCODING 123
SWIDTH 383 0
DWIDTH 23 0
BBX 21 55 1 -12
BITMAP
0007E0
001FF8
003FF8
007FF8
00FFF8
00FFF8
01FFF0
01FF00
01FE00
01FE00
01FE00
01FE00
01FE00
01FE00
01FE00
01FE00
01FE00
01FE00
01FE00
03FE00
03FE00
03FC00
07FC00
1FF800
3FF800
7FF000
7FE000
FF8000
FFE000
7FF000
3FF800
1FF800
07FC00
03FC00
03FE00
03FE00
01FE00
01FE00
01FE00
01FE00
01FE00
01FE00
01FE00
01FE00
01FE00
01FE00
01FF00
01FF00
01FFF0
00FFF8
00FFF8
007FF8
003FF8
001FF8
0007E0
ENDCHAR
STARTCHAR $007C
ENCODING 124
SWIDTH 283 0
DWIDTH 17 0
BBX 7 55 5 -12
BITMAP
38
7C
FE
FE
FE
FE
FE
FE
FE
FE
FE
FE
FE
FE
FE
FE
FE
FE
FE
FE
FE
FE
FE
FE
FE
FE
FE
FE
FE
FE
FE
FE
FE
FE
FE
FE
FE
FE
FE
FE
FE
FE
FE
FE
FE
FE
FE
FE
FE
FE
FE
FE
FE
7C
38
ENDCHAR
STARTCHAR $007D
ENCODING 125
SWIDTH 383 0
DWIDTH 23 0
BBX 21 55 1 -12
BITMAP
3F0000
FFC000
FFE000
FFF000
FFF800
FFF800
7FFC00
07FC00
03FC00
03FC00
03FC00
03FC00
03FC00
03FC00
03FC00
03FC00
03FC00
03FC00
03FC00
03FC00
03FE00
01FE00
01FF00
00FFC0
00FFE0
007FF0
003FF0
000FF8
003FF0
007FF0
00FFE0
01FFC0
01FF00
01FE00
03FE00
03FE00
03FC00
03FC00
03FC00
03FC00
03FC00
03FC00
03FC00
03FC00
03FC00
03FC00
07FC00
07FC00
7FFC00
FFF800
FFF800
FFF000
FFE000
FFC000
3F0000
ENDCHAR
STARTCHAR $007E
ENCODING 126
SWIDTH 583 0
DWIDTH 35 0
BBX 31 11 2 16
BITMAP
07F80002
1FFF0006
7FFFC01E
FFFFF87E
FFFFFFFE
FFFFFFFE
FFFFFFFE
FC3FFFFE
E007FFFC
C000FFF0
80001FC0
ENDCHAR
STARTCHAR $00A0
ENCODING 160
SWIDTH 250 0
DWIDTH 15 0
BBX 1 1 0 0
BITMAP
00
ENDCHAR
STARTCHAR $00A1
ENCODING 161
SWIDTH 333 0
DWIDTH 20 0
BBX 9 44 5 -12
BITMAP
3E00
7F00
FF80
FF80
FF80
FF80
7F80
7F00
1E00
0000
0000
0000
0000
0000
1C00
3E00
3E00
3E00
3F00
7F00
7F00
7F00
7F00
7F00
7F00
7F00
7F00
7F00
7F00
7F00
FF80
FF80
FF80
FF80
FF80
FF80
FF80
FF80
FF80
FF80
FF80
7F00
7F00
3E00
ENDCHAR
STARTCHAR $00A2
ENCODING 162
SWIDTH 600 0
DWIDTH 36 0
BBX 30 54 3 -11
BITMAP
00000380
00000380
00000780
00000780
00000780
00000F00
00000F00
00000F00
00000E00
00001E00
00001E00
001FDC00
00FFFE00
03FFFF80
07FFFFC0
0FFFFFF0
1FFFFFF0
1FF87FF8
3FE0FFF8
7FC0F3FC
7FC0E3FC
7F81E1F8
FF81E0F8
FF01C000
FF03C000
FF03C000
FF03C000
FF078000
FF078000
FF078000
FF0F0078
FF8F00FC
7F8F01FC
7FDE01FC
7FDE03FC
3FFE07FC
3FFC1FF8
1FFFFFF8
0FFFFFF0
07FFFFE0
03FFFF80
00FFFE00
00FFF000
00F00000
00F00000
01F00000
01E00000
01E00000
01E00000
03C00000
03C00000
03C00000
03800000
03800000
ENDCHAR
STARTCHAR $00A3
ENCODING 163
SWIDTH 600 0
DWIDTH 36 0
BBX 35 44 1 -1
BITMAP
0007FC0000
001FFF8000
007FFFE000
00FFFFF000
01FFFFF800
03FFFFFC00
07FE07FE00
07FC03FE00
0FF801FF00
0FF000FF00
0FF000FF00
0FF000FF00
0FF0007F00
0FF0003E00
0FF0000000
0FF0000000
07F8000000
07F8000000
07F8000000
7FFFFC0000
FFFFFE0000
FFFFFE0000
FFFFFE0000
FFFFFE0000
7FFFFC0000
01FE000000
01FE000000
01FC000000
01FC000000
01FC000000
03F8000000
03F8000000
07F0000000
07E0000000
0FC0000000
1F9FF00780
7FFFFFFFC0
FFFFFFFFE0
FFFFFFFFE0
FFFFFFFFE0
FFFFFFFFC0
FF81FFFFC0
78003FFF00
000001FC00
ENDCHAR
STARTCHAR $00A4
ENCODING 164
SWIDTH 633 0
DWIDTH 38 0
BBX 33 47 2 -1
BITMAP
0001F80000
007FFFE000
01FFFFF800
07FFFFFE00
0FFFFFFF00
0FFF0FFF00
1FE0007F80
1FC0003F80
1F80001F80
1F80001F80
1F80001F80
1F80001F80
1F80001F80
1F80001F80
1F80001F80
1F80000000
1F80000000
FFFFFE0000
FFFFFE0000
FFFFFC0000
FFFFFC0000
1F80000000
1F80000000
1F80000000
1F80000000
1F80000000
FFFFF00000
FFFFF00000
FFFFF00000
FFFFE00000
1F80000000
1F80000000
1F80001F80
1F80001F80
1F80001F80
1F80001F80
1F80001F80
1F80001F80
1F80001F80
1FC0003F80
1FE0007F80
0FFF0FFF00
0FFFFFFF00
07FFFFFE00
01FFFFF800
007FFFE000
0003FC0000
ENDCHAR
STARTCHAR $00A5
ENCODING 165
SWIDTH 633 0
DWIDTH 38 0
BBX 34 43 2 0
BITMAP
7800000700
FC00001F80
FE00001FC0
FE00003FC0
FF00007FC0
FF80007F80
7F8000FF80
3FC000FF00
3FE001FE00
1FF003FE00
0FF003FC00
0FF807F800
07FC0FF800
03FC0FF000
03FE1FE000
01FF3FE000
00FF3FC000
00FFFFC000
007FFF8000
003FFF0000
0FFFFFFC00
1FFFFFFE00
3FFFFFFF00
3FFFFFFF00
1FFFFFFE00
0FFFFFFC00
0007F80000
0007F80000
0007F80000
0007F80000
0FFFFFFC00
1FFFFFFE00
3FFFFFFF00
3FFFFFFF00
1FFFFFFE00
0FFFFFFC00
0007F80000
0007F80000
0007F80000
0007F80000
0007F80000
0003F00000
0001E00000
ENDCHAR
STARTCHAR $00A6
ENCODING 166
SWIDTH 283 0
DWIDTH 17 0
BBX 7 55 5 -12
BITMAP
38
7C
FE
FE
FE
FE
FE
FE
FE
FE
FE
FE
FE
FE
FE
FE
FE
FE
FE
FE
7C
38
00
00
00
00
00
00
00
00
00
00
38
7C
FE
FE
FE
FE
FE
FE
FE
FE
FE
FE
FE
FE
FE
FE
FE
FE
FE
FE
FE
7C
3C
ENDCHAR
STARTCHAR $00A7
ENCODING 167
SWIDTH 600 0
DWIDTH 36 0
BBX 32 55 2 -12
BITMAP
001FF000
00FFFE00
01FFFF80
03FFFFC0
07FFFFE0
0FFFFFF0
0FF81FF8
1FF00FF8
1FE007F8
1FE003F8
1FE001F0
1FF00040
0FF80000
0FFC0000
07FF0000
03FFC000
03FFF000
07FFFC00
1FFFFE00
3FCFFF80
3F87FFE0
7F01FFF0
7E007FF8
FE001FFC
FE000FFE
FF0003FE
FF8001FF
7FC000FF
7FE000FF
3FF800FF
1FFE00FF
0FFF01FE
07FFC3FE
01FFF7FC
00FFFFFC
003FFFF8
000FFFE0
0007FFC0
0001FFE0
00007FF0
00003FF8
06000FF8
1F8007FC
1F8003FC
3FC003FC
3FE003FC
1FE003FC
1FF007FC
1FFC1FF8
0FFFFFF8
07FFFFF0
03FFFFE0
01FFFFC0
007FFF00
000FF800
ENDCHAR
STARTCHAR $00A8
ENCODING 168
SWIDTH 333 0
DWIDTH 20 0
BBX 18 6 1 36
BITMAP
380700
FE1FC0
FE1FC0
FE1FC0
FE1FC0
380780
ENDCHAR
STARTCHAR $00A9
ENCODING 169
SWIDTH 733 0
DWIDTH 44 0
BBX 46 44 -1 -1
BITMAP
00003FF00000
0001FFFE0000
000FFFFFC000
003FFFFFE000
007FFFFFF800
00FFE01FFC00
01FF0003FE00
03FC0000FF00
07F000003F80
0FE00FE01FC0
1FC07FF80FE0
1F80FFFC07E0
3F01FFFE03F0
3E03F87F01F0
7E03E01F01F8
7C07C01F80F8
7C07C00E00F8
FC0F800000FC
F80F8000007C
F80F8000007C
F80F8000007C
F80F8000007C
F80F8000007C
F80F8000007C
F80F8000007C
F80F800C007C
FC07C00F80FC
7C07C01F80F8
7C03E03F00F8
7E03F07F01F8
3E01FFFE01F0
3F00FFFC03F0
1F807FF807E0
1FC00FE00FE0
0FE000001FC0
07F000003F80
03FC0000FF00
01FF0003FE00
00FFE01FFC00
007FFFFFF800
003FFFFFE000
000FFFFFC000
0003FFFE0000
00003FF00000
ENDCHAR
STARTCHAR $00AA
ENCODING 170
SWIDTH 383 0
DWIDTH 23 0
BBX 21 19 1 24
BITMAP
03FE00
0FFFC0
3FFFE0
7FFFE0
7E07F0
7C03F0
7C03F0
303FF0
07FFF0
3FFFF0
7FF3F0
FE03F0
FC03F0
FC07F0
FE0FF0
FFFFF8
7FFDF8
3FF9F8
0FC070
ENDCHAR
STARTCHAR $00AB
ENCODING 171
SWIDTH 600 0
DWIDTH 36 0
BBX 25 27 5 2
BITMAP
00E00700
01F00F80
03F01F80
03F01F80
07E03F00
0FE07F00
0FC07E00
1FC0FC00
3F81FC00
3F01F800
7F03F800
7E03F000
FE07F000
FC07E000
FE07F000
7E03F000
7F03F800
3F01F800
1F80FC00
1FC0FE00
0FC07E00
0FE07F00
07E03F00
03F01F80
03F01F80
01F00F80
00E00700
ENDCHAR
STARTCHAR $00AC
ENCODING 172
SWIDTH 583 0
DWIDTH 35 0
BBX 31 20 2 11
BITMAP
FFFFFFFE
FFFFFFFE
FFFFFFFE
FFFFFFFE
FFFFFFFE
FFFFFFFE
FFFFFFFE
FFFFFFFE
000001FE
000001FE
000001FE
000001FE
000001FE
000001FE
000001FE
000001FE
000001FE
000001FE
000001FE
000001FE
ENDCHAR
STARTCHAR $00AD
ENCODING 173
SWIDTH 333 0
DWIDTH 20 0
BBX 18 7 1 12
BITMAP
3FFF00
7FFF80
FFFFC0
FFFFC0
FFFFC0
7FFF80
3FFF00
ENDCHAR
STARTCHAR $00AE
ENCODING 174
SWIDTH 733 0
DWIDTH 44 0
BBX 46 44 -1 -1
BITMAP
00003FF00000
0001FFFE0000
000FFFFFC000
001FFFFFE000
007FFFFFF800
00FFE01FFC00
01FF0001FE00
03FC00007F00
07F000003F80
0FE000001FC0
1FC7FFF00FE0
1F87FFFC07E0
3F07FFFE03F0
3E07FFFE01F0
7E07C07F01F8
7C07C01F00F8
7C07C01F00F8
FC07C01F00FC
F807C01F007C
F807C07E007C
F807FFFE007C
F807FFFC007C
F807FFF0007C
F807FFC0007C
F807C3F0007C
F807C1F8007C
FC07C0F800FC
7C07C0FC00F8
7C07C07E00F8
7E07C03E01F8
3E07C03F01F0
3F07C01F03F0
1F87C01F87E0
1FC000000FE0
0FE000001FC0
07F000003F80
03FC0000FF00
01FF0003FE00
00FFE01FFC00
007FFFFFF800
003FFFFFF000
000FFFFFC000
0003FFFE0000
00003FF00000
ENDCHAR
STARTCHAR $00AF
ENCODING 175
SWIDTH 500 0
DWIDTH 30 0
BBX 30 3 0 48
BITMAP
FFFFFFFC
FFFFFFFC
FFFFFFFC
ENDCHAR
STARTCHAR $00B0
ENCODING 176
SWIDTH 400 0
DWIDTH 24 0
BBX 19 18 2 25
BITMAP
03F800
0FFE00
1FFF00
3FFF80
7FFFC0
7E0FC0
FC07E0
F803E0
F803E0
F803E0
F803E0
FC07E0
7E0FC0
7FFFC0
3FFF80
1FFF00
0FFE00
03F800
ENDCHAR
STARTCHAR $00B1
ENCODING 177
SWIDTH 583 0
DWIDTH 35 0
BBX 31 40 2 0
BITMAP
001FE000
001FE000
001FE000
001FE000
001FE000
001FE000
001FE000
001FE000
001FE000
001FE000
001FE000
FFFFFFFC
FFFFFFFC
FFFFFFFC
FFFFFFFC
FFFFFFFC
FFFFFFFC
FFFFFFFC
FFFFFFFC
001FE000
001FE000
001FE000
001FE000
001FE000
001FE000
001FE000
001FE000
001FE000
001FE000
00000000
00000000
00000000
FFFFFFFE
FFFFFFFE
FFFFFFFE
FFFFFFFE
FFFFFFFE
FFFFFFFE
FFFFFFFE
FFFFFFFE
ENDCHAR
STARTCHAR $00B2
ENCODING 178
SWIDTH 350 0
DWIDTH 21 0
BBX 19 22 1 21
BITMAP
03FC00
0FFF00
3FFF80
3FFFC0
7E0FE0
7C07E0
7C07E0
7807E0
300FE0
001FC0
003F80
007F00
01FE00
03FC00
07F000
1FE000
3F8000
7F0000
7FFFC0
FFFFE0
7FFFE0
3FFFE0
ENDCHAR
STARTCHAR $00B3
ENCODING 179
SWIDTH 350 0
DWIDTH 21 0
BBX 19 23 1 20
BITMAP
03F800
1FFE00
3FFF00
7FFF80
7C1FC0
7C0FC0
780FC0
001F80
03FF00
07FE00
07FF00
07FF80
001FC0
000FE0
7007E0
F807E0
F807E0
FC0FE0
7E1FC0
7FFF80
3FFF00
1FFE00
03F800
ENDCHAR
STARTCHAR $00B4
ENCODING 180
SWIDTH 333 0
DWIDTH 20 0
BBX 12 8 6 35
BITMAP
0FF0
1FE0
3FC0
3F80
7F00
7E00
FC00
F000
ENDCHAR
STARTCHAR $00B5
ENCODING 181
SWIDTH 616 0
DWIDTH 37 0
BBX 28 43 5 -12
BITMAP
FF000FF0
FF000FF0
FF000FF0
FF000FF0
FF000FF0
FF000FF0
FF000FF0
FF000FF0
FF000FF0
FF000FF0
FF000FF0
FF000FF0
FF000FF0
FF000FF0
FF000FF0
FF000FF0
FF000FF0
FF000FF0
FF000FF0
FF000FF0
FF801FF0
FF801FF0
FF803FF0
FFC03FF0
FFF0FFF0
FFFFFFF0
FFFFFFF0
FFFFF7F0
FF7FF7F0
FF7FE7F0
FF3FC7F0
FF0F8000
FF000000
FF000000
FF000000
FF000000
FF000000
FF000000
FF000000
FF000000
FF000000
FF000000
FF000000
ENDCHAR
STARTCHAR $00B6
ENCODING 182
SWIDTH 566 0
DWIDTH 34 0
BBX 33 55 0 -12
BITMAP
003FFFFF80
01FFFFFF80
07FFFFFF80
0FFFE07000
1FFFE07000
3FFFE07000
7FFFE07000
7FFFE07000
7FFFE07000
FFFFE07000
FFFFE07000
FFFFE07000
FFFFE07000
FFFFE07000
FFFFE07000
FFFFE07000
FFFFE07000
FFFFE07000
FFFFE07000
7FFFE07000
7FFFE07000
7FFFE07000
3FFFE07000
1FFFE07000
0FFFE07000
07FFE07000
01FFE07000
003FE07000
0000E07000
0000E07000
0000E07000
0000E07000
0000E07000
0000E07000
0000E07000
0000E07000
0000E07000
0000E07000
0000E07000
0000E07000
0000E07000
0000E07000
0000E07000
0000E07000
0000E07000
0000E07000
0000E07000
0000E07000
0000E07000
0000E07000
0000E07000
0000E07000
0000E07000
0000E07000
0000E07000
ENDCHAR
STARTCHAR $00B8
ENCODING 184
SWIDTH 333 0
DWIDTH 20 0
BBX 15 12 3 -12
BITMAP
07C0
0FF0
1FF8
1FFC
007E
003E
003E
003E
00FC
FFFC
FFF8
7FC0
ENDCHAR
STARTCHAR $00B9
ENCODING 185
SWIDTH 350 0
DWIDTH 21 0
BBX 14 22 1 21
BITMAP
0038
007C
00FC
01FC
07FC
1FFC
7FFC
FEFC
FCFC
70FC
00FC
00FC
00FC
00FC
00FC
00FC
00FC
00FC
00FC
00FC
00FC
0078
ENDCHAR
STARTCHAR $00BA
ENCODING 186
SWIDTH 383 0
DWIDTH 23 0
BBX 21 20 1 23
BITMAP
01FC00
07FF00
1FFFC0
3FFFE0
7FFFE0
7F07F0
7E03F0
FC01F8
FC01F8
FC01F8
FC01F8
FC01F8
FC01F8
FE03F0
7F07F0
7FFFF0
3FFFE0
1FFFC0
0FFF80
01FC00
ENDCHAR
STARTCHAR $00BB
ENCODING 187
SWIDTH 600 0
DWIDTH 36 0
BBX 26 27 5 2
BITMAP
7001C000
F803E000
FC03F000
FC03F000
7E01F800
7F01FC00
3F00FC00
1F807E00
1FC07F00
0FC03F00
0FE03F80
07E01F80
03F01FC0
03F00FC0
07F01FC0
07E01F80
0FE03F80
0FC03F00
1F807E00
3F80FE00
3F00FC00
7F01FC00
7E01F800
FC03F000
FC03F000
F803E000
7001C000
ENDCHAR
STARTCHAR $00BC
ENCODING 188
SWIDTH 850 0
DWIDTH 51 0
BBX 50 45 1 -2
BITMAP
003800000E0000
007C00000F0000
00FC00001F0000
01FC00003E0000
07FC00003C0000
1FFC00007C0000
7FFC0000F80000
FEFC0000F80000
FCFC0001F00000
70FC0001E00000
00FC0003E00000
00FC0007C00000
00FC0007800000
00FC000F800000
00FC001F000000
00FC001F000000
00FC003E000000
00FC007C000000
00FC007C000000
00FC00F8000000
00FC00F0000000
007801F0007800
000003E000FC00
000003E001FC00
000007C003FC00
00000F8003FC00
00000F8007FC00
00001F000FFC00
00001E001F7C00
00003E003E7C00
00007C007C7C00
00007C00F87C00
0000F801F07C00
0001F003E07C00
0001F007FFFF80
0003E007FFFFC0
0007C007FFFFC0
0007C003FFFF80
000F8000007C00
000F8000007C00
001F0000007C00
003E0000007C00
003E0000003800
003C0000000000
00380000000000
ENDCHAR
STARTCHAR $00BD
ENCODING 189
SWIDTH 850 0
DWIDTH 51 0
BBX 49 44 1 -1
BITMAP
003800000E0000
007C00001E0000
00FC00003E0000
01FC00003C0000
07FC00007C0000
1FFC0000F80000
7FFC0000F80000
FEFC0001F00000
FCFC0001E00000
70FC0003E00000
00FC0007C00000
00FC0007800000
00FC000F800000
00FC001F000000
00FC001E000000
00FC003E000000
00FC007C000000
00FC007C000000
00FC00F8000000
00FC00F0000000
00FC01F0000000
007803E00FF000
000003C03FFC00
000007C0FFFE00
00000F80FFFF00
00000F01F83F80
00001F01F01F80
00003E01F01F80
00003E01E01F80
00007C00C03F80
00007800003F00
0000F80000FE00
0001F00001FC00
0001E00007F800
0003E0000FF000
0007C0001FC000
000780007F8000
000F8000FE0000
001F0001FC0000
001F0001FFFF00
003E0003FFFF80
003C0001FFFF80
007C0000FFFF80
00780000000000
ENDCHAR
STARTCHAR $00BE
ENCODING 190
SWIDTH 850 0
DWIDTH 51 0
BBX 50 45 1 -2
BITMAP
03F80000070000
1FFE0000078000
3FFF00000F8000
7FFF80001F0000
7C1FC0001F0000
7C0FC0003E0000
780FC0007C0000
001F80007C0000
03FF0000F80000
07FE0000F00000
07FF0001F00000
07FF8003E00000
001FC003C00000
000FE007C00000
7007E00F800000
F807E00F800000
F807E01F000000
FC0FE01E000000
7E1FC03E000000
7FFF807C000000
3FFF0078000000
1FFE00F8003000
03F801F0007C00
000001F000FC00
000003E001FC00
000007C003FC00
000007C007FC00
00000F800FFC00
00000F001FFC00
00001F003F7C00
00003E007E7C00
00003E00FC7C00
00007C01F07C00
0000F803E07C00
0000F807FFFF80
0001F007FFFFC0
0001E007FFFFC0
0003E003FFFF80
0007C000007C00
0007C000007C00
000F8000007C00
001F0000007C00
001F0000003800
001E0000000000
001C0000000000
ENDCHAR
STARTCHAR $00BF
ENCODING 191
SWIDTH 566 0
DWIDTH 34 0
BBX 29 44 3 -12
BITMAP
000F8000
001FC000
003FE000
003FE000
003FE000
003FE000
003FC000
001FC000
000F0000
00000000
00000000
00078000
000FC000
000FC000
001FC000
001FC000
001FC000
001FC000
003FC000
007FC000
00FF8000
01FF0000
03FF0000
07FE0000
1FFC0000
1FF80000
3FF00000
7FE00000
7FC001E0
FF8003F0
FF0003F8
FF0007F8
FF0007F8
FF0007F8
FF000FF8
FF800FF0
7FC01FF0
7FF0FFE0
3FFFFFE0
1FFFFFC0
0FFFFF80
07FFFE00
01FFFC00
003FE000
ENDCHAR
STARTCHAR $00C0
ENCODING 192
SWIDTH 716 0
DWIDTH 43 0
BBX 40 54 2 0
BITMAP
003FC00000
001FE00000
000FF00000
0007F80000
0003F80000
0001FC0000
00007C0000
00003C0000
0000000000
0000000000
0000000000
00007C0000
0000FF0000
0001FF8000
0003FFC000
0003FFC000
0007FFC000
0007FFE000
000FFFE000
000FFFF000
000FEFF000
001FE7F800
001FE7F800
003FC7F800
003FC3FC00
003F83FC00
007F83FE00
007F81FE00
00FF01FE00
00FF00FF00
00FF00FF00
01FE00FF80
01FE007F80
03FE007FC0
03FC007FC0
07FC003FC0
07FC003FE0
07FFFFFFE0
0FFFFFFFF0
0FFFFFFFF0
1FFFFFFFF8
1FFFFFFFF8
1FFFFFFFF8
3FE00007FC
3FE00007FC
7FC00003FE
7FC00003FE
7F800003FE
FF800001FF
FF800001FF
FF000000FF
FF000000FF
7E0000007E
3C0000003C
ENDCHAR
STARTCHAR $00C1
ENCODING 193
SWIDTH 716 0
DWIDTH 43 0
BBX 40 54 2 0
BITMAP
00003FC000
00007F8000
0000FF0000
0000FE0000
0001FC0000
0001F80000
0003F00000
0003C00000
0000000000
0000000000
0000000000
00007C0000
0000FF0000
0001FF8000
0003FFC000
0003FFC000
0007FFC000
0007FFE000
000FFFE000
000FFFF000
000FEFF000
001FE7F800
001FE7F800
003FC7F800
003FC3FC00
003F83FC00
007F83FE00
007F81FE00
00FF01FE00
00FF00FF00
00FF00FF00
01FE00FF80
01FE007F80
03FE007FC0
03FC007FC0
07FC003FC0
07FC003FE0
07FFFFFFE0
0FFFFFFFF0
0FFFFFFFF0
1FFFFFFFF8
1FFFFFFFF8
1FFFFFFFF8
3FE00007FC
3FE00007FC
7FC00003FE
7FC00003FE
7F800003FE
FF800001FF
FF800001FF
FF000000FF
FF000000FF
7E0000007E
3C0000003C
ENDCHAR
STARTCHAR $00C2
ENCODING 194
SWIDTH 716 0
DWIDTH 43 0
BBX 40 54 2 0
BITMAP
0001FC0000
0003FE0000
0007FF0000
000FDF8000
001F8FC000
003F07C000
003E03E000
007C01F000
0000000000
0000000000
0000000000
00007C0000
0000FF0000
0001FF8000
0003FFC000
0003FFC000
0007FFC000
0007FFE000
000FFFE000
000FFFF000
000FEFF000
001FE7F800
001FE7F800
003FC7F800
003FC3FC00
003F83FC00
007F83FE00
007F81FE00
00FF01FE00
00FF00FF00
00FF00FF00
01FE00FF80
01FE007F80
03FE007FC0
03FC007FC0
07FC003FC0
07FC003FE0
07FFFFFFE0
0FFFFFFFF0
0FFFFFFFF0
1FFFFFFFF8
1FFFFFFFF8
1FFFFFFFF8
3FE00007FC
3FE00007FC
7FC00003FE
7FC00003FE
7F800003FE
FF800001FF
FF800001FF
FF000000FF
FF000000FF
7E0000007E
3C0000003C
ENDCHAR
STARTCHAR $00C3
ENCODING 195
SWIDTH 716 0
DWIDTH 43 0
BBX 40 55 2 0
BITMAP
0000002000
001F007000
003FC07000
007FF0F000
00FFFFF000
00FFFFE000
00F0FFE000
00E03FC000
00E00F8000
0040000000
0000000000
0000000000
00007C0000
0000FF0000
0001FF8000
0003FFC000
0003FFC000
0007FFC000
0007FFE000
000FFFE000
000FFFF000
000FEFF000
001FE7F800
001FE7F800
003FC7F800
003FC3FC00
003F83FC00
007F83FE00
007F81FE00
00FF01FE00
00FF00FF00
00FF00FF00
01FE00FF80
01FE007F80
03FE007FC0
03FC007FC0
07FC003FC0
07FC003FE0
07FFFFFFE0
0FFFFFFFF0
0FFFFFFFF0
1FFFFFFFF8
1FFFFFFFF8
1FFFFFFFF8
3FE00007FC
3FE00007FC
7FC00003FE
7FC00003FE
7F800003FE
FF800001FF
FF800001FF
FF000000FF
FF000000FF
7E0000007E
3C0000003C
ENDCHAR
STARTCHAR $00C4
ENCODING 196
SWIDTH 716 0
DWIDTH 43 0
BBX 40 53 2 0
BITMAP
001C038000
007F0FE000
007F0FE000
007F0FE000
007F0FE000
001C03C000
0000000000
0000000000
0000000000
0000000000
00007C0000
0000FF0000
0001FF8000
0003FFC000
0003FFC000
0007FFC000
0007FFE000
000FFFE000
000FFFF000
000FEFF000
001FE7F800
001FE7F800
003FC7F800
003FC3FC00
003F83FC00
007F83FE00
007F81FE00
00FF01FE00
00FF00FF00
00FF00FF00
01FE00FF80
01FE007F80
03FE007FC0
03FC007FC0
07FC003FC0
07FC003FE0
07FFFFFFE0
0FFFFFFFF0
0FFFFFFFF0
1FFFFFFFF8
1FFFFFFFF8
1FFFFFFFF8
3FE00007FC
3FE00007FC
7FC00003FE
7FC00003FE
7F800003FE
FF800001FF
FF800001FF
FF000000FF
FF000000FF
7E0000007E
3C0000003C
ENDCHAR
STARTCHAR $00C5
ENCODING 197
SWIDTH 716 0
DWIDTH 43 0
BBX 40 57 2 0
BITMAP
0000F00000
0003FC0000
0007FE0000
00070E0000
000E070000
000E070000
000E070000
000E070000
00070E0000
0007FE0000
0003FC0000
0000F00000
0000000000
0000000000
00007C0000
0000FF0000
0001FF8000
0003FFC000
0003FFC000
0007FFC000
0007FFE000
000FFFE000
000FFFF000
000FEFF000
001FE7F800
001FE7F800
003FC7F800
003FC3FC00
003F83FC00
007F83FE00
007F81FE00
00FF01FE00
00FF00FF00
00FF00FF00
01FE00FF80
01FE007F80
03FE007FC0
03FC007FC0
07FC003FC0
07FC003FE0
07FFFFFFE0
0FFFFFFFF0
0FFFFFFFF0
1FFFFFFFF8
1FFFFFFFF8
1FFFFFFFF8
3FE00007FC
3FE00007FC
7FC00003FE
7FC00003FE
7F800003FE
FF800001FF
FF800001FF
FF000000FF
FF000000FF
7E0000007E
3C0000003C
ENDCHAR
STARTCHAR $00C6
ENCODING 198
SWIDTH 983 0
DWIDTH 59 0
BBX 57 44 0 -1
BITMAP
00003FFFFFFFFE00
00007FFFFFFFFF00
0000FFFFFFFFFF00
0000FFFFFFFFFF00
0001FFFFFFFFFF00
0001FFFFFFFFFE00
0001FE1FE0000000
0003FC1FE0000000
0003FC1FE0000000
0007F81FE0000000
0007F81FE0000000
000FF81FE0000000
000FF01FE0000000
001FF01FE0000000
001FE01FE0000000
003FE01FE0000000
003FC01FE0000000
003FC01FE0000000
007FC01FFFFFF800
007F801FFFFFFC00
00FF801FFFFFFE00
00FF001FFFFFFE00
01FF001FFFFFFC00
01FE001FFFFFF800
03FE001FE0000000
03FE001FE0000000
03FFFFFFE0000000
07FFFFFFE0000000
07FFFFFFE0000000
0FFFFFFFE0000000
0FFFFFFFE0000000
1FFFFFFFE0000000
1FFFFFFFE0000000
3FE0001FE0000000
3FE0001FE0000000
3FC0001FE0000000
7FC0001FE0000000
7FC0001FFFFFFE00
FF80001FFFFFFF80
FF80001FFFFFFF80
FF00001FFFFFFF80
FF00000FFFFFFF00
FE000007FFFFFE00
3800000000000000
ENDCHAR
STARTCHAR $00C7
ENCODING 199
SWIDTH 733 0
DWIDTH 44 0
BBX 38 55 3 -12
BITMAP
0000FF8000
0007FFF800
003FFFFE00
007FFFFF00
01FFFFFFC0
03FFFFFFE0
07FFFFFFF0
0FFF80FFF0
0FFE003FF8
1FFC000FFC
3FF00007FC
3FF00007FC
3FE00003FC
7FE00001FC
7FC00001FC
7FC00000F8
FFC0000000
FF80000000
FF80000000
FF80000000
FF80000000
FF80000000
FF80000000
FF80000000
FF80000000
FF80000060
FF800001F8
7FC00001FC
7FC00003FC
7FC00003FC
3FE00003FC
3FE00007FC
3FF0000FF8
1FF8001FF8
0FFC003FF0
0FFF01FFF0
07FFFFFFE0
03FFFFFFC0
01FFFFFF80
00FFFFFF00
003FFFFC00
000FFFF000
0001FF8000
0000F00000
0001FC0000
0003FF8000
00019FC000
000007E000
000007E000
000007E000
00000FE000
001FFFC000
001FFFC000
001FFF0000
0007FC0000
ENDCHAR
STARTCHAR $00C8
ENCODING 200
SWIDTH 666 0
DWIDTH 40 0
BBX 32 54 5 0
BITMAP
01FE0000
00FF0000
007F8000
003FC000
001FC000
000FE000
0003E000
0001E000
00000000
00000000
00000000
3FFFFFFC
7FFFFFFE
FFFFFFFF
FFFFFFFF
FFFFFFFF
FFFFFFFE
FFFFFFFC
FF000000
FF000000
FF000000
FF000000
FF000000
FF000000
FF000000
FF000000
FF000000
FF000000
FF000000
FFFFFFF8
FFFFFFFC
FFFFFFFC
FFFFFFFC
FFFFFFFC
FFFFFFF8
FF000000
FF000000
FF000000
FF000000
FF000000
FF000000
FF000000
FF000000
FF000000
FF000000
FF000000
FF000000
FFFFFFFE
FFFFFFFF
FFFFFFFF
FFFFFFFF
FFFFFFFF
7FFFFFFF
3FFFFFFE
ENDCHAR
STARTCHAR $00C9
ENCODING 201
SWIDTH 666 0
DWIDTH 40 0
BBX 32 54 5 0
BITMAP
0001FE00
0003FC00
0007F800
0007F000
000FE000
000FC000
001F8000
001E0000
00000000
00000000
00000000
3FFFFFFC
7FFFFFFE
FFFFFFFF
FFFFFFFF
FFFFFFFF
FFFFFFFE
FFFFFFFC
FF000000
FF000000
FF000000
FF000000
FF000000
FF000000
FF000000
FF000000
FF000000
FF000000
FF000000
FFFFFFF8
FFFFFFFC
FFFFFFFC
FFFFFFFC
FFFFFFFC
FFFFFFF8
FF000000
FF000000
FF000000
FF000000
FF000000
FF000000
FF000000
FF000000
FF000000
FF000000
FF000000
FF000000
FFFFFFFE
FFFFFFFF
FFFFFFFF
FFFFFFFF
FFFFFFFF
7FFFFFFF
3FFFFFFE
ENDCHAR
STARTCHAR $00CA
ENCODING 202
SWIDTH 666 0
DWIDTH 40 0
BBX 32 54 5 0
BITMAP
000FE000
001FF000
003FF800
007EFC00
00FC7E00
01F83E00
01F01F00
03E00F80
00000000
00000000
00000000
3FFFFFFC
7FFFFFFE
FFFFFFFF
FFFFFFFF
FFFFFFFF
FFFFFFFE
FFFFFFFC
FF000000
FF000000
FF000000
FF000000
FF000000
FF000000
FF000000
FF000000
FF000000
FF000000
FF000000
FFFFFFF8
FFFFFFFC
FFFFFFFC
FFFFFFFC
FFFFFFFC
FFFFFFF8
FF000000
FF000000
FF000000
FF000000
FF000000
FF000000
FF000000
FF000000
FF000000
FF000000
FF000000
FF000000
FFFFFFFE
FFFFFFFF
FFFFFFFF
FFFFFFFF
FFFFFFFF
7FFFFFFF
3FFFFFFE
ENDCHAR
STARTCHAR $00CB
ENCODING 203
SWIDTH 666 0
DWIDTH 40 0
BBX 32 53 5 0
BITMAP
00E01C00
03F87F00
03F87F00
03F87F00
03F87F00
00E01E00
00000000
00000000
00000000
00000000
3FFFFFFC
7FFFFFFE
FFFFFFFF
FFFFFFFF
FFFFFFFF
FFFFFFFE
FFFFFFFC
FF000000
FF000000
FF000000
FF000000
FF000000
FF000000
FF000000
FF000000
FF000000
FF000000
FF000000
FFFFFFF8
FFFFFFFC
FFFFFFFC
FFFFFFFC
FFFFFFFC
FFFFFFF8
FF000000
FF000000
FF000000
FF000000
FF000000
FF000000
FF000000
FF000000
FF000000
FF000000
FF000000
FF000000
FFFFFFFE
FFFFFFFF
FFFFFFFF
FFFFFFFF
FFFFFFFF
7FFFFFFF
3FFFFFFE
ENDCHAR
STARTCHAR $00CC
ENCODING 204
SWIDTH 316 0
DWIDTH 19 0
BBX 13 54 0 0
BITMAP
FF00
7F80
3FC0
1FE0
0FE0
07F0
01F0
00F0
0000
0000
0000
01E0
03F0
07F8
07F8
07F8
07F8
07F8
07F8
07F8
07F8
07F8
07F8
07F8
07F8
07F8
07F8
07F8
07F8
07F8
07F8
07F8
07F8
07F8
07F8
07F8
07F8
07F8
07F8
07F8
07F8
07F8
07F8
07F8
07F8
07F8
07F8
07F8
07F8
07F8
07F8
07F8
03F0
01E0
ENDCHAR
STARTCHAR $00CD
ENCODING 205
SWIDTH 316 0
DWIDTH 19 0
BBX 12 54 4 0
BITMAP
0FF0
1FE0
3FC0
3F80
7F00
7E00
FC00
F000
0000
0000
0000
1E00
3F00
7F80
7F80
7F80
7F80
7F80
7F80
7F80
7F80
7F80
7F80
7F80
7F80
7F80
7F80
7F80
7F80
7F80
7F80
7F80
7F80
7F80
7F80
7F80
7F80
7F80
7F80
7F80
7F80
7F80
7F80
7F80
7F80
7F80
7F80
7F80
7F80
7F80
7F80
7F80
3F00
1E00
ENDCHAR
STARTCHAR $00CE
ENCODING 206
SWIDTH 316 0
DWIDTH 19 0
BBX 19 54 -1 0
BITMAP
03F800
07FC00
0FFE00
1FBF00
3F1F80
7E0F80
7C07C0
F803E0
000000
000000
000000
00F000
01F800
03FC00
03FC00
03FC00
03FC00
03FC00
03FC00
03FC00
03FC00
03FC00
03FC00
03FC00
03FC00
03FC00
03FC00
03FC00
03FC00
03FC00
03FC00
03FC00
03FC00
03FC00
03FC00
03FC00
03FC00
03FC00
03FC00
03FC00
03FC00
03FC00
03FC00
03FC00
03FC00
03FC00
03FC00
03FC00
03FC00
03FC00
03FC00
03FC00
01F800
00F000
ENDCHAR
STARTCHAR $00CF
ENCODING 207
SWIDTH 316 0
DWIDTH 19 0
BBX 18 53 -1 0
BITMAP
380700
FE1FC0
FE1FC0
FE1FC0
FE1FC0
380780
000000
000000
000000
000000
00F000
01F800
03FC00
03FC00
03FC00
03FC00
03FC00
03FC00
03FC00
03FC00
03FC00
03FC00
03FC00
03FC00
03FC00
03FC00
03FC00
03FC00
03FC00
03FC00
03FC00
03FC00
03FC00
03FC00
03FC00
03FC00
03FC00
03FC00
03FC00
03FC00
03FC00
03FC00
03FC00
03FC00
03FC00
03FC00
03FC00
03FC00
03FC00
03FC00
03FC00
01F800
00F000
ENDCHAR
STARTCHAR $00D0
ENCODING 208
SWIDTH 733 0
DWIDTH 44 0
BBX 42 43 0 0
BITMAP
00FFFFF00000
03FFFFFE0000
07FFFFFF8000
07FFFFFFE000
07FFFFFFF000
07FFFFFFF800
07FFFFFFFC00
07F8007FFC00
07F8001FFE00
07F80007FF00
07F80003FF00
07F80001FF00
07F80001FF80
07F80000FF80
07F80000FF80
07F80000FF80
07F800007FC0
07F800007FC0
07F800007FC0
7FFFFC007FC0
7FFFFE007FC0
FFFFFE007FC0
FFFFFE007FC0
7FFFFE007FC0
7FFFFC007FC0
07F800007FC0
07F800007FC0
07F80000FFC0
07F80000FF80
07F80000FF80
07F80001FF80
07F80001FF00
07F80003FF00
07F80007FF00
07F8000FFE00
07F8007FFC00
07FFFFFFFC00
07FFFFFFF800
07FFFFFFF000
07FFFFFFE000
07FFFFFF8000
03FFFFFE0000
01FFFFF00000
ENDCHAR
STARTCHAR $00D1
ENCODING 209
SWIDTH 766 0
DWIDTH 46 0
BBX 36 55 5 0
BITMAP
0000004000
003E00E000
007F80E000
00FFE1E000
01FFFFE000
01FFFFC000
01E1FFC000
01C07F8000
01C01F0000
0080000000
0000000000
0000000000
1E000003C0
7F800007E0
7F80000FF0
FFC0000FF0
FFE0000FF0
FFE0000FF0
FFF0000FF0
FFF8000FF0
FFF8000FF0
FFFC000FF0
FFFE000FF0
FFFE000FF0
FFFF000FF0
FFFF800FF0
FFFF800FF0
FF7FC00FF0
FF3FE00FF0
FF3FF00FF0
FF1FF00FF0
FF0FF80FF0
FF0FFC0FF0
FF07FC0FF0
FF03FE0FF0
FF01FF0FF0
FF01FF0FF0
FF00FF8FF0
FF007FCFF0
FF007FCFF0
FF003FEFF0
FF001FFFF0
FF001FFFF0
FF000FFFF0
FF0007FFF0
FF0007FFF0
FF0003FFF0
FF0001FFF0
FF0001FFF0
FF0000FFF0
FF00007FF0
FF00007FF0
FF00003FF0
7E00001FE0
3C000007C0
ENDCHAR
STARTCHAR $00D2
ENCODING 210
SWIDTH 800 0
DWIDTH 48 0
BBX 42 54 3 0
BITMAP
0003FC000000
0001FE000000
0000FF000000
00007F800000
00003F800000
00001FC00000
000007C00000
000003C00000
000000000000
000000000000
000000000000
0000FFC00000
000FFFFC0000
003FFFFF0000
00FFFFFFC000
01FFFFFFE000
03FFFFFFF000
07FFFFFFF800
0FFF80FFFC00
1FFE001FFE00
1FFC000FFE00
3FF80007FF00
3FF00003FF00
7FE00001FF80
7FE00001FF80
7FC00000FF80
7FC00000FF80
FFC00000FFC0
FF8000007FC0
FF8000007FC0
FF8000007FC0
FF8000007FC0
FF8000007FC0
FF8000007FC0
FF8000007FC0
FF8000007FC0
FF8000007FC0
FFC00000FFC0
7FC00000FF80
7FC00000FF80
7FE00001FF80
7FE00001FF80
3FF00003FF00
3FF80007FF00
1FFC000FFE00
1FFE001FFE00
0FFF80FFFC00
07FFFFFFF800
03FFFFFFF000
01FFFFFFE000
00FFFFFFC000
003FFFFF0000
000FFFFC0000
0000FFC00000
ENDCHAR
STARTCHAR $00D3
ENCODING 211
SWIDTH 800 0
DWIDTH 48 0
BBX 42 54 3 0
BITMAP
000003FC0000
000007F80000
00000FF00000
00000FE00000
00001FC00000
00001F800000
00003F000000
00003C000000
000000000000
000000000000
000000000000
0000FFC00000
000FFFFC0000
003FFFFF0000
00FFFFFFC000
01FFFFFFE000
03FFFFFFF000
07FFFFFFF800
0FFF80FFFC00
1FFE001FFE00
1FFC000FFE00
3FF80007FF00
3FF00003FF00
7FE00001FF80
7FE00001FF80
7FC00000FF80
7FC00000FF80
FFC00000FFC0
FF8000007FC0
FF8000007FC0
FF8000007FC0
FF8000007FC0
FF8000007FC0
FF8000007FC0
FF8000007FC0
FF8000007FC0
FF8000007FC0
FFC00000FFC0
7FC00000FF80
7FC00000FF80
7FE00001FF80
7FE00001FF80
3FF00003FF00
3FF80007FF00
1FFC000FFE00
1FFE001FFE00
0FFF80FFFC00
07FFFFFFF800
03FFFFFFF000
01FFFFFFE000
00FFFFFFC000
003FFFFF0000
000FFFFC0000
0000FFC00000
ENDCHAR
STARTCHAR $00D4
ENCODING 212
SWIDTH 800 0
DWIDTH 48 0
BBX 42 54 3 0
BITMAP
00001FC00000
00003FE00000
00007FF00000
0000FDF80000
0001F8FC0000
0003F07C0000
0003E03E0000
0007C01F0000
000000000000
000000000000
000000000000
0000FFC00000
000FFFFC0000
003FFFFF0000
00FFFFFFC000
01FFFFFFE000
03FFFFFFF000
07FFFFFFF800
0FFF80FFFC00
1FFE001FFE00
1FFC000FFE00
3FF80007FF00
3FF00003FF00
7FE00001FF80
7FE00001FF80
7FC00000FF80
7FC00000FF80
FFC00000FFC0
FF8000007FC0
FF8000007FC0
FF8000007FC0
FF8000007FC0
FF8000007FC0
FF8000007FC0
FF8000007FC0
FF8000007FC0
FF8000007FC0
FFC00000FFC0
7FC00000FF80
7FC00000FF80
7FE00001FF80
7FE00001FF80
3FF00003FF00
3FF80007FF00
1FFC000FFE00
1FFE001FFE00
0FFF80FFFC00
07FFFFFFF800
03FFFFFFF000
01FFFFFFE000
00FFFFFFC000
003FFFFF0000
000FFFFC0000
0000FFC00000
ENDCHAR
STARTCHAR $00D5
ENCODING 213
SWIDTH 800 0
DWIDTH 48 0
BBX 42 55 3 0
BITMAP
000000020000
0001F0070000
0003FC070000
0007FF0F0000
000FFFFF0000
000FFFFE0000
000F0FFE0000
000E03FC0000
000E00F80000
000400000000
000000000000
000000000000
0000FFC00000
000FFFFC0000
003FFFFF0000
00FFFFFFC000
01FFFFFFE000
03FFFFFFF000
07FFFFFFF800
0FFF80FFFC00
1FFE001FFE00
1FFC000FFE00
3FF80007FF00
3FF00003FF00
7FE00001FF80
7FE00001FF80
7FC00000FF80
7FC00000FF80
FFC00000FFC0
FF8000007FC0
FF8000007FC0
FF8000007FC0
FF8000007FC0
FF8000007FC0
FF8000007FC0
FF8000007FC0
FF8000007FC0
FF8000007FC0
FFC00000FFC0
7FC00000FF80
7FC00000FF80
7FE00001FF80
7FE00001FF80
3FF00003FF00
3FF80007FF00
1FFC000FFE00
1FFE001FFE00
0FFF80FFFC00
07FFFFFFF800
03FFFFFFF000
01FFFFFFE000
00FFFFFFC000
003FFFFF0000
000FFFFC0000
0000FFC00000
ENDCHAR
STARTCHAR $00D6
ENCODING 214
SWIDTH 800 0
DWIDTH 48 0
BBX 42 53 3 0
BITMAP
0001C0380000
0007F0FE0000
0007F0FE0000
0007F0FE0000
0007F0FE0000
0001C03C0000
000000000000
000000000000
000000000000
000000000000
0000FFC00000
000FFFFC0000
003FFFFF0000
00FFFFFFC000
01FFFFFFE000
03FFFFFFF000
07FFFFFFF800
0FFF80FFFC00
1FFE001FFE00
1FFC000FFE00
3FF80007FF00
3FF00003FF00
7FE00001FF80
7FE00001FF80
7FC00000FF80
7FC00000FF80
FFC00000FFC0
FF8000007FC0
FF8000007FC0
FF8000007FC0
FF8000007FC0
FF8000007FC0
FF8000007FC0
FF8000007FC0
FF8000007FC0
FF8000007FC0
FFC00000FFC0
7FC00000FF80
7FC00000FF80
7FE00001FF80
7FE00001FF80
3FF00003FF00
3FF80007FF00
1FFC000FFE00
1FFE001FFE00
0FFF80FFFC00
07FFFFFFF800
03FFFFFFF000
01FFFFFFE000
00FFFFFFC000
003FFFFF0000
000FFFFC0000
0000FFC00000
ENDCHAR
STARTCHAR $00D7
ENCODING 215
SWIDTH 583 0
DWIDTH 35 0
BBX 28 28 3 7
BITMAP
04000200
0E000700
1F000F80
3F801FC0
7FC03FE0
FFE07FF0
7FF0FFE0
3FF9FFC0
1FFFFF80
0FFFFF00
07FFFE00
03FFFC00
01FFF800
00FFF000
00FFF000
01FFF800
03FFFC00
07FFFE00
0FFFFF00
1FFFFF80
3FF9FFC0
7FF0FFE0
FFE07FF0
7FC03FE0
3F801FC0
1F000F80
0E000700
04000200
ENDCHAR
STARTCHAR $00D8
ENCODING 216
SWIDTH 800 0
DWIDTH 48 0
BBX 42 43 3 0
BITMAP
0000FFC00380
000FFFFC07C0
003FFFFF0FC0
00FFFFFF9FC0
01FFFFFFFF80
03FFFFFFFF80
07FFFFFFFF00
0FFF80FFFE00
1FFE001FFC00
1FFC000FFE00
3FF0000FFF00
3FF0001FFF00
7FE0003FFF00
7FE0007FFF80
7FC000FFFF80
7FC001FEFF80
FFC003FCFFC0
FF8007F87FC0
FF800FF07FC0
FF801FE07FC0
FF803FC07FC0
FF807F807FC0
FF80FF007FC0
FF81FE007FC0
FF83FC007FC0
FF87F8007FC0
FFCFF000FFC0
7FDFE000FF80
7FFFC000FF80
7FFF8001FF80
3FFF0001FF80
3FFE0003FF00
3FFC0007FF00
1FFC000FFE00
0FFE001FFE00
1FFF80FFFC00
3FFFFFFFF800
7FFFFFFFF000
7FFFFFFFE000
FE7FFFFFC000
FC3FFFFF0000
F80FFFFC0000
7000FFC00000
ENDCHAR
STARTCHAR $00D9
ENCODING 217
SWIDTH 766 0
DWIDTH 46 0
BBX 36 54 5 0
BITMAP
007F800000
003FC00000
001FE00000
000FF00000
0007F00000
0003F80000
0000F80000
0000780000
0000000000
0000000000
0000000000
3C000003C0
7E000007E0
FF00000FF0
FF00000FF0
FF00000FF0
FF00000FF0
FF00000FF0
FF00000FF0
FF00000FF0
FF00000FF0
FF00000FF0
FF00000FF0
FF00000FF0
FF00000FF0
FF00000FF0
FF00000FF0
FF00000FF0
FF00000FF0
FF00000FF0
FF00000FF0
FF00000FF0
FF00000FF0
FF00000FF0
FF00000FF0
FF00000FF0
FF00000FF0
FF00000FF0
FF00000FF0
FF00000FF0
FF00000FF0
FF80001FF0
7F80001FE0
7FC0003FE0
7FC0003FE0
3FF000FFE0
3FFC03FFC0
1FFFFFFFC0
1FFFFFFF80
0FFFFFFF00
07FFFFFE00
01FFFFF800
007FFFF000
0007FF0000
ENDCHAR
STARTCHAR $00DA
ENCODING 218
SWIDTH 766 0
DWIDTH 46 0
BBX 36 54 5 0
BITMAP
00007F8000
0000FF0000
0001FE0000
0001FC0000
0003F80000
0003F00000
0007E00000
0007800000
0000000000
0000000000
0000000000
3C000003C0
7E000007E0
FF00000FF0
FF00000FF0
FF00000FF0
FF00000FF0
FF00000FF0
FF00000FF0
FF00000FF0
FF00000FF0
FF00000FF0
FF00000FF0
FF00000FF0
FF00000FF0
FF00000FF0
FF00000FF0
FF00000FF0
FF00000FF0
FF00000FF0
FF00000FF0
FF00000FF0
FF00000FF0
FF00000FF0
FF00000FF0
FF00000FF0
FF00000FF0
FF00000FF0
FF00000FF0
FF00000FF0
FF00000FF0
FF80001FF0
7F80001FE0
7FC0003FE0
7FC0003FE0
3FF000FFE0
3FFC03FFC0
1FFFFFFFC0
1FFFFFFF80
0FFFFFFF00
07FFFFFE00
01FFFFF800
007FFFF000
0007FF0000
ENDCHAR
STARTCHAR $00DB
ENCODING 219
SWIDTH 766 0
DWIDTH 46 0
BBX 36 54 5 0
BITMAP
0003F80000
0007FC0000
000FFE0000
001FBF0000
003F1F8000
007E0F8000
007C07C000
00F803E000
0000000000
0000000000
0000000000
3C000003C0
7E000007E0
FF00000FF0
FF00000FF0
FF00000FF0
FF00000FF0
FF00000FF0
FF00000FF0
FF00000FF0
FF00000FF0
FF00000FF0
FF00000FF0
FF00000FF0
FF00000FF0
FF00000FF0
FF00000FF0
FF00000FF0
FF00000FF0
FF00000FF0
FF00000FF0
FF00000FF0
FF00000FF0
FF00000FF0
FF00000FF0
FF00000FF0
FF00000FF0
FF00000FF0
FF00000FF0
FF00000FF0
FF00000FF0
FF80001FF0
7F80001FE0
7FC0003FE0
7FC0003FE0
3FF000FFE0
3FFC03FFC0
1FFFFFFFC0
1FFFFFFF80
0FFFFFFF00
07FFFFFE00
01FFFFF800
007FFFF000
0007FF0000
ENDCHAR
STARTCHAR $00DC
ENCODING 220
SWIDTH 766 0
DWIDTH 46 0
BBX 36 53 5 0
BITMAP
0038070000
00FE1FC000
00FE1FC000
00FE1FC000
00FE1FC000
0038078000
0000000000
0000000000
0000000000
0000000000
3C000003C0
7E000007E0
FF00000FF0
FF00000FF0
FF00000FF0
FF00000FF0
FF00000FF0
FF00000FF0
FF00000FF0
FF00000FF0
FF00000FF0
FF00000FF0
FF00000FF0
FF00000FF0
FF00000FF0
FF00000FF0
FF00000FF0
FF00000FF0
FF00000FF0
FF00000FF0
FF00000FF0
FF00000FF0
FF00000FF0
FF00000FF0
FF00000FF0
FF00000FF0
FF00000FF0
FF00000FF0
FF00000FF0
FF00000FF0
FF80001FF0
7F80001FE0
7FC0003FE0
7FC0003FE0
3FF000FFE0
3FFC03FFC0
1FFFFFFFC0
1FFFFFFF80
0FFFFFFF00
07FFFFFE00
01FFFFF800
007FFFF000
0007FF0000
ENDCHAR
STARTCHAR $00DD
ENCODING 221
SWIDTH 633 0
DWIDTH 38 0
BBX 34 54 2 0
BITMAP
00003FC000
00007F8000
0000FF0000
0000FE0000
0001FC0000
0001F80000
0003F00000
0003C00000
0000000000
0000000000
0000000000
3C00000F00
7E00001F80
FF00003FC0
FF80003FC0
FF80007FC0
7FC000FFC0
7FE000FF80
3FE001FF80
3FF001FF00
1FF003FE00
0FF807FE00
0FFC07FC00
07FC0FF800
03FE1FF800
03FF1FF000
01FF3FE000
00FFFFE000
00FFFFC000
007FFF8000
003FFF8000
003FFF0000
001FFE0000
000FFC0000
000FFC0000
0007F80000
0007F80000
0007F80000
0007F80000
0007F80000
0007F80000
0007F80000
0007F80000
0007F80000
0007F80000
0007F80000
0007F80000
0007F80000
0007F80000
0007F80000
0007F80000
0007F80000
0003F00000
0001E00000
ENDCHAR
STARTCHAR $00DE
ENCODING 222
SWIDTH 666 0
DWIDTH 40 0
BBX 33 43 5 0
BITMAP
3C00000000
7E00000000
FF00000000
FF00000000
FF00000000
FF00000000
FF00000000
FF00000000
FF00000000
FFFFFE0000
FFFFFFC000
FFFFFFF000
FFFFFFF800
FFFFFFFC00
FFFFFFFE00
FF001FFF00
FF0003FF00
FF0001FF80
FF0001FF80
FF0000FF80
FF0000FF80
FF0000FF80
FF0000FF80
FF0000FF80
FF0001FF80
FF0001FF00
FF0007FF00
FF001FFF00
FFFFFFFE00
FFFFFFFC00
FFFFFFF800
FFFFFFF000
FFFFFFC000
FFFFFC0000
FF00000000
FF00000000
FF00000000
FF00000000
FF00000000
FF00000000
FF00000000
7E00000000
3C00000000
ENDCHAR
STARTCHAR $00DF
ENCODING 223
SWIDTH 600 0
DWIDTH 36 0
BBX 31 43 3 0
BITMAP
007FC000
03FFF800
07FFFE00
0FFFFF00
1FFFFF80
3FFFFF80
7FE0FFC0
7FC07FC0
7F807FC0
FF807FC0
FF007FC0
FF007F80
FF007F80
FF00FF00
FF01FE00
FF01FC00
FF03FC00
FF03F800
FF07F800
FF07F800
FF07FC00
FF07FE00
FF03FF00
FF03FF80
FF01FFC0
FF00FFE0
FF007FF0
FF003FF8
FF000FFC
FF0007FC
FF0003FE
FF0001FE
FF0000FE
FF0400FE
FF1F00FE
FF1F81FE
FF3FC3FE
FF1FFFFC
FF1FFFFC
FF0FFFF8
FF07FFF0
7E03FFC0
3C007F00
ENDCHAR
STARTCHAR $00E0
ENCODING 224
SWIDTH 600 0
DWIDTH 36 0
BBX 31 43 2 0
BITMAP
01FE0000
00FF0000
007F8000
003FC000
001FC000
000FE000
0003E000
0001E000
00000000
00000000
00000000
001FFC00
01FFFF80
07FFFFE0
0FFFFFF0
1FFFFFF0
3FFFFFF8
3FF01FF8
3FC007FC
7F8007FC
7F0003FC
3F0003FC
1E0003FC
00000FFC
0000FFFC
000FFFFC
01FFFFFC
0FFFFFFC
1FFFF3FC
3FFF03FC
7FE003FC
7F8003FC
FF0003FC
FF0007FC
FF0007FC
FF000FFC
FF801FFE
7FE07FFE
7FFFFFFE
3FFFF9FE
1FFFF0FE
0FFFC07E
01FE003C
ENDCHAR
STARTCHAR $00E1
ENCODING 225
SWIDTH 600 0
DWIDTH 36 0
BBX 31 43 2 0
BITMAP
0001FE00
0003FC00
0007F800
0007F000
000FE000
000FC000
001F8000
001E0000
00000000
00000000
00000000
001FFC00
01FFFF80
07FFFFE0
0FFFFFF0
1FFFFFF0
3FFFFFF8
3FF01FF8
3FC007FC
7F8007FC
7F0003FC
3F0003FC
1E0003FC
00000FFC
0000FFFC
000FFFFC
01FFFFFC
0FFFFFFC
1FFFF3FC
3FFF03FC
7FE003FC
7F8003FC
FF0003FC
FF0007FC
FF0007FC
FF000FFC
FF801FFE
7FE07FFE
7FFFFFFE
3FFFF9FE
1FFFF0FE
0FFFC07E
01FE003C
ENDCHAR
STARTCHAR $00E2
ENCODING 226
SWIDTH 600 0
DWIDTH 36 0
BBX 31 43 2 0
BITMAP
000FE000
001FF000
003FF800
007EFC00
00FC7E00
01F83E00
01F01F00
03E00F80
00000000
00000000
00000000
001FFC00
01FFFF80
07FFFFE0
0FFFFFF0
1FFFFFF0
3FFFFFF8
3FF01FF8
3FC007FC
7F8007FC
7F0003FC
3F0003FC
1E0003FC
00000FFC
0000FFFC
000FFFFC
01FFFFFC
0FFFFFFC
1FFFF3FC
3FFF03FC
7FE003FC
7F8003FC
FF0003FC
FF0007FC
FF0007FC
FF000FFC
FF801FFE
7FE07FFE
7FFFFFFE
3FFFF9FE
1FFFF0FE
0FFFC07E
01FE003C
ENDCHAR
STARTCHAR $00E3
ENCODING 227
SWIDTH 600 0
DWIDTH 36 0
BBX 31 44 2 0
BITMAP
00000100
00F80380
01FE0380
03FF8780
07FFFF80
07FFFF00
0787FF00
0701FE00
07007C00
02000000
00000000
00000000
001FFC00
01FFFF80
07FFFFE0
0FFFFFF0
1FFFFFF0
3FFFFFF8
3FF01FF8
3FC007FC
7F8007FC
7F0003FC
3F0003FC
1E0003FC
00000FFC
0000FFFC
000FFFFC
01FFFFFC
0FFFFFFC
1FFFF3FC
3FFF03FC
7FE003FC
7F8003FC
FF0003FC
FF0007FC
FF0007FC
FF000FFC
FF801FFE
7FE07FFE
7FFFFFFE
3FFFF9FE
1FFFF0FE
0FFFC07E
01FE003C
ENDCHAR
STARTCHAR $00E4
ENCODING 228
SWIDTH 600 0
DWIDTH 36 0
BBX 31 42 2 0
BITMAP
00E01C00
03F87F00
03F87F00
03F87F00
03F87F00
00E01E00
00000000
00000000
00000000
00000000
001FFC00
01FFFF80
07FFFFE0
0FFFFFF0
1FFFFFF0
3FFFFFF8
3FF01FF8
3FC007FC
7F8007FC
7F0003FC
3F0003FC
1E0003FC
00000FFC
0000FFFC
000FFFFC
01FFFFFC
0FFFFFFC
1FFFF3FC
3FFF03FC
7FE003FC
7F8003FC
FF0003FC
FF0007FC
FF0007FC
FF000FFC
FF801FFE
7FE07FFE
7FFFFFFE
3FFFF9FE
1FFFF0FE
0FFFC07E
01FE003C
ENDCHAR
STARTCHAR $00E5
ENCODING 229
SWIDTH 600 0
DWIDTH 36 0
BBX 31 46 2 0
BITMAP
00078000
001FE000
003FF000
00387000
00703800
00703800
00703800
00703800
00387000
003FF000
001FE000
00078000
00000000
00000000
001FFC00
01FFFF80
07FFFFE0
0FFFFFF0
1FFFFFF0
3FFFFFF8
3FF01FF8
3FC007FC
7F8007FC
7F0003FC
3F0003FC
1E0003FC
00000FFC
0000FFFC
000FFFFC
01FFFFFC
0FFFFFFC
1FFFF3FC
3FFF03FC
7FE003FC
7F8003FC
FF0003FC
FF0007FC
FF0007FC
FF000FFC
FF801FFE
7FE07FFE
7FFFFFFE
3FFFF9FE
1FFFF0FE
0FFFC07E
01FE003C
ENDCHAR
STARTCHAR $00E6
ENCODING 230
SWIDTH 933 0
DWIDTH 56 0
BBX 50 32 3 0
BITMAP
003FF001FE0000
01FFFC0FFFC000
07FFFF1FFFF000
0FFFFFFFFFF800
1FFFFFFFFFFC00
3FFFFFFFFFFE00
3FE03FFF83FF00
7F801FFE01FF00
7F800FFC00FF80
7F000FF8007F80
7E000FF8007F80
3E000FF0003FC0
08001FF0003FC0
0001FFF0003FC0
001FFFFFFFFFC0
01FFFFFFFFFFC0
0FFFFFFFFFFFC0
1FFFEFFFFFFF80
3FFE0FFFFFFE00
7FE00FF0000000
7F800FF0000000
FF000FF0000000
FF000FF8000780
FF001FF8001F80
FF001FFC003FC0
FF803FFE007FC0
7FC0FFFF83FF80
7FFFFFFFFFFF00
3FFFF8FFFFFE00
1FFFF03FFFFC00
0FFFC01FFFF000
03FE0003FF8000
ENDCHAR
STARTCHAR $00E7
ENCODING 231
SWIDTH 600 0
DWIDTH 36 0
BBX 30 44 3 -12
BITMAP
001FF000
00FFFE00
01FFFF80
07FFFFC0
0FFFFFF0
1FFFFFF0
1FF81FF8
3FE00FF8
3FC007FC
7FC003FC
7F8001F8
7F8000F8
FF000000
FF000000
FF000000
FF000000
FF000000
FF000000
FF000000
FF0000F0
FF8001F8
7F8001FC
7F8003FC
7FC007FC
3FE00FF8
3FF81FF8
1FFFFFF0
0FFFFFE0
07FFFFC0
03FFFF80
00FFFE00
001FF000
000F0000
001FC000
003FF000
001FF800
0000FC00
00007C00
00007C00
00007C00
0001F800
00FFF800
01FFE000
007F8000
ENDCHAR
STARTCHAR $00E8
ENCODING 232
SWIDTH 600 0
DWIDTH 36 0
BBX 30 43 3 0
BITMAP
03FC0000
01FE0000
00FF0000
007F8000
003F8000
001FC000
0007C000
0003C000
00000000
00000000
00000000
001FF000
00FFFC00
03FFFF00
07FFFF80
0FFFFFE0
1FFFFFE0
3FF83FF0
3FE00FF8
7FC007F8
7F8007F8
7F8003FC
FF0003FC
FF0003FC
FF0003FC
FFFFFFFC
FFFFFFFC
FFFFFFFC
FFFFFFF8
FFFFFFE0
FF000000
FF000000
7F000000
7F800078
7FC001FC
3FE003FC
3FF81FF8
1FFFFFF8
0FFFFFF0
07FFFFE0
03FFFFC0
00FFFF00
001FF800
ENDCHAR
STARTCHAR $00E9
ENCODING 233
SWIDTH 600 0
DWIDTH 36 0
BBX 30 43 3 0
BITMAP
0003FC00
0007F800
000FF000
000FE000
001FC000
001F8000
003F0000
003C0000
00000000
00000000
00000000
001FF000
00FFFC00
03FFFF00
07FFFF80
0FFFFFE0
1FFFFFE0
3FF83FF0
3FE00FF8
7FC007F8
7F8007F8
7F8003FC
FF0003FC
FF0003FC
FF0003FC
FFFFFFFC
FFFFFFFC
FFFFFFFC
FFFFFFF8
FFFFFFE0
FF000000
FF000000
7F000000
7F800078
7FC001FC
3FE003FC
3FF81FF8
1FFFFFF8
0FFFFFF0
07FFFFE0
03FFFFC0
00FFFF00
001FF800
ENDCHAR
STARTCHAR $00EA
ENCODING 234
SWIDTH 600 0
DWIDTH 36 0
BBX 30 43 3 0
BITMAP
001FC000
003FE000
007FF000
00FDF800
01F8FC00
03F07C00
03E03E00
07C01F00
00000000
00000000
00000000
001FF000
00FFFC00
03FFFF00
07FFFF80
0FFFFFE0
1FFFFFE0
3FF83FF0
3FE00FF8
7FC007F8
7F8007F8
7F8003FC
FF0003FC
FF0003FC
FF0003FC
FFFFFFFC
FFFFFFFC
FFFFFFFC
FFFFFFF8
FFFFFFE0
FF000000
FF000000
7F000000
7F800078
7FC001FC
3FE003FC
3FF81FF8
1FFFFFF8
0FFFFFF0
07FFFFE0
03FFFFC0
00FFFF00
001FF800
ENDCHAR
STARTCHAR $00EB
ENCODING 235
SWIDTH 600 0
DWIDTH 36 0
BBX 30 42 3 0
BITMAP
01C03800
07F0FE00
07F0FE00
07F0FE00
07F0FE00
01C03C00
00000000
00000000
00000000
00000000
001FF000
00FFFC00
03FFFF00
07FFFF80
0FFFFFE0
1FFFFFE0
3FF83FF0
3FE00FF8
7FC007F8
7F8007F8
7F8003FC
FF0003FC
FF0003FC
FF0003FC
FFFFFFFC
FFFFFFFC
FFFFFFFC
FFFFFFF8
FFFFFFE0
FF000000
FF000000
7F000000
7F800078
7FC001FC
3FE003FC
3FF81FF8
1FFFFFF8
0FFFFFF0
07FFFFE0
03FFFFC0
00FFFF00
001FF800
ENDCHAR
STARTCHAR $00EC
ENCODING 236
SWIDTH 266 0
DWIDTH 16 0
BBX 12 43 0 0
BITMAP
FF00
7F80
3FC0
1FE0
0FE0
07F0
01F0
00F0
0000
0000
0000
03C0
07E0
0FF0
0FF0
0FF0
0FF0
0FF0
0FF0
0FF0
0FF0
0FF0
0FF0
0FF0
0FF0
0FF0
0FF0
0FF0
0FF0
0FF0
0FF0
0FF0
0FF0
0FF0
0FF0
0FF0
0FF0
0FF0
0FF0
0FF0
0FF0
07E0
03C0
ENDCHAR
STARTCHAR $00ED
ENCODING 237
SWIDTH 266 0
DWIDTH 16 0
BBX 12 43 4 0
BITMAP
0FF0
1FE0
3FC0
3F80
7F00
7E00
FC00
F000
0000
0000
0000
3C00
7E00
FF00
FF00
FF00
FF00
FF00
FF00
FF00
FF00
FF00
FF00
FF00
FF00
FF00
FF00
FF00
FF00
FF00
FF00
FF00
FF00
FF00
FF00
FF00
FF00
FF00
FF00
FF00
FF00
7E00
3C00
ENDCHAR
STARTCHAR $00EE
ENCODING 238
SWIDTH 266 0
DWIDTH 16 0
BBX 19 43 -1 0
BITMAP
03F800
07FC00
0FFE00
1FBF00
3F1F80
7E0F80
7C07C0
F803E0
000000
000000
000000
01E000
03F000
07F800
07F800
07F800
07F800
07F800
07F800
07F800
07F800
07F800
07F800
07F800
07F800
07F800
07F800
07F800
07F800
07F800
07F800
07F800
07F800
07F800
07F800
07F800
07F800
07F800
07F800
07F800
07F800
03F000
01E000
ENDCHAR
STARTCHAR $00EF
ENCODING 239
SWIDTH 266 0
DWIDTH 16 0
BBX 18 42 -1 0
BITMAP
380700
FE1FC0
FE1FC0
FE1FC0
FE1FC0
380780
000000
000000
000000
000000
01E000
03F000
07F800
07F800
07F800
07F800
07F800
07F800
07F800
07F800
07F800
07F800
07F800
07F800
07F800
07F800
07F800
07F800
07F800
07F800
07F800
07F800
07F800
07F800
07F800
07F800
07F800
07F800
07F800
07F800
03F000
01E000
ENDCHAR
STARTCHAR $00F0
ENCODING 240
SWIDTH 600 0
DWIDTH 36 0
BBX 32 44 2 -1
BITMAP
001F0F00
003FFF00
003FFF80
003FFF00
001FFC00
001FFC00
003FFE00
00FFFF00
01FCFF00
01F0FF80
00C07FC0
00003FE0
001FDFE0
007FFFF0
01FFFFF8
07FFFFF8
0FFFFFFC
1FFFFFFC
1FF81FFC
3FE007FE
7FC003FE
7FC003FE
7F8001FE
FF8001FF
FF0000FF
FF0000FF
FF0000FF
FF0000FF
FF0000FF
FF0000FF
FF0000FF
FF0000FF
7F8001FE
7F8001FE
7FC003FE
3FC003FC
3FE00FFC
1FF81FF8
1FFFFFF8
0FFFFFF0
07FFFFE0
01FFFF80
007FFE00
000FF000
ENDCHAR
STARTCHAR $00F1
ENCODING 241
SWIDTH 600 0
DWIDTH 36 0
BBX 28 44 4 0
BITMAP
00000400
03E00E00
07F80E00
0FFE1E00
1FFFFE00
1FFFFC00
1E1FFC00
1C07F800
1C01F000
08000000
00000000
00000000
3C03F800
7E0FFE00
FE3FFF80
FE7FFFC0
FFFFFFC0
FFFFFFE0
FFF07FE0
FFE01FF0
FFC01FF0
FF801FF0
FF800FF0
FF000FF0
FF000FF0
FF000FF0
FF000FF0
FF000FF0
FF000FF0
FF000FF0
FF000FF0
FF000FF0
FF000FF0
FF000FF0
FF000FF0
FF000FF0
FF000FF0
FF000FF0
FF000FF0
FF000FF0
FF000FF0
FF000FF0
7E0007E0
3C0003C0
ENDCHAR
STARTCHAR $00F2
ENCODING 242
SWIDTH 600 0
DWIDTH 36 0
BBX 32 43 2 0
BITMAP
01FE0000
00FF0000
007F8000
003FC000
001FC000
000FE000
0003E000
0001E000
00000000
00000000
00000000
000FF000
007FFE00
01FFFF80
07FFFFE0
0FFFFFF0
1FFFFFF8
1FF81FF8
3FE007FC
7FC003FC
7FC003FE
7F8001FE
FF8001FE
FF0000FF
FF0000FF
FF0000FF
FF0000FF
FF0000FF
FF0000FF
FF0000FF
FF0000FF
FF8001FE
7F8001FE
7FC003FE
3FC003FC
3FE007FC
1FF81FF8
1FFFFFF8
0FFFFFF0
07FFFFE0
01FFFF80
007FFE00
000FF000
ENDCHAR
STARTCHAR $00F3
ENCODING 243
SWIDTH 600 0
DWIDTH 36 0
BBX 32 43 2 0
BITMAP
0001FE00
0003FC00
0007F800
0007F000
000FE000
000FC000
001F8000
001E0000
00000000
00000000
00000000
000FF000
007FFE00
01FFFF80
07FFFFE0
0FFFFFF0
1FFFFFF8
1FF81FF8
3FE007FC
7FC003FC
7FC003FE
7F8001FE
FF8001FE
FF0000FF
FF0000FF
FF0000FF
FF0000FF
FF0000FF
FF0000FF
FF0000FF
FF0000FF
FF8001FE
7F8001FE
7FC003FE
3FC003FC
3FE007FC
1FF81FF8
1FFFFFF8
0FFFFFF0
07FFFFE0
01FFFF80
007FFE00
000FF000
ENDCHAR
STARTCHAR $00F4
ENCODING 244
SWIDTH 600 0
DWIDTH 36 0
BBX 32 43 2 0
BITMAP
000FE000
001FF000
003FF800
007EFC00
00FC7E00
01F83E00
01F01F00
03E00F80
00000000
00000000
00000000
000FF000
007FFE00
01FFFF80
07FFFFE0
0FFFFFF0
1FFFFFF8
1FF81FF8
3FE007FC
7FC003FC
7FC003FE
7F8001FE
FF8001FE
FF0000FF
FF0000FF
FF0000FF
FF0000FF
FF0000FF
FF0000FF
FF0000FF
FF0000FF
FF8001FE
7F8001FE
7FC003FE
3FC003FC
3FE007FC
1FF81FF8
1FFFFFF8
0FFFFFF0
07FFFFE0
01FFFF80
007FFE00
000FF000
ENDCHAR
STARTCHAR $00F5
ENCODING 245
SWIDTH 600 0
DWIDTH 36 0
BBX 32 44 2 0
BITMAP
00000100
00F80380
01FE0380
03FF8780
07FFFF80
07FFFF00
0787FF00
0701FE00
07007C00
02000000
00000000
00000000
000FF000
007FFE00
01FFFF80
07FFFFE0
0FFFFFF0
1FFFFFF8
1FF81FF8
3FE007FC
7FC003FC
7FC003FE
7F8001FE
FF8001FE
FF0000FF
FF0000FF
FF0000FF
FF0000FF
FF0000FF
FF0000FF
FF0000FF
FF0000FF
FF8001FE
7F8001FE
7FC003FE
3FC003FC
3FE007FC
1FF81FF8
1FFFFFF8
0FFFFFF0
07FFFFE0
01FFFF80
007FFE00
000FF000
ENDCHAR
STARTCHAR $00F6
ENCODING 246
SWIDTH 600 0
DWIDTH 36 0
BBX 32 42 2 0
BITMAP
00E01C00
03F87F00
03F87F00
03F87F00
03F87F00
00E01E00
00000000
00000000
00000000
00000000
000FF000
007FFE00
01FFFF80
07FFFFE0
0FFFFFF0
1FFFFFF8
1FF81FF8
3FE007FC
7FC003FC
7FC003FE
7F8001FE
FF8001FE
FF0000FF
FF0000FF
FF0000FF
FF0000FF
FF0000FF
FF0000FF
FF0000FF
FF0000FF
FF8001FE
7F8001FE
7FC003FE
3FC003FC
3FE007FC
1FF81FF8
1FFFFFF8
0FFFFFF0
07FFFFE0
01FFFF80
007FFE00
000FF000
ENDCHAR
STARTCHAR $00F7
ENCODING 247
SWIDTH 583 0
DWIDTH 35 0
BBX 31 32 2 5
BITMAP
0003C000
0007E000
000FF000
000FF000
000FF000
000FF000
000FF000
0007E000
0003C000
00000000
00000000
00000000
FFFFFFFE
FFFFFFFE
FFFFFFFE
FFFFFFFE
FFFFFFFE
FFFFFFFE
FFFFFFFE
FFFFFFFE
00000000
00000000
00000000
0003C000
0007E000
000FF000
000FF000
000FF000
000FF000
0007F000
0007E000
0003C000
ENDCHAR
STARTCHAR $00F8
ENCODING 248
SWIDTH 600 0
DWIDTH 36 0
BBX 33 32 1 0
BITMAP
0007F80380
003FFF0780
00FFFFCF80
03FFFFFF80
07FFFFFF00
0FFFFFFE00
0FFC0FFC00
1FF003FE00
3FE003FE00
3FE007FF00
3FC00FFF00
7FC01FFF00
7F803F7F80
7F807E7F80
7F81FC7F80
7F83F87F80
7F87F07F80
7F8FC07F80
7F9F807F80
7FBF007F80
3FFE00FF80
3FFC00FF00
3FF801FF00
1FF001FE00
1FF003FE00
0FFC0FFC00
1FFFFFFC00
3FFFFFF800
7FFFFFF000
7CFFFFC000
F83FFF0000
7007F80000
ENDCHAR
STARTCHAR $00F9
ENCODING 249
SWIDTH 600 0
DWIDTH 36 0
BBX 28 43 4 0
BITMAP
07F80000
03FC0000
01FE0000
00FF0000
007F0000
003F8000
000F8000
00078000
00000000
00000000
00000000
3C0003C0
7E0007E0
FF000FF0
FF000FF0
FF000FF0
FF000FF0
FF000FF0
FF000FF0
FF000FF0
FF000FF0
FF000FF0
FF000FF0
FF000FF0
FF000FF0
FF000FF0
FF000FF0
FF000FF0
FF000FF0
FF000FF0
FF000FF0
FF000FF0
FF001FF0
FF801FF0
FF803FF0
FFC07FF0
7FE0FFF0
7FFFFFF0
7FFFFFF0
3FFFE7F0
1FFFC7F0
0FFF07E0
01FC03C0
ENDCHAR
STARTCHAR $00FA
ENCODING 250
SWIDTH 600 0
DWIDTH 36 0
BBX 28 43 4 0
BITMAP
0007F800
000FF000
001FE000
001FC000
003F8000
003F0000
007E0000
00780000
00000000
00000000
00000000
3C0003C0
7E0007E0
FF000FF0
FF000FF0
FF000FF0
FF000FF0
FF000FF0
FF000FF0
FF000FF0
FF000FF0
FF000FF0
FF000FF0
FF000FF0
FF000FF0
FF000FF0
FF000FF0
FF000FF0
FF000FF0
FF000FF0
FF000FF0
FF000FF0
FF001FF0
FF801FF0
FF803FF0
FFC07FF0
7FE0FFF0
7FFFFFF0
7FFFFFF0
3FFFE7F0
1FFFC7F0
0FFF07E0
01FC03C0
ENDCHAR
STARTCHAR $00FB
ENCODING 251
SWIDTH 600 0
DWIDTH 36 0
BBX 28 43 4 0
BITMAP
003F8000
007FC000
00FFE000
01FBF000
03F1F800
07E0F800
07C07C00
0F803E00
00000000
00000000
00000000
3C0003C0
7E0007E0
FF000FF0
FF000FF0
FF000FF0
FF000FF0
FF000FF0
FF000FF0
FF000FF0
FF000FF0
FF000FF0
FF000FF0
FF000FF0
FF000FF0
FF000FF0
FF000FF0
FF000FF0
FF000FF0
FF000FF0
FF000FF0
FF000FF0
FF001FF0
FF801FF0
FF803FF0
FFC07FF0
7FE0FFF0
7FFFFFF0
7FFFFFF0
3FFFE7F0
1FFFC7F0
0FFF07E0
01FC03C0
ENDCHAR
STARTCHAR $00FC
ENCODING 252
SWIDTH 600 0
DWIDTH 36 0
BBX 28 42 4 0
BITMAP
03807000
0FE1FC00
0FE1FC00
0FE1FC00
0FE1FC00
03807800
00000000
00000000
00000000
00000000
3C0003C0
7E0007E0
FF000FF0
FF000FF0
FF000FF0
FF000FF0
FF000FF0
FF000FF0
FF000FF0
FF000FF0
FF000FF0
FF000FF0
FF000FF0
FF000FF0
FF000FF0
FF000FF0
FF000FF0
FF000FF0
FF000FF0
FF000FF0
FF000FF0
FF001FF0
FF801FF0
FF803FF0
FFC07FF0
7FE0FFF0
7FFFFFF0
7FFFFFF0
3FFFE7F0
1FFFC7F0
0FFF07E0
01FC03C0
ENDCHAR
STARTCHAR $00FD
ENCODING 253
SWIDTH 550 0
DWIDTH 33 0
BBX 30 55 1 -12
BITMAP
0003FC00
0007F800
000FF000
000FE000
001FC000
001F8000
003F0000
003C0000
00000000
00000000
00000000
1E000070
3F0000F8
7F0001FC
7F8001FC
7F8003FC
7F8003FC
3FC003F8
3FC007F8
1FC007F0
1FE007F0
1FE00FF0
0FE00FE0
0FF00FE0
07F01FE0
07F01FC0
07F81FC0
03F83F80
03F83F80
03FC3F80
01FC7F00
01FC7F00
00FEFF00
00FEFE00
00FEFE00
007FFC00
007FFC00
003FFC00
003FF800
003FF800
001FF000
001FF000
000FF000
001FE000
001FE000
003FE000
003FC000
007FC000
00FF8000
7FFF8000
FFFF0000
FFFF0000
FFFE0000
7FF80000
1FE00000
ENDCHAR
STARTCHAR $00FE
ENCODING 254
SWIDTH 633 0
DWIDTH 38 0
BBX 31 55 4 -12
BITMAP
3C000000
7E000000
FF000000
FF000000
FF000000
FF000000
FF000000
FF000000
FF000000
FF000000
FF000000
FF000000
FF01F800
FF0FFF00
FF1FFF80
FF3FFFE0
FF7FFFF0
FFFFFFF0
FFF83FF8
FFF00FF8
FFE007FC
FFC003FC
FF8003FC
FF8003FE
FF8001FE
FF8001FE
FF0001FE
FF0001FE
FF0001FE
FF0001FE
FF8001FE
FF8003FE
FF8003FC
FFC003FC
FFE007FC
FFE00FF8
FFF83FF8
FFFFFFF0
FF7FFFF0
FF3FFFE0
FF1FFF80
FF0FFF00
FF03F800
FF000000
FF000000
FF000000
FF000000
FF000000
FF000000
FF000000
FF000000
FF000000
FF000000
7E000000
3C000000
ENDCHAR
STARTCHAR $00FF
ENCODING 255
SWIDTH 550 0
DWIDTH 33 0
BBX 30 54 1 -12
BITMAP
01C03800
07F0FE00
07F0FE00
07F0FE00
07F0FE00
01C03C00
00000000
00000000
00000000
00000000
1E000070
3F0000F8
7F0001FC
7F8001FC
7F8003FC
7F8003FC
3FC003F8
3FC007F8
1FC007F0
1FE007F0
1FE00FF0
0FE00FE0
0FF00FE0
07F01FE0
07F01FC0
07F81FC0
03F83F80
03F83F80
03FC3F80
01FC7F00
01FC7F00
00FEFF00
00FEFE00
00FEFE00
007FFC00
007FFC00
003FFC00
003FF800
003FF800
001FF000
001FF000
000FF000
001FE000
001FE000
003FE000
003FC000
007FC000
00FF8000
7FFF8000
FFFF0000
FFFF0000
FFFE0000
7FF80000
1FE00000
ENDCHAR
STARTCHAR $0131
ENCODING 305
SWIDTH 266 0
DWIDTH 16 0
BBX 8 32 4 0
BITMAP
3C
7E
FF
FF
FF
FF
FF
FF
FF
FF
FF
FF
FF
FF
FF
FF
FF
FF
FF
FF
FF
FF
FF
FF
FF
FF
FF
FF
FF
FF
7E
3C
ENDCHAR
STARTCHAR $0152
ENCODING 338
SWIDTH 1033 0
DWIDTH 62 0
BBX 58 43 2 0
BITMAP
0007FC00FFFFFE00
003FFF81FFFFFF80
00FFFFC3FFFFFF80
01FFFFF3FFFFFF80
03FFFFFBFFFFFF80
07FFFFFFFFFFFF80
0FFFFFFFFFFFFF00
1FFF03FFFFFFFC00
1FFC007FF8000000
3FF8003FF8000000
3FF0001FF8000000
3FE0001FF8000000
7FE0000FF8000000
7FC0000FF8000000
7FC0000FF8000000
FFC00007F8000000
FF800007F8000000
FF800007FFFFFC00
FF800007FFFFFE00
FF800007FFFFFF00
FF800007FFFFFF00
FF800007FFFFFF00
FF800007FFFFFE00
FF800007FFFFFC00
FF800007F8000000
FF800007F8000000
FF800007F8000000
7FC00007F8000000
7FC0000FF8000000
7FC0000FF8000000
7FE0000FF8000000
3FE0001FF8000000
3FF0001FF8000000
3FF8003FF8000000
1FFC00FFF8000000
0FFF03FFFFFFFE00
0FFFFFFFFFFFFF80
07FFFFFBFFFFFFC0
03FFFFFBFFFFFFC0
01FFFFF3FFFFFFC0
00FFFFC3FFFFFFC0
003FFF81FFFFFFC0
0007FC00FFFFFF00
ENDCHAR
STARTCHAR $0153
ENCODING 339
SWIDTH 950 0
DWIDTH 57 0
BBX 53 32 2 0
BITMAP
001FE0003FC000
00FFFC01FFF800
03FFFF07FFFE00
07FFFF8FFFFF00
0FFFFFDFFFFF80
1FFFFFFFFFFFC0
1FF83FFFE07FE0
3FE00FFF801FE0
7FC007FF801FF0
7FC007FF000FF0
7F8003FF000FF8
FF8003FE0007F8
FF8001FE0007F8
FF0001FE0007F8
FF0001FFFFFFF8
FF0001FFFFFFF8
FF0001FFFFFFF8
FF0001FFFFFFF0
FF0001FFFFFFC0
FF0001FE000000
7F0003FE000000
7F8003FE000000
7F8007FF0000F0
3FC007FF0001F0
3FE00FFF8007F0
1FF83FFFE00FF0
1FFFFFFFFDFFF0
0FFFFFDFFFFFE0
07FFFF8FFFFFC0
01FFFF03FFFF80
00FFFC01FFFE00
001FF0003FF000
ENDCHAR
STARTCHAR $0160
ENCODING 352
SWIDTH 666 0
DWIDTH 40 0
BBX 34 54 3 0
BITMAP
00F803E000
007C07C000
003E0FC000
003F1F8000
001FBF0000
000FFE0000
0007FC0000
0003F80000
0000000000
0000000000
0000000000
000FFC0000
00FFFF8000
03FFFFE000
07FFFFF800
0FFFFFFC00
1FFFFFFE00
3FF80FFE00
3FE003FF00
7FC001FF00
7F8000FF00
7F80007F00
7F80007F00
7F80003F00
7FC0001E00
7FE0000000
3FFC000000
3FFF800000
1FFFF80000
1FFFFF8000
0FFFFFE000
03FFFFF800
00FFFFFC00
003FFFFE00
0007FFFF00
00007FFF80
000007FF80
000001FFC0
3800007FC0
7E00007FC0
FE00003FC0
FF00003FC0
FF00003FC0
FF80003FC0
7F80007FC0
7FC000FF80
7FE001FF80
3FF807FF00
1FFFFFFE00
0FFFFFFC00
07FFFFF800
03FFFFF000
00FFFFC000
000FFC0000
ENDCHAR
STARTCHAR $0161
ENCODING 353
SWIDTH 550 0
DWIDTH 33 0
BBX 27 43 3 0
BITMAP
1F007C00
0F80F800
07C1F800
07E3F000
03F7E000
01FFC000
00FF8000
007F0000
00000000
00000000
00000000
00FF8000
07FFF000
0FFFFC00
3FFFFE00
7FFFFF00
7FC1FF80
FF807F80
FF003F80
FF003F80
FF000F00
FF800000
FFE00000
7FFE0000
7FFFE000
3FFFF800
0FFFFE00
03FFFF00
00FFFF80
000FFFC0
0001FFE0
00003FE0
7C003FE0
FC001FE0
FE001FE0
FF001FE0
FF803FC0
FFE07FC0
7FFFFF80
3FFFFF00
1FFFFE00
07FFF800
00FFC000
ENDCHAR
STARTCHAR $0178
ENCODING 376
SWIDTH 633 0
DWIDTH 38 0
BBX 34 53 2 0
BITMAP
001C038000
007F0FE000
007F0FE000
007F0FE000
007F0FE000
001C03C000
0000000000
0000000000
0000000000
0000000000
3C00000F00
7E00001F80
FF00003FC0
FF80003FC0
FF80007FC0
7FC000FFC0
7FE000FF80
3FE001FF80
3FF001FF00
1FF003FE00
0FF807FE00
0FFC07FC00
07FC0FF800
03FE1FF800
03FF1FF000
01FF3FE000
00FFFFE000
00FFFFC000
007FFF8000
003FFF8000
003FFF0000
001FFE0000
000FFC0000
000FFC0000
0007F80000
0007F80000
0007F80000
0007F80000
0007F80000
0007F80000
0007F80000
0007F80000
0007F80000
0007F80000
0007F80000
0007F80000
0007F80000
0007F80000
0007F80000
0007F80000
0007F80000
0003F00000
0001E00000
ENDCHAR
STARTCHAR $0192
ENCODING 402
SWIDTH 600 0
DWIDTH 36 0
BBX 36 55 -1 -12
BITMAP
000000FF00
000003FFE0
00000FFFE0
00000FFFF0
00001FFFF0
00001FFFE0
00003FE080
00003FC000
00003F8000
00007F8000
00007F8000
00007F0000
00007F0000
00007F0000
00007F0000
0000FF0000
0000FF0000
0000FE0000
0000FE0000
0000FE0000
001FFFF000
007FFFF800
007FFFF800
007FFFF800
007FFFF800
003FFFE000
0003FC0000
0003FC0000
0003F80000
0003F80000
0003F80000
0003F80000
0007F80000
0007F80000
0007F00000
0007F00000
0007F00000
000FF00000
000FF00000
000FF00000
000FE00000
000FE00000
000FE00000
001FE00000
001FE00000
001FC00000
001FC00000
003FC00000
107FC00000
7FFF800000
FFFF800000
FFFF000000
7FFE000000
7FFC000000
0FF0000000
ENDCHAR
STARTCHAR $02C6
ENCODING 710
SWIDTH 333 0
DWIDTH 20 0
BBX 19 8 1 35
BITMAP
03F800
07FC00
0FFE00
1FBF00
3F1F80
7E0F80
7C07C0
F803E0
ENDCHAR
STARTCHAR $02C7
ENCODING 711
SWIDTH 333 0
DWIDTH 20 0
BBX 19 8 1 35
BITMAP
F803E0
7C07C0
3E0FC0
3F1F80
1FBF00
0FFE00
07FC00
03F800
ENDCHAR
STARTCHAR $02C9
ENCODING 713
SWIDTH 333 0
DWIDTH 20 0
BBX 22 4 -1 37
BITMAP
FFFFFC
FFFFFC
FFFFFC
FFFFFC
ENDCHAR
STARTCHAR $02D8
ENCODING 728
SWIDTH 333 0
DWIDTH 20 0
BBX 18 10 1 35
BITMAP
600180
E001C0
F003C0
F003C0
780780
7C0F80
3FFF00
1FFE00
0FFC00
03F000
ENDCHAR
STARTCHAR $02D9
ENCODING 729
SWIDTH 333 0
DWIDTH 20 0
BBX 7 6 7 36
BITMAP
38
FC
FE
FE
FE
7C
ENDCHAR
STARTCHAR $02DA
ENCODING 730
SWIDTH 333 0
DWIDTH 20 0
BBX 12 12 4 34
BITMAP
0F00
3FC0
7FE0
70E0
E070
E070
E070
E070
70E0
7FE0
3FC0
0F00
ENDCHAR
STARTCHAR $02DB
ENCODING 731
SWIDTH 333 0
DWIDTH 20 0
BBX 15 13 3 -11
BITMAP
0700
1F00
3F80
3F00
7E00
FC00
FC00
FC3C
FFFE
FFFE
7FFC
3FF8
0FE0
ENDCHAR
STARTCHAR $02DC
ENCODING 732
SWIDTH 333 0
DWIDTH 20 0
BBX 20 10 0 34
BITMAP
000020
1F0070
3FC070
7FF0F0
7FFFF0
FFFFE0
F0FFE0
E03FC0
E00F80
400000
ENDCHAR
STARTCHAR $02DD
ENCODING 733
SWIDTH 333 0
DWIDTH 20 0
BBX 22 8 3 35
BITMAP
0FF3FC
1FE7F8
3FC7F0
3F8FE0
7F0FC0
7E1F80
FC3F00
F03C00
ENDCHAR
STARTCHAR $03C0
ENCODING 960
SWIDTH 550 0
DWIDTH 33 0
BBX 31 30 1 -1
BITMAP
03FFFFFE
0FFFFFFE
1FFFFFFE
3FFFFFFE
3FFFFFFE
70F01E00
40F01E00
C0F01E00
80F01E00
01F03E00
01E03E00
01E03C00
01E03C00
01E03C00
01E03C00
01E03C00
01E03C00
01E03C00
03C03C00
03C03C00
03C03C02
03C03E02
07C03E06
0F803F06
0F803F8C
1F801FFC
1F801FF8
1F800FF0
1F0007E0
0E000180
ENDCHAR
STARTCHAR uni0400
ENCODING 1024
SWIDTH 1000 0
DWIDTH 40 0
BBX 32 56 5 0
BITMAP
00F00000
00F80000
00FC0000
007E0000
003F0000
001F8000
000FC000
0007E000
0003E000
0001E000
00000000
00000000
00000000
3FFFFFFC
7FFFFFFE
FFFFFFFF
FFFFFFFF
FFFFFFFF
FFFFFFFE
FFFFFFFC
FF000000
FF000000
FF000000
FF000000
FF000000
FF000000
FF000000
FF000000
FF000000
FF000000
FF000000
FFFFFFF8
FFFFFFFC
FFFFFFFC
FFFFFFFC
FFFFFFFC
FFFFFFF8
FF000000
FF000000
FF000000
FF000000
FF000000
FF000000
FF000000
FF000000
FF000000
FF000000
FF000000
FF000000
FFFFFFFE
FFFFFFFF
FFFFFFFF
FFFFFFFF
FFFFFFFF
7FFFFFFF
3FFFFFFE
ENDCHAR
STARTCHAR uni0401
ENCODING 1025
SWIDTH 1000 0
DWIDTH 40 0
BBX 23 56 9 0
BITMAP
0E0070
1F00F8
1F00F8
1F00F8
1F00F8
0E0070
000000
000000
000000
000000
000000
7FFFFC
FFFFFE
FFFFFE
FFFFFE
FFFFFC
F80000
F80000
F80000
F80000
F80000
F80000
F80000
F80000
F80000
F80000
F80000
F80000
F80000
FFFFC0
FFFFC0
FFFFC0
FFFFC0
FFFFC0
F80000
F80000
F80000
F80000
F80000
F80000
F80000
F80000
F80000
F80000
F80000
F80000
F80000
F80000
F80000
F80000
F80000
FFFFFC
FFFFFE
FFFFFE
FFFFFE
7FFFFC
ENDCHAR
STARTCHAR uni0402
ENCODING 1026
SWIDTH 1000 0
DWIDTH 38 0
BBX 39 43 0 0
BITMAP
3FFFFFFFC0
7FFFFFFFE0
FFFFFFFFF0
FFFFFFFFF0
FFFFFFFFF0
7FFFFFFFE0
3FFFFFFFC0
0003FC0000
0003FC0000
0003FC0000
0003FC0000
0003FC0000
0003FC0000
0003FC0000
0003FC0000
0003FC0000
0003FC0000
0003FC0000
0003FC0000
0003FC0000
0003FC0000
0003FC0000
0003FDFE00
0003FFFFC0
0003FFFFF0
0003FFFFF8
0003FFFFF8
0003FFFFF8
0003FF03FC
0003FE00FC
0003FC00FE
0003FC007E
0003FC007E
0003FC007E
0003FC007E
0003FC007E
0003FC00FE
0003FC00FC
0003FC01FC
0003FC3FF8
0003FC7FF8
0001F87FF0
0000F03FE0
ENDCHAR
STARTCHAR uni0403
ENCODING 1027
SWIDTH 1000 0
DWIDTH 43 0
BBX 34 55 5 0
BITMAP
0001C00000
0003C00000
0007C00000
000F800000
001F000000
003E000000
007C000000
00F8000000
00F0000000
00E0000000
0000000000
0000000000
1FFFFFFF00
7FFFFFFF80
7FFFFFFFC0
FFFFFFFFC0
FFFFFFFF80
FFFFFFFF00
FF00000000
FF00000000
FF00000000
FF00000000
FF00000000
FF00000000
FF00000000
FF00000000
FF00000000
FF00000000
FF00000000
FF00000000
FF00000000
FF00000000
FF00000000
FF00000000
FF00000000
FF00000000
FF00000000
FF00000000
FF00000000
FF00000000
FF00000000
FF00000000
FF00000000
FF00000000
FF00000000
FF00000000
FF00000000
FF00000000
FF00000000
FF00000000
FF00000000
FF00000000
FF00000000
7E00000000
3C00000000
ENDCHAR
STARTCHAR uni0404
ENCODING 1028
SWIDTH 1000 0
DWIDTH 44 0
BBX 38 43 3 0
BITMAP
0000FF8000
0007FFF800
003FFFFE00
007FFFFF00
01FFFFFFC0
03FFFFFFE0
07FFFFFFF0
0FFF80FFF0
0FFE003FF8
1FFC000FFC
3FF00007FC
3FF00007FC
3FE00003FC
7FE00001FC
7FC00001FC
7FC00000F8
FFC0000000
FFC0000000
FFC0000000
FFE0000000
FFFFFFF000
FFFFFFF800
FFFFFFF800
FFFFFFF800
FFFFFFF000
FFE0000000
FFC00000F8
7FC00001FC
7FC00001FC
7FC00003FC
3FE00003FC
3FE00007FC
1FF00007FC
1FF8000FF8
0FFC003FF8
0FFF80FFF0
07FFFFFFF0
03FFFFFFE0
01FFFFFFC0
00FFFFFF80
003FFFFE00
000FFFF800
0000FFC000
ENDCHAR
STARTCHAR uni0405
ENCODING 1029
SWIDTH 1000 0
DWIDTH 40 0
BBX 34 43 3 0
BITMAP
000FFC0000
00FFFF8000
03FFFFE000
07FFFFF800
0FFFFFFC00
1FFFFFFE00
3FF80FFE00
3FE003FF00
7FC001FF00
7F8000FF00
7F80007F00
7F80007F00
7F80003F00
7FC0001E00
7FE0000000
3FFC000000
3FFF800000
1FFFF80000
1FFFFF8000
0FFFFFE000
03FFFFF800
00FFFFFC00
003FFFFE00
0007FFFF00
00007FFF80
000007FF80
000001FFC0
3800007FC0
7E00007FC0
FE00003FC0
FF00003FC0
FF00003FC0
FF80003FC0
7F80007FC0
7FC000FF80
7FE001FF80
3FF807FF00
1FFFFFFE00
0FFFFFFC00
07FFFFF800
03FFFFF000
00FFFFC000
000FFC0000
ENDCHAR
STARTCHAR uni0406
ENCODING 1030
SWIDTH 1000 0
DWIDTH 19 0
BBX 8 43 5 0
BITMAP
3C
7E
FF
FF
FF
FF
FF
FF
FF
FF
FF
FF
FF
FF
FF
FF
FF
FF
FF
FF
FF
FF
FF
FF
FF
FF
FF
FF
FF
FF
FF
FF
FF
FF
FF
FF
FF
FF
FF
FF
FF
7E
3C
ENDCHAR
STARTCHAR uni0407
ENCODING 1031
SWIDTH 1000 0
DWIDTH 19 0
BBX 18 53 -1 0
BITMAP
380700
FE1FC0
FE1FC0
FE1FC0
FE1FC0
380780
000000
000000
000000
000000
00F000
01F800
03FC00
03FC00
03FC00
03FC00
03FC00
03FC00
03FC00
03FC00
03FC00
03FC00
03FC00
03FC00
03FC00
03FC00
03FC00
03FC00
03FC00
03FC00
03FC00
03FC00
03FC00
03FC00
03FC00
03FC00
03FC00
03FC00
03FC00
03FC00
03FC00
03FC00
03FC00
03FC00
03FC00
03FC00
03FC00
03FC00
03FC00
03FC00
03FC00
01F800
00F000
ENDCHAR
STARTCHAR uni0408
ENCODING 1032
SWIDTH 1000 0
DWIDTH 34 0
BBX 28 43 1 0
BITMAP
000003C0
000007E0
00000FF0
00000FF0
00000FF0
00000FF0
00000FF0
00000FF0
00000FF0
00000FF0
00000FF0
00000FF0
00000FF0
00000FF0
00000FF0
00000FF0
00000FF0
00000FF0
00000FF0
00000FF0
00000FF0
00000FF0
00000FF0
00000FF0
00000FF0
00000FF0
3C000FF0
7E000FF0
FF000FF0
FF000FF0
FF000FF0
FF800FF0
FF801FF0
7F801FE0
7FC03FE0
7FE07FE0
3FFFFFC0
1FFFFFC0
1FFFFF80
0FFFFF00
07FFFE00
01FFFC00
003FE000
ENDCHAR
STARTCHAR uni0409
ENCODING 1033
SWIDTH 1000 0
DWIDTH 34 0
BBX 35 43 0 0
BITMAP
00FFF80000
01FFFC0000
03FFFE0000
03FFFF0000
03FFFF0000
03FFFF0000
03F03F0000
03F03F0000
03F03F0000
03F03F0000
03F03F0000
03F03F0000
03F03F0000
03F03F0000
03F03F0000
03F03F0000
03F03F0000
03F03F0000
03F03F0000
03F03F0000
03F03F0000
03F03F0000
03F03F0000
03F03FF800
03F03FFE00
03F03FFF00
03F03FFF80
03F03FFF80
03F03FFFC0
03F03F0FE0
03F03F07E0
03F03F03E0
07F03F03E0
07F03F03E0
0FF03F03E0
1FF03F03E0
7FE03F03E0
FFE03F07E0
FFC03F0FC0
FF003FFFC0
FE001FFF80
70000FFF80
000007FE00
ENDCHAR
STARTCHAR uni040A
ENCODING 1034
SWIDTH 1000 0
DWIDTH 34 0
BBX 31 43 2 0
BITMAP
30030000
78078000
FC07C000
FC07C000
FC07C000
FC07C000
FC07C000
FC07C000
FC07C000
FC07C000
FC07C000
FC07C000
FC07C000
FC07C000
FC07C000
FC07C000
FC07C000
FC07C000
FC07C000
FC07C000
FC07C000
FC07C000
FC07C000
FFFFFF80
FFFFFFE0
FFFFFFF0
FFFFFFF8
FFFFFFFC
FC07C0FC
FC07C07E
FC07C03E
FC07C03E
FC07C03E
FC07C03E
FC07C03E
FC07C03E
FC07C03E
FC07C07E
FC07C0FC
FC07FFFC
FC07FFF8
7803FFF0
3001FFC0
ENDCHAR
STARTCHAR uni040B
ENCODING 1035
SWIDTH 1000 0
DWIDTH 38 0
BBX 38 43 0 0
BITMAP
3FFFFFFFC0
7FFFFFFFE0
FFFFFFFFF0
FFFFFFFFF0
FFFFFFFFF0
7FFFFFFFE0
3FFFFFFFC0
0003FC0000
0003FC0000
0003FC0000
0003FC0000
0003FC0000
0003FC0000
0003FC0000
0003FC0000
0003FC0000
0003FC0000
0003FC0000
0003FC0000
0003FC0000
0003FC0000
0003FCFE00
0003FDFF80
0003FFFFC0
0003FFFFE0
0003FFFFF0
0003FFFFF8
0003FF0FF8
0003FE07FC
0003FC03FC
0003FC03FC
0003FC03FC
0003FC01FC
0003FC01FC
0003FC01FC
0003FC01FC
0003FC01FC
0003FC01FC
0003FC01FC
0003FC01FC
0003FC01FC
0001F800F8
0000F00070
ENDCHAR
STARTCHAR uni040C
ENCODING 1036
SWIDTH 1000 0
DWIDTH 44 0
BBX 39 53 3 0
BITMAP
00000E0000
00001E0000
00003E0000
00007C0000
0000F80000
0001F00000
0003E00000
0007C00000
000F800000
000F000000
3C0E0007F8
7E00001FFC
FF00007FFE
FF0000FFFE
FF0001FFFE
FF0003FFFC
FF0007FFF8
FF000FFF00
FF001FFC00
FF003FF800
FF007FF000
FF00FFE000
FF01FFC000
FF03FF8000
FF07FF0000
FF0FFE0000
FF1FFC0000
FF3FF80000
FF7FFC0000
FFFFFE0000
FFFFFF0000
FFFFFF0000
FFFFFF8000
FFFFFFC000
FFF8FFE000
FFF07FE000
FFE03FF000
FFC03FF800
FF801FF800
FF000FFC00
FF000FFE00
FF0007FF00
FF0003FF00
FF0003FF80
FF0001FFC0
FF0000FFC0
FF0000FFE0
FF00007FE0
FF00003FF0
FF00003FF0
FF00001FF0
7E00000FE0
3C000007C0
ENDCHAR
STARTCHAR uni040D
ENCODING 1037
SWIDTH 1000 0
DWIDTH 46 0
BBX 36 53 5 0
BITMAP
001C000000
001E000000
001F000000
000F800000
0007C00000
0003E00000
0001F00000
0000F80000
0000780000
0000380000
3E000003C0
7F000007E0
FF80000FF0
FFC0000FF0
FFE0000FF0
FFE0000FF0
FFF0000FF0
FFF8000FF0
FFF8000FF0
FFFC000FF0
FFFE000FF0
FFFE000FF0
FFFF000FF0
FFFF800FF0
FFFF800FF0
FF7FC00FF0
FF3FE00FF0
FF3FF00FF0
FF1FF00FF0
FF0FF80FF0
FF0FFC0FF0
FF07FC0FF0
FF03FE0FF0
FF01FF0FF0
FF01FF0FF0
FF00FF8FF0
FF007FCFF0
FF007FCFF0
FF003FEFF0
FF001FFFF0
FF001FFFF0
FF000FFFF0
FF0007FFF0
FF0007FFF0
FF0003FFF0
FF0001FFF0
FF0001FFF0
FF0000FFF0
FF00007FF0
FF00007FF0
FF00003FF0
7E00001FE0
3C00000FC0
ENDCHAR
STARTCHAR uni040E
ENCODING 1038
SWIDTH 1000 0
DWIDTH 33 0
BBX 30 53 1 0
BITMAP
070001C0
078003C0
078003C0
03C00780
01F01F00
00FFFE00
003FFC00
000FF000
00000000
1E000070
3F0000F8
7F0001FC
7F8001FC
7F8003FC
7F8003FC
3FC003F8
3FC007F8
1FC007F0
1FE007F0
1FE00FF0
0FE00FE0
0FF00FE0
07F01FE0
07F01FC0
07F81FC0
03F83F80
03F83F80
03FC3F80
01FC7F00
01FC7F00
00FEFF00
00FEFE00
00FEFE00
007FFC00
007FFC00
003FFC00
003FF800
003FF800
001FF000
001FF000
000FF000
001FE000
001FE000
003FE000
003FC000
007FC000
00FF8000
7FFF8000
FFFF0000
FFFF0000
FFFE0000
7FF80000
1FE00000
ENDCHAR
STARTCHAR uni040F
ENCODING 1039
SWIDTH 1000 0
DWIDTH 43 0
BBX 29 45 7 -1
BITMAP
3C0001E0
7E0003F0
FF0007F8
FF0007F8
FF0007F8
FF0007F8
FF0007F8
FF0007F8
FF0007F8
FF0007F8
FF0007F8
FF0007F8
FF0007F8
FF0007F8
FF0007F8
FF0007F8
FF0007F8
FF0007F8
FF0007F8
FF0007F8
FF0007F8
FF0007F8
FF0007F8
FF0007F8
FF0007F8
FF0007F8
FF0007F8
FF0007F8
FF0007F8
FF0007F8
FF0007F8
FFFFFFF8
FFFFFFF8
FFFFFFF8
FFFFFFF8
FFFFFFF8
7FFFFFF0
3FFFFFE0
001FC000
001FC000
001FC000
001FC000
001FC000
001FC000
000F8000
ENDCHAR
STARTCHAR uni0410
ENCODING 1040
SWIDTH 1000 0
DWIDTH 43 0
BBX 31 45 6 0
BITMAP
00038000
00078000
0007C000
000FC000
000FC000
000FE000
001FE000
001FE000
001FF000
003FF000
003EF000
003EF800
007CF800
007C7800
007C7C00
00F87C00
00F83C00
00F83E00
01F03E00
01F01E00
01F01F00
03E01F00
03E00F00
03E00F80
07C00F80
07C00780
07C007C0
0F8007C0
0F8003C0
0FFFFFE0
1FFFFFE0
1FFFFFE0
1FFFFFF0
3FFFFFF0
3E0000F0
3E0000F8
7C0000F8
7C000078
7C00007C
F800007C
F800003C
F800003E
F000003E
F000001E
E000001C
ENDCHAR
STARTCHAR uni0411
ENCODING 1041
SWIDTH 1000 0
DWIDTH 43 0
BBX 26 45 10 0
BITMAP
7FFFF000
FFFFF800
FFFFF800
FFFFF800
FFFFF000
F8000000
F8000000
F8000000
F8000000
F8000000
F8000000
F8000000
F8000000
F8000000
F8000000
F8000000
F8000000
F8000000
FFFF8000
FFFFE000
FFFFF800
FFFFFC00
FFFFFE00
F800FF00
F8003F00
F8001F80
F8001F80
F8000F80
F8000FC0
F80007C0
F80007C0
F80007C0
F80007C0
F80007C0
F8000FC0
F8000F80
F8001F80
F8001F80
F8003F00
F800FE00
FFFFFE00
FFFFFC00
FFFFF800
FFFFE000
7FFF8000
ENDCHAR
STARTCHAR uni0412
ENCODING 1042
SWIDTH 1000 0
DWIDTH 43 0
BBX 29 45 7 1
BITMAP
7FFFC000
FFFFF000
FFFFFC00
FFFFFE00
FFFFFF00
F8007F00
F8001F80
F8000F80
F8000FC0
F80007C0
F80007C0
F80007C0
F80007C0
F80007C0
F8000FC0
F8000F80
F8001F80
F8007F00
FFFFFE00
FFFFFC00
FFFFFC00
FFFFFF00
FFFFFF80
F8003FC0
F8000FE0
F80007E0
F80003F0
F80001F0
F80001F8
F80000F8
F80000F8
F80000F8
F80000F8
F80000F8
F80001F8
F80001F0
F80003F0
F80007F0
F8000FE0
F8003FC0
FFFFFF80
FFFFFF00
FFFFFE00
FFFFF800
7FFFE000
ENDCHAR
STARTCHAR uni0413
ENCODING 1043
SWIDTH 1000 0
DWIDTH 43 0
BBX 23 45 10 1
BITMAP
7FFFFC
FFFFFE
FFFFFE
FFFFFE
FFFFFC
F80000
F80000
F80000
F80000
F80000
F80000
F80000
F80000
F80000
F80000
F80000
F80000
F80000
F80000
F80000
F80000
F80000
F80000
F80000
F80000
F80000
F80000
F80000
F80000
F80000
F80000
F80000
F80000
F80000
F80000
F80000
F80000
F80000
F80000
F80000
F80000
F80000
F80000
F80000
700000
ENDCHAR
STARTCHAR uni0414
ENCODING 1044
SWIDTH 1000 0
DWIDTH 43 0
BBX 33 52 5 -6
BITMAP
001FFFE000
003FFFF000
003FFFF000
003FFFF000
003FFFF000
007C01F000
007C01F000
007C01F000
007C01F000
007801F000
007801F000
007801F000
007801F000
00F801F000
00F801F000
00F801F000
00F801F000
00F001F000
00F001F000
00F001F000
00F001F000
01F001F000
01F001F000
01F001F000
01F001F000
01E001F000
01E001F000
01E001F000
01E001F000
03E001F000
03E001F000
03E001F000
03E001F000
03C001F000
03C001F000
03C001F000
03C001F000
07C001F000
07C001F000
07C001F000
07C001F000
7FFFFFFF00
FFFFFFFF80
FFFFFFFF80
FFFFFFFF80
FFFFFFFF80
F800000F80
F800000F80
F800000F80
F800000F80
F800000F80
7000000700
ENDCHAR
STARTCHAR uni0415
ENCODING 1045
SWIDTH 1000 0
DWIDTH 40 0
BBX 23 45 9 0
BITMAP
7FFFFC
FFFFFE
FFFFFE
FFFFFE
FFFFFC
F80000
F80000
F80000
F80000
F80000
F80000
F80000
F80000
F80000
F80000
F80000
F80000
F80000
FFFFC0
FFFFC0
FFFFE0
FFFFC0
FFFFC0
F80000
F80000
F80000
F80000
F80000
F80000
F80000
F80000
F80000
F80000
F80000
F80000
F80000
F80000
F80000
F80000
F80000
FFFFFC
FFFFFE
FFFFFE
FFFFFE
7FFFFC
ENDCHAR
STARTCHAR uni0416
ENCODING 1046
SWIDTH 1000 0
DWIDTH 36 0
BBX 37 45 -1 0
BITMAP
7000700070
F800F800F8
F800F800F8
7C00F801F0
7E00F803F0
3E00F803E0
1F00F807C0
1F80F80FC0
0F80F80F80
07C0F81F00
07E0F83F00
03E0F83E00
01F0F87C00
01F8F8FC00
00F8F8F800
007CF9F000
007EFBF000
003EFBE000
001FFFC000
001FFFC000
000FFF8000
0007FF0000
0007FF0000
0007FF0000
000FFF8000
001FFFC000
001FFFC000
003EFBE000
007EFBF000
007CF9F000
00F8F8F800
01F8F8FC00
01F0F87C00
03E0F83E00
07E0F83F00
07C0F81F00
0F80F80F80
1F80F80FC0
1F00F807C0
3E00F803E0
7E00F803F0
7C00F801F0
F800F800F8
F800F800F8
7000700070
ENDCHAR
STARTCHAR uni0417
ENCODING 1047
SWIDTH 1000 0
DWIDTH 36 0
BBX 25 45 5 0
BITMAP
01FF8000
1FFFE000
7FFFF000
FFFFFC00
FFFFFE00
FE00FE00
F0003F00
00001F00
00001F80
00000F80
00000F80
00000F80
00000F80
00000F80
00001F80
00001F00
00003F00
0000FE00
01FFFE00
01FFFC00
03FFF800
01FFFC00
01FFFE00
0000FE00
00003F00
00001F00
00001F80
00000F80
00000F80
00000F80
00000F80
00000F80
00000F80
00000F80
00000F80
00000F80
00001F80
00001F00
F0003F00
FE00FE00
FFFFFE00
FFFFFC00
7FFFF800
1FFFE000
01FF8000
ENDCHAR
STARTCHAR uni0418
ENCODING 1048
SWIDTH 1000 0
DWIDTH 46 0
BBX 26 45 10 0
BITMAP
70000380
F80007C0
F80007C0
F80007C0
F80007C0
F8000FC0
F8000FC0
F8001FC0
F8001FC0
F8003FC0
F8007FC0
F8007FC0
F800FFC0
F800FFC0
F801F7C0
F803E7C0
F803E7C0
F807C7C0
F807C7C0
F80F87C0
F81F87C0
F81F07C0
F83E07C0
F83E07C0
F87C07C0
F8FC07C0
F0F807C0
F1F807C0
F1F007C0
F3E007C0
F7E007C0
F7C007C0
FFC007C0
FF8007C0
FF0007C0
FF0007C0
FE0007C0
FE0007C0
FC0007C0
FC0007C0
F80007C0
F80007C0
F80007C0
F80007C0
70000380
ENDCHAR
STARTCHAR uni0419
ENCODING 1049
SWIDTH 1000 0
DWIDTH 46 0
BBX 26 54 10 0
BITMAP
01FFE000
03FFF000
03FFF000
03FFF000
01FFE000
00000000
00000000
00000000
00000000
70000380
F80007C0
F80007C0
F80007C0
F80007C0
F8000FC0
F8000FC0
F8001FC0
F8001FC0
F8003FC0
F8007FC0
F8007FC0
F800FFC0
F800FFC0
F801F7C0
F803E7C0
F803E7C0
F807C7C0
F807C7C0
F80F87C0
F81F87C0
F81F07C0
F83E07C0
F83E07C0
F87C07C0
F0FC07C0
F0F807C0
F1F007C0
F1F007C0
F3E007C0
F7E007C0
F7C007C0
FFC007C0
FF8007C0
FF0007C0
FF0007C0
FE0007C0
FE0007C0
FC0007C0
FC0007C0
F80007C0
F80007C0
F80007C0
F80007C0
70000380
ENDCHAR
STARTCHAR uni041A
ENCODING 1050
SWIDTH 1000 0
DWIDTH 44 0
BBX 28 45 9 0
BITMAP
700000E0
F80001E0
F80003F0
F80007E0
F8000FC0
F8001F80
F8003F00
F8007F00
F8007E00
F800FC00
F801F800
F803F000
F807E000
F80FC000
F81F8000
F83F0000
F87E0000
F8FC0000
F9FC0000
F9FE0000
FBFE0000
FFFF0000
FFDF8000
FF8F8000
FF07C000
FE07C000
FC03E000
F803E000
F801F000
F801F000
F800F800
F800FC00
F8007C00
F8003E00
F8003E00
F8001F00
F8001F00
F8000F80
F8000FC0
F80007C0
F80007E0
F80003E0
F80001F0
F80001E0
700000E0
ENDCHAR
STARTCHAR uni041B
ENCODING 1051
SWIDTH 1000 0
DWIDTH 43 0
BBX 28 45 7 0
BITMAP
0007FFE0
000FFFF0
000FFFF0
001FFFF0
001FFFF0
001F01F0
003E01F0
003E01F0
003E01F0
003C01F0
007C01F0
007C01F0
007C01F0
007801F0
00F801F0
00F801F0
00F001F0
01F001F0
01F001F0
01F001F0
01E001F0
03E001F0
03E001F0
03C001F0
07C001F0
07C001F0
07C001F0
078001F0
0F8001F0
0F8001F0
0F8001F0
1F0001F0
1F0001F0
1F0001F0
1E0001F0
3E0001F0
3E0001F0
3E0001F0
3C0001F0
7C0001F0
7C0001F0
780001F0
F80001F0
780001F0
700000E0
ENDCHAR
STARTCHAR uni041C
ENCODING 1052
SWIDTH 1000 0
DWIDTH 50 0
BBX 31 45 10 0
BITMAP
7000001C
F800003E
FC00007E
FC0000FE
FE0000FE
FF0001FE
FF0001FE
FF8003FE
FF8007FE
FFC007FE
FBE00FBE
FBE00FBE
F9F01F3E
F9F83F3E
F8F83E3E
F87C7C3E
F87C7C3E
F83EF83E
F83FF83E
F81FF03E
F80FE03E
F80FE03E
F807C03E
F803803E
F801003E
F800003E
F800003E
F800003E
F800003E
F800003E
F800003E
F800003E
F800003E
F800003E
F800003E
F800003E
F800003E
F800003E
F800003E
F800003E
F800003E
F800003E
F800003E
F800003E
7000001C
ENDCHAR
STARTCHAR uni041D
ENCODING 1053
SWIDTH 1000 0
DWIDTH 46 0
BBX 26 45 10 0
BITMAP
70000380
F80007C0
F80007C0
F80007C0
F80007C0
F80007C0
F80007C0
F80007C0
F80007C0
F80007C0
F80007C0
F80007C0
F80007C0
F80007C0
F80007C0
F80007C0
F80007C0
F80007C0
FFFFFFC0
FFFFFFC0
FFFFFFC0
FFFFFFC0
FFFFFFC0
F80007C0
F80007C0
F80007C0
F80007C0
F80007C0
F80007C0
F80007C0
F80007C0
F80007C0
F80007C0
F80007C0
F80007C0
F80007C0
F80007C0
F80007C0
F80007C0
F80007C0
F80007C0
F80007C0
F80007C0
F80007C0
70000380
ENDCHAR
STARTCHAR uni041E
ENCODING 1054
SWIDTH 1000 0
DWIDTH 48 0
BBX 26 45 11 0
BITMAP
007F8000
01FFE000
07FFF800
0FFFFC00
1FFFFE00
3FC0FE00
3F007F00
7E001F80
7E001F80
7C000F80
FC000FC0
F80007C0
F80007C0
F80007C0
F80007C0
F80007C0
F80007C0
F80007C0
F80007C0
F80007C0
F80007C0
F80007C0
F80007C0
F80007C0
F80007C0
F80007C0
F80007C0
F80007C0
F80007C0
F80007C0
F80007C0
F80007C0
F80007C0
F80007C0
FC000FC0
7C000F80
7E001F80
7E001F80
3F003F00
3FC0FE00
1FFFFE00
0FFFFC00
07FFF800
01FFE000
007F8000
ENDCHAR
STARTCHAR uni041F
ENCODING 1055
SWIDTH 1000 0
DWIDTH 43 0
BBX 26 45 9 0
BITMAP
7FFFFF80
FFFFFFC0
FFFFFFC0
FFFFFFC0
FFFFFFC0
F80007C0
F80007C0
F80007C0
F80007C0
F80007C0
F80007C0
F80007C0
F80007C0
F80007C0
F80007C0
F80007C0
F80007C0
F80007C0
F80007C0
F80007C0
F80007C0
F80007C0
F80007C0
F80007C0
F80007C0
F80007C0
F80007C0
F80007C0
F80007C0
F80007C0
F80007C0
F80007C0
F80007C0
F80007C0
F80007C0
F80007C0
F80007C0
F80007C0
F80007C0
F80007C0
F80007C0
F80007C0
F80007C0
F80007C0
70000380
ENDCHAR
STARTCHAR uni0420
ENCODING 1056
SWIDTH 1000 0
DWIDTH 40 0
BBX 26 45 7 0
BITMAP
7FFF8000
FFFFE000
FFFFF800
FFFFFC00
FFFFFE00
F800FE00
F8003F00
F8001F80
F8001F80
F8000F80
F8000FC0
F80007C0
F80007C0
F80007C0
F80007C0
F80007C0
F8000FC0
F8000FC0
F8001F80
F8001F80
F8003F00
F800FF00
FFFFFE00
FFFFFC00
FFFFF800
FFFFF000
FFFF8000
F8000000
F8000000
F8000000
F8000000
F8000000
F8000000
F8000000
F8000000
F8000000
F8000000
F8000000
F8000000
F8000000
F8000000
F8000000
F8000000
F8000000
70000000
ENDCHAR
STARTCHAR uni0421
ENCODING 1057
SWIDTH 1000 0
DWIDTH 44 0
BBX 23 45 10 0
BITMAP
00FFFC
03FFFE
0FFFFE
1FFFFE
3FFFFC
3F8000
7E0000
7C0000
FC0000
F80000
F80000
F80000
F80000
F80000
F80000
F80000
F80000
F80000
F80000
F80000
F80000
F80000
F80000
F80000
F80000
F80000
F80000
F80000
F80000
F80000
F80000
F80000
F80000
F80000
F80000
F80000
FC0000
7C0000
7E0000
3F8000
3FFFFC
1FFFFE
0FFFFE
03FFFE
00FFFC
ENDCHAR
STARTCHAR uni0422
ENCODING 1058
SWIDTH 1000 0
DWIDTH 38 0
BBX 27 45 5 0
BITMAP
FFFFFFE0
FFFFFFE0
FFFFFFE0
FFFFFFE0
FFFFFFE0
001F0000
001F0000
001F0000
001F0000
001F0000
001F0000
001F0000
001F0000
001F0000
001F0000
001F0000
001F0000
001F0000
001F0000
001F0000
001F0000
001F0000
001F0000
001F0000
001F0000
001F0000
001F0000
001F0000
001F0000
001F0000
001F0000
001F0000
001F0000
001F0000
001F0000
001F0000
001F0000
001F0000
001F0000
001F0000
001F0000
001F0000
001F0000
001F0000
000E0000
ENDCHAR
STARTCHAR uni0423
ENCODING 1059
SWIDTH 1000 0
DWIDTH 33 0
BBX 26 45 3 0
BITMAP
70000380
F80007C0
F80007C0
F80007C0
F80007C0
F80007C0
F80007C0
F80007C0
F80007C0
F80007C0
F80007C0
F80007C0
F80007C0
F80007C0
F80007C0
F80007C0
F80007C0
F80007C0
FC0007C0
7C0007C0
7E0007C0
7F8007C0
3FFFFFC0
1FFFFFC0
0FFFFFC0
07FFFFC0
01FFFFC0
000007C0
000007C0
000007C0
000007C0
000007C0
000007C0
000007C0
000007C0
000007C0
000007C0
000007C0
00000FC0
00001F80
03FFFF80
07FFFF00
07FFFE00
07FFFC00
03FFF000
ENDCHAR
STARTCHAR uni0424
ENCODING 1060
SWIDTH 1000 0
DWIDTH 36 0
BBX 37 45 0 0
BITMAP
0000700000
0000F80000
0000F80000
0000F80000
0000F80000
0000F80000
003FFFE000
01FFFFFC00
03FFFFFE00
07FFFFFF00
0FFFFFFF80
1FE0F83FC0
3F80F80FE0
7F00F807F0
7E00F803F0
7C00F801F0
FC00F801F8
F800F800F8
F800F800F8
F800F800F8
F800F800F8
F800F800F8
F800F800F8
F800F800F8
F800F800F8
FC00F801F8
7C00F801F0
7E00F803F0
7F00F807F0
3F80F80FE0
1FE0F83FC0
0FFFFFFF80
07FFFFFF00
03FFFFFE00
01FFFFFC00
003FFFE000
0000F80000
0000F80000
0000F80000
0000F80000
0000F80000
0000F80000
0000F80000
0000F80000
0000700000
ENDCHAR
STARTCHAR uni0425
ENCODING 1061
SWIDTH 1000 0
DWIDTH 36 0
BBX 31 45 2 0
BITMAP
E000001C
F000001E
F800003E
F800007E
7C00007C
7E0000F8
3E0001F8
1F0001F0
1F8003E0
0F8007E0
07C007C0
07E00F80
03E01F80
01F01F00
01F83E00
00F87E00
007C7C00
007EF800
003FF800
001FF000
001FE000
000FE000
0007C000
000FE000
001FE000
001FF000
003FF800
007EF800
007C7C00
00F87E00
01F83E00
01F01F00
03E01F80
07E00F80
07C007C0
0F8007E0
1F8003E0
1F0001F0
3E0001F8
7E0000F8
7C00007C
F800007E
F800003E
F000001E
E000001C
ENDCHAR
STARTCHAR uni0426
ENCODING 1062
SWIDTH 1000 0
DWIDTH 43 0
BBX 33 54 6 -9
BITMAP
700000E000
F80001F000
F80001F000
F80001F000
F80001F000
F80001F000
F80001F000
F80001F000
F80001F000
F80001F000
F80001F000
F80001F000
F80001F000
F80001F000
F80001F000
F80001F000
F80001F000
F80001F000
F80001F000
F80001F000
F80001F000
F80001F000
F80001F000
F80001F000
F80001F000
F80001F000
F80001F000
F80001F000
F80001F000
F80001F000
F80001F000
F80001F000
F80001F000
F80001F000
F80001F000
F80001F000
F80001F000
F80001F000
F80001F000
F80001F000
FFFFFFFF00
FFFFFFFF80
FFFFFFFF80
FFFFFFFF80
7FFFFFFF80
0000000F80
0000000F80
0000000F80
0000000F80
0000000F80
0000000F80
0000000F80
0000000F80
0000000700
ENDCHAR
STARTCHAR uni0427
ENCODING 1063
SWIDTH 1000 0
DWIDTH 36 0
BBX 26 45 5 0
BITMAP
70000380
F80007C0
F80007C0
F80007C0
F80007C0
F80007C0
F80007C0
F80007C0
F80007C0
F80007C0
F80007C0
F80007C0
F80007C0
F80007C0
F80007C0
F80007C0
F80007C0
F80007C0
FC0007C0
7C0007C0
7E0007C0
7F8007C0
3FFFFFC0
1FFFFFC0
0FFFFFC0
07FFFFC0
01FFFFC0
000007C0
000007C0
000007C0
000007C0
000007C0
000007C0
000007C0
000007C0
000007C0
000007C0
000007C0
000007C0
000007C0
000007C0
000007C0
000007C0
000007C0
00000380
ENDCHAR
STARTCHAR uni0428
ENCODING 1064
SWIDTH 1000 0
DWIDTH 19 0
BBX 37 45 -9 0
BITMAP
7000700070
F800F800F8
F800F800F8
F800F800F8
F800F800F8
F800F800F8
F800F800F8
F800F800F8
F800F800F8
F800F800F8
F800F800F8
F800F800F8
F800F800F8
F800F800F8
F800F800F8
F800F800F8
F800F800F8
F800F800F8
F800F800F8
F800F800F8
F800F800F8
F800F800F8
F800F800F8
F800F800F8
F800F800F8
F800F800F8
F800F800F8
F800F800F8
F800F800F8
F800F800F8
F800F800F8
F800F800F8
F800F800F8
F800F800F8
F800F800F8
F800F800F8
F800F800F8
F800F800F8
F800F800F8
F800F800F8
FFFFFFFFF8
FFFFFFFFF8
FFFFFFFFF8
FFFFFFFFF8
7FFFFFFFF0
ENDCHAR
STARTCHAR uni0429
ENCODING 1065
SWIDTH 1000 0
DWIDTH 19 0
BBX 42 54 -9 -9
BITMAP
700070007000
F800F800F800
F800F800F800
F800F800F800
F800F800F800
F800F800F800
F800F800F800
F800F800F800
F800F800F800
F800F800F800
F800F800F800
F800F800F800
F800F800F800
F800F800F800
F800F800F800
F800F800F800
F800F800F800
F800F800F800
F800F800F800
F800F800F800
F800F800F800
F800F800F800
F800F800F800
F800F800F800
F800F800F800
F800F800F800
F800F800F800
F800F800F800
F800F800F800
F800F800F800
F800F800F800
F800F800F800
F800F800F800
F800F800F800
F800F800F800
F800F800F800
F800F800F800
F800F800F800
F800F800F800
F800F800F800
FFFFFFFFFF80
FFFFFFFFFFC0
FFFFFFFFFFC0
FFFFFFFFFFC0
7FFFFFFFFFC0
0000000007C0
0000000007C0
0000000007C0
0000000007C0
0000000007C0
0000000007C0
0000000007C0
0000000007C0
000000000380
ENDCHAR
STARTCHAR uni042A
ENCODING 1066
SWIDTH 1000 0
DWIDTH 38 0
BBX 35 45 1 0
BITMAP
7FF8000000
FFFC000000
FFFC000000
FFFC000000
7FFC000000
007C000000
007C000000
007C000000
007C000000
007C000000
007C000000
007C000000
007C000000
007C000000
007C000000
007C000000
007C000000
007C000000
007FFFC000
007FFFF800
007FFFFC00
007FFFFE00
007FFFFF00
007C007F80
007C001F80
007C000FC0
007C000FC0
007C0007E0
007C0007E0
007C0003E0
007C0003E0
007C0003E0
007C0003E0
007C0003E0
007C0007E0
007C0007C0
007C000FC0
007C000FC0
007C001F80
007C007F00
007FFFFF00
007FFFFE00
007FFFFC00
007FFFF000
003FFFC000
ENDCHAR
STARTCHAR uni042B
ENCODING 1067
SWIDTH 1000 0
DWIDTH 38 0
BBX 32 45 3 0
BITMAP
7000000E
F800001F
F800001F
F800001F
F800001F
F800001F
F800001F
F800001F
F800001F
F800001F
F800001F
F800001F
F800001F
F800001F
F800001F
F800001F
F800001F
F800001F
FFF8001F
FFFF001F
FFFFC01F
FFFFE01F
FFFFF01F
F80FF81F
F803F81F
F800FC1F
F800FC1F
F8007C1F
F8007E1F
F8003E1F
F8003E1F
F8003E1F
F8003E1F
F8003E1F
F8007E1F
F8007C1F
F800FC1F
F800FC1F
F803F81F
F80FF01F
FFFFF01F
FFFFC01F
FFFF801F
FFFF001F
7FF8000E
ENDCHAR
STARTCHAR uni042C
ENCODING 1068
SWIDTH 1000 0
DWIDTH 38 0
BBX 26 45 6 0
BITMAP
70000000
F8000000
F8000000
F8000000
F8000000
F8000000
F8000000
F8000000
F8000000
F8000000
F8000000
F8000000
F8000000
F8000000
F8000000
F8000000
F8000000
F8000000
FFFF8000
FFFFF000
FFFFF800
FFFFFC00
FFFFFE00
F800FF00
F8003F00
F8001F80
F8001F80
F8000FC0
F8000FC0
F80007C0
F80007C0
F80007C0
F80007C0
F80007C0
F8000FC0
F8000F80
F8001F80
F8001F80
F8003F00
F800FE00
FFFFFE00
FFFFFC00
FFFFF800
FFFFE000
7FFF8000
ENDCHAR
STARTCHAR uni042D
ENCODING 1069
SWIDTH 1000 0
DWIDTH 44 0
BBX 28 45 8 0
BITMAP
7FFFF000
7FFFFC00
FFFFFF00
7FFFFF80
7FFFFFC0
00001FC0
000007E0
000003E0
000003F0
000001F0
000001F0
000001F0
000001F0
000001F0
000001F0
000001F0
000001F0
000001F0
003FFFF0
003FFFF0
007FFFF0
003FFFF0
003FFFF0
000001F0
000001F0
000001F0
000001F0
000001F0
000001F0
000001F0
000001F0
000001F0
000001F0
000001F0
000001F0
000001F0
000003F0
000003E0
000007E0
00001FC0
7FFFFFC0
7FFFFF80
FFFFFF00
7FFFFC00
7FFFF000
ENDCHAR
STARTCHAR uni042E
ENCODING 1070
SWIDTH 1000 0
DWIDTH 36 0
BBX 35 45 1 0
BITMAP
70000FE000
F8007FFC00
F800FFFE00
F801FFFF00
F803F83F80
F807E00FC0
F807C007C0
F80FC007C0
F80F8003E0
F80F8003E0
F80F8003E0
F80F8003E0
F80F8003E0
F80F8003E0
F80F8003E0
F80F8003E0
F80F8003E0
F80F8003E0
F80F8003E0
F80F8003E0
FFFF8003E0
FFFF8003E0
FFFF8003E0
FFFF8003E0
FFFF8003E0
F80F8003E0
F80F8003E0
F80F8003E0
F80F8003E0
F80F8003E0
F80F8003E0
F80F8003E0
F80F8003E0
F80F8003E0
F80F8003E0
F80F8003E0
F80FC007E0
F80FC007E0
F807E00FC0
F807F83FC0
F803FFFF80
F801FFFF00
F800FFFE00
F8007FFC00
70000FE000
ENDCHAR
STARTCHAR uni042F
ENCODING 1071
SWIDTH 1000 0
DWIDTH 43 0
BBX 26 45 8 0
BITMAP
007FFF80
01FFFFC0
07FFFFC0
0FFFFFC0
1FFFFFC0
3FC007C0
3F0007C0
7E0007C0
7C0007C0
7C0007C0
F80007C0
F80007C0
F80007C0
F80007C0
F80007C0
F80007C0
F80007C0
FC0007C0
7C0007C0
7E0007C0
3F0007C0
3FC007C0
1FFFFFC0
0FFFFFC0
07FFFFC0
01FFFFC0
00FFFFC0
01F007C0
01F007C0
03E007C0
03E007C0
07C007C0
07C007C0
0FC007C0
0F8007C0
1F8007C0
1F0007C0
3F0007C0
3E0007C0
7E0007C0
7C0007C0
FC0007C0
FC0007C0
F80007C0
70000380
ENDCHAR
STARTCHAR uni0430
ENCODING 1072
SWIDTH 1000 0
DWIDTH 36 0
BBX 27 32 7 0
BITMAP
03FFF800
0FFFFC00
1FFFFC00
3FFFFC00
7FFFFC00
7E007C00
FC007C00
F8007C00
F8007C00
F8007C00
F8007C00
F8007C00
F8007C00
F8007C00
F8007C00
F8007C00
F8007C00
F8007C00
F8007C00
F8007C00
F8007C00
F8007C00
F8007C00
F8007C00
F8007C00
FC00FC00
7E01FC00
7FFFFF80
3FFFFFC0
1FFFFFC0
0FFFCFE0
03FF03C0
ENDCHAR
STARTCHAR uni0431
ENCODING 1073
SWIDTH 1000 0
DWIDTH 36 0
BBX 22 45 7 0
BITMAP
7FFFF8
FFFFFC
FFFFFC
FFFFFC
7FFFF8
3F0000
1F8000
0FC000
07E000
03F000
01F800
00F800
007C00
003E00
03FF00
0FFF80
1FFFC0
3FCFE0
3F03F0
7E01F0
7C00F8
FC00F8
F8007C
F8007C
F8007C
F8007C
F8007C
F8007C
F8007C
F8007C
F8007C
F8007C
F8007C
F8007C
F8007C
F8007C
FC00FC
7C00F8
7E01F8
7F87F8
3FFFF0
1FFFE0
0FFFC0
07FF80
00FC00
ENDCHAR
STARTCHAR uni0432
ENCODING 1074
SWIDTH 1000 0
DWIDTH 43 0
BBX 22 45 10 0
BITMAP
03E000
0FF800
1FFC00
3FFE00
7FBF00
7E0F00
FC0780
F80380
F80380
F80380
F80380
F80780
F80F00
F83F00
F9FF00
FFFF80
FFFFE0
FFCFE0
FF03F0
FE01F8
FC00F8
F8007C
F8007C
F8007C
F8007C
F8007C
F8007C
F8007C
F8007C
F8007C
F8007C
F8007C
F8007C
F8007C
F8007C
F8007C
FC00FC
7C00F8
7E01F8
7F87F8
3FFFF0
1FFFE0
0FFFC0
07FF80
00FC00
ENDCHAR
STARTCHAR uni0433
ENCODING 1075
SWIDTH 1000 0
DWIDTH 43 0
BBX 22 32 10 0
BITMAP
007F80
07FFE0
1FFFF0
3FFFF8
3FFFF8
3F00FC
3C007C
00007C
00003C
00007C
00007C
0001F8
0007F8
001FF0
007FC0
01FF00
07FC00
1FF000
3FC000
7F0000
FC0000
F80000
F00000
F00000
F00000
F8007C
FC07FC
FFFFFC
7FFFFC
3FFFF0
1FFFC0
07FC00
ENDCHAR
STARTCHAR uni0434
ENCODING 1076
SWIDTH 1000 0
DWIDTH 43 0
BBX 22 45 10 0
BITMAP
03FF00
07FFC0
07FFE0
07FFF0
03FFF8
0001F8
0000FC
00007C
00007C
00007C
00007C
00007C
00007C
03FFFC
0FFFFC
1FFFFC
3FFFFC
7FFFFC
7E007C
FC007C
F8007C
F8007C
F8007C
F8007C
F8007C
F8007C
F8007C
F8007C
F8007C
F8007C
F8007C
F8007C
F8007C
F8007C
F8007C
F8007C
F8007C
F8007C
FC00FC
7E01F8
7FFFF8
3FFFF0
1FFFE0
0FFFC0
03FF00
ENDCHAR
STARTCHAR uni0435
ENCODING 1077
SWIDTH 1000 0
DWIDTH 36 0
BBX 23 32 6 0
BITMAP
00FE00
03FF80
07FFE0
1FFFF0
3FFFF8
3F83F8
7E00FC
7C007C
FC003E
F8003E
F8003E
F8001E
F8001E
F8001E
FFFFFE
FFFFFE
FFFFFE
FFFFFE
FFFFFE
F80000
F80000
F80000
F80000
F80000
F80000
FC0000
7E0000
7FFFFC
3FFFFE
1FFFFE
0FFFFE
03FFFC
ENDCHAR
STARTCHAR uni0436
ENCODING 1078
SWIDTH 1000 0
DWIDTH 31 0
BBX 33 32 -1 0
BITMAP
7001C00700
7803E00F00
FC03E01F80
7C03E01F00
7E03E03F00
3F03E07E00
1F03E07C00
1F83E0FC00
0FC3E1F800
07C3E1F000
07E3E3F000
03F3E7E000
01F3E7C000
01FBEFC000
00FBFF8000
007FFF0000
007FFF0000
00FFEF8000
01FBEFC000
01F3E7C000
03F3E7E000
07E3E3F000
07C3E1F000
0FC3E1F800
1F83E0FC00
1F03E07C00
3F03E07E00
7E03E03F00
7C03E01F00
FC03E01F80
7803E00F00
7001C00700
ENDCHAR
STARTCHAR uni0437
ENCODING 1079
SWIDTH 1000 0
DWIDTH 36 0
BBX 21 32 7 0
BITMAP
03FE00
0FFF80
3FFFC0
7FFFE0
FFFFF0
FC03F0
7001F8
0000F8
0000F8
0000F8
0000F8
0000F8
0001F8
0003F0
00FFF0
01FFE0
01FFC0
01FFE0
00FFF0
0003F0
0001F8
0000F8
0000F8
0000F8
0000F8
7001F8
FC03F0
FFFFF0
7FFFE0
3FFFC0
1FFF80
03FE00
ENDCHAR
STARTCHAR uni0438
ENCODING 1080
SWIDTH 1000 0
DWIDTH 46 0
BBX 22 32 12 0
BITMAP
700038
F8007C
F8007C
F8007C
F8007C
F8007C
F8007C
F8007C
F8007C
F8007C
F8007C
F8007C
F8007C
F8007C
F8007C
F8007C
F8007C
F8007C
F8007C
F8007C
F8007C
F8007C
F8007C
F8007C
F8007C
FC007C
7E007C
7FFFFC
3FFFFC
1FFFFC
0FFFFC
03FFF8
ENDCHAR
STARTCHAR uni0439
ENCODING 1081
SWIDTH 1000 0
DWIDTH 46 0
BBX 22 45 12 0
BITMAP
03FF00
07FF80
07FF80
07FF80
03FF00
000000
000000
000000
000000
000000
000000
000000
000000
700038
F8007C
F8007C
F8007C
F8007C
F8007C
F8007C
F8007C
F8007C
F8007C
F8007C
F8007C
F8007C
F8007C
F8007C
F8007C
F8007C
F8007C
F8007C
F8007C
F8007C
F8007C
F8007C
F8007C
F8007C
FC007C
7E007C
7FFFFC
3FFFFC
1FFFFC
0FFFFC
03FFF8
ENDCHAR
STARTCHAR uni043A
ENCODING 1082
SWIDTH 1000 0
DWIDTH 44 0
BBX 23 32 11 0
BITMAP
70001C
F8003E
F8007E
F800FE
F801FC
F803F8
F807F0
F80FE0
F81FC0
F83F80
F87F00
F8FE00
F9FC00
F9F800
FBF800
FFFC00
FFFC00
FFFE00
FF3F00
FE1F00
FC1F80
F80FC0
F807C0
F803E0
F803F0
F801F8
F800F8
F800FC
F8007E
F8003E
F8001E
70001C
ENDCHAR
STARTCHAR uni043B
ENCODING 1083
SWIDTH 1000 0
DWIDTH 43 0
BBX 23 32 10 0
BITMAP
003FFC
007FFE
007FFE
00FFFE
00FFFE
00F83E
01F03E
01F03E
01F03E
03E03E
03E03E
03E03E
07C03E
07C03E
07C03E
0F803E
0F803E
0F803E
1F003E
1F003E
1F003E
3E003E
3E003E
3E003E
3C003E
7C003E
7C003E
78003E
F8003E
F8003E
F0003E
70001C
ENDCHAR
STARTCHAR uni043C
ENCODING 1084
SWIDTH 1000 0
DWIDTH 50 0
BBX 26 32 12 0
BITMAP
70000380
F80007C0
FC000FC0
FC000FC0
FE001FC0
FF003FC0
FF807FC0
FF807FC0
FFC0FFC0
FFE1FBC0
FBE1F3C0
F9F3F3C0
F8FFE3C0
F8FFC7C0
F87FC7C0
F83F87C0
F81F07C0
F81E07C0
F80E07C0
F80407C0
F80007C0
F80007C0
F80007C0
F80007C0
F80007C0
F80007C0
F80007C0
F80007C0
F80007C0
F80007C0
F80007C0
70000380
ENDCHAR
STARTCHAR uni043D
ENCODING 1085
SWIDTH 1000 0
DWIDTH 46 0
BBX 22 32 12 0
BITMAP
700038
F8007C
F8007C
F8007C
F8007C
F8007C
F8007C
F8007C
F8007C
F8007C
F8007C
F8007C
F8007C
F8007C
FFFFFC
FFFFFC
FFFFFC
FFFFFC
FFFFFC
F8007C
F8007C
F8007C
F8007C
F8007C
F8007C
F8007C
F8007C
F8007C
F8007C
F8007C
F8007C
700038
ENDCHAR
STARTCHAR uni043E
ENCODING 1086
SWIDTH 1000 0
DWIDTH 36 0
BBX 22 32 7 0
BITMAP
00FC00
07FF80
0FFFC0
1FFFE0
3FCFF0
3F03F0
7E01F8
7C00F8
FC00FC
F8007C
F8007C
F8007C
F8007C
F8007C
F8007C
F8007C
F8007C
F8007C
F8007C
F8007C
F8007C
F8007C
F8007C
FC00FC
7C00F8
7E01F8
3F87F0
3FFFF0
1FFFE0
0FFFC0
07FF80
00FC00
ENDCHAR
STARTCHAR uni043F
ENCODING 1087
SWIDTH 1000 0
DWIDTH 43 0
BBX 22 32 10 0
BITMAP
7FFF00
FFFFC0
FFFFE0
FFFFF0
FFFFF8
F801F8
F800FC
F8007C
F8007C
F8007C
F8007C
F8007C
F8007C
F8007C
F8007C
F8007C
F8007C
F8007C
F8007C
F8007C
F8007C
F8007C
F8007C
F8007C
F8007C
F8007C
F8007C
F8007C
F8007C
F8007C
F8007C
700038
ENDCHAR
STARTCHAR uni0440
ENCODING 1088
SWIDTH 1000 0
DWIDTH 38 0
BBX 22 46 8 -14
BITMAP
7FFF00
FFFFC0
FFFFE0
FFFFF0
FFFFF8
F801F8
F800FC
F8007C
F8007C
F8007C
F8007C
F8007C
F8007C
F8007C
F8007C
F8007C
F8007C
F8007C
F8007C
F8007C
F8007C
F8007C
F8007C
F8007C
F8007C
F800FC
F801F8
FFFFF8
FFFFF0
FFFFE0
FFFFC0
FFFF00
F80000
F80000
F80000
F80000
F80000
F80000
F80000
F80000
F80000
F80000
F80000
F80000
F80000
700000
ENDCHAR
STARTCHAR uni0441
ENCODING 1089
SWIDTH 1000 0
DWIDTH 36 0
BBX 19 32 8 0
BITMAP
03FFC0
0FFFC0
1FFFE0
3FFFC0
7FFFC0
7E0000
FC0000
F80000
F80000
F80000
F80000
F80000
F80000
F80000
F80000
F80000
F80000
F80000
F80000
F80000
F80000
F80000
F80000
F80000
F80000
FC0000
7E0000
7FFFC0
3FFFC0
1FFFE0
0FFFC0
03FFC0
ENDCHAR
STARTCHAR uni0442
ENCODING 1090
SWIDTH 1000 0
DWIDTH 38 0
BBX 27 32 5 0
BITMAP
7FFFFFC0
FFFFFFE0
FFFFFFE0
FFFFFFE0
7FFFFFC0
001F0000
001F0000
001F0000
001F0000
001F0000
001F0000
001F0000
001F0000
001F0000
001F0000
001F0000
001F0000
001F0000
001F0000
001F0000
001F0000
001F0000
001F0000
001F0000
001F0000
001F0000
001F0000
001F0000
001F0000
001F0000
001F0000
000E0000
ENDCHAR
STARTCHAR uni0443
ENCODING 1091
SWIDTH 1000 0
DWIDTH 33 0
BBX 22 46 5 -14
BITMAP
700038
F8007C
F8007C
F8007C
F8007C
F8007C
F8007C
F8007C
F8007C
F8007C
F8007C
F8007C
F8007C
F8007C
F8007C
F8007C
F8007C
F8007C
F8007C
F8007C
F8007C
F8007C
F8007C
F8007C
F8007C
FC007C
7E007C
7FFFFC
3FFFFC
1FFFFC
0FFFFC
03FFFC
00007C
00007C
00007C
00007C
00007C
00007C
00007C
0000FC
0001F8
0FFFF8
1FFFF0
1FFFE0
1FFFC0
1FFF00
ENDCHAR
STARTCHAR uni0444
ENCODING 1092
SWIDTH 1000 0
DWIDTH 36 0
BBX 33 55 1 -14
BITMAP
0001C00000
0003E00000
0003E00000
0003E00000
0003E00000
0003E00000
0003E00000
0003E00000
0003E00000
00FFFF8000
03FFFFE000
0FFFFFF800
1FFFFFFC00
3FFFFFFE00
3F83E0FE00
7E03E07F00
7C03E01F00
FC03E01F80
F803E00F80
F803E00F80
F803E00F80
F803E00F80
F803E00F80
F803E00F80
F803E00F80
F803E00F80
F803E00F80
F803E00F80
F803E00F80
F803E00F80
F803E00F80
F803E00F80
FC03E01F80
7C03E01F00
7E03E03F00
3F83E0FE00
3FFFFFFE00
1FFFFFFC00
0FFFFFF800
03FFFFE000
00FFFF8000
0003E00000
0003E00000
0003E00000
0003E00000
0003E00000
0003E00000
0003E00000
0003E00000
0003E00000
0003E00000
0003E00000
0003E00000
0003E00000
0001C00000
ENDCHAR
STARTCHAR uni0445
ENCODING 1093
SWIDTH 1000 0
DWIDTH 31 0
BBX 22 32 4 0
BITMAP
E00038
F0003C
F8007C
F800FC
7C00F8
7E01F0
3E03F0
3F03E0
1F87C0
0F8FC0
0FCF80
07FF80
03FF00
03FE00
01FE00
00FC00
00FC00
01FE00
03FE00
03FF00
07FF00
0FCF80
0F8FC0
1F87C0
3F03E0
3E03F0
7E01F0
FC00F8
F800FC
F8007C
F0003C
E00038
ENDCHAR
STARTCHAR uni0446
ENCODING 1094
SWIDTH 1000 0
DWIDTH 43 0
BBX 28 39 10 -7
BITMAP
70001C00
F8003E00
F8003E00
F8003E00
F8003E00
F8003E00
F8003E00
F8003E00
F8003E00
F8003E00
F8003E00
F8003E00
F8003E00
F8003E00
F8003E00
F8003E00
F8003E00
F8003E00
F8003E00
F8003E00
F8003E00
F8003E00
F8003E00
F8003E00
F8003E00
FC003E00
7E003E00
7FFFFFE0
3FFFFFF0
1FFFFFF0
0FFFFFF0
03FFFFF0
000001F0
000001F0
000001F0
000001F0
000001F0
000001F0
000000E0
ENDCHAR
STARTCHAR uni0447
ENCODING 1095
SWIDTH 1000 0
DWIDTH 36 0
BBX 22 32 7 0
BITMAP
700038
F8007C
F8007C
F8007C
F8007C
F8007C
F8007C
F8007C
F8007C
F8007C
F8007C
F8007C
FC007C
7E007C
7FFFFC
3FFFFC
1FFFFC
0FFFFC
03FFFC
00007C
00007C
00007C
00007C
00007C
00007C
00007C
00007C
00007C
00007C
00007C
00007C
000038
ENDCHAR
STARTCHAR uni0448
ENCODING 1096
SWIDTH 1000 0
DWIDTH 19 0
BBX 33 32 -7 0
BITMAP
7001C00700
F803E00F80
F803E00F80
F803E00F80
F803E00F80
F803E00F80
F803E00F80
F803E00F80
F803E00F80
F803E00F80
F803E00F80
F803E00F80
F803E00F80
F803E00F80
F803E00F80
F803E00F80
F803E00F80
F803E00F80
F803E00F80
F803E00F80
F803E00F80
F803E00F80
F803E00F80
F803E00F80
F803E00F80
FC03E00F80
7E03E00F80
7FFFFFFF80
3FFFFFFF80
1FFFFFFF80
0FFFFFFF80
03FFFFFF00
ENDCHAR
STARTCHAR uni0449
ENCODING 1097
SWIDTH 1000 0
DWIDTH 19 0
BBX 37 39 -7 -7
BITMAP
7001C00E00
F803E01F00
F803E01F00
F803E01F00
F803E01F00
F803E01F00
F803E01F00
F803E01F00
F803E01F00
F803E01F00
F803E01F00
F803E01F00
F803E01F00
F803E01F00
F803E01F00
F803E01F00
F803E01F00
F803E01F00
F803E01F00
F803E01F00
F803E01F00
F803E01F00
F803E01F00
F803E01F00
F803E01F00
FC03E01F00
7E03E01F00
7FFFFFFFF0
3FFFFFFFF8
1FFFFFFFF8
0FFFFFFFF8
03FFFFFFF8
00000000F8
00000000F8
00000000F8
00000000F8
00000000F8
00000000F8
0000000070
ENDCHAR
STARTCHAR uni044A
ENCODING 1098
SWIDTH 1000 0
DWIDTH 38 0
BBX 30 32 4 0
BITMAP
7FE00000
FFF00000
FFF00000
FFF00000
7FF00000
01F00000
01F00000
01F00000
01F00000
01F00000
01F00000
01F00000
01F00000
01F00000
01FFFF00
01FFFFC0
01FFFFE0
01FFFFF0
01FFFFF8
01F001F8
01F0007C
01F0007C
01F0007C
01F0007C
01F0007C
01F0007C
01F001F8
01FFFFF8
01FFFFF0
01FFFFE0
01FFFFC0
00FFFF00
ENDCHAR
STARTCHAR uni044B
ENCODING 1099
SWIDTH 1000 0
DWIDTH 38 0
BBX 26 32 6 0
BITMAP
70000380
F80007C0
F80007C0
F80007C0
F80007C0
F80007C0
F80007C0
F80007C0
F80007C0
F80007C0
F80007C0
F80007C0
F80007C0
F80007C0
FFF007C0
FFFE07C0
FFFF07C0
FFFF87C0
FFFF87C0
F80FC7C0
F807C7C0
F803C7C0
F803E7C0
F803E7C0
F803C7C0
F807C7C0
F80FC7C0
FFFF87C0
FFFF87C0
FFFF07C0
FFFE07C0
7FF00380
ENDCHAR
STARTCHAR uni044C
ENCODING 1100
SWIDTH 1000 0
DWIDTH 38 0
BBX 23 32 7 0
BITMAP
700000
F80000
F80000
F80000
F80000
F80000
F80000
F80000
F80000
F80000
F80000
F80000
F80000
F80000
FFFF80
FFFFE0
FFFFF0
FFFFF8
FFFFFC
F800FC
F8003E
F8003E
F8003E
F8003E
F8003E
F8003E
F800FC
FFFFFC
FFFFF8
FFFFF0
FFFFE0
7FFF80
ENDCHAR
STARTCHAR uni044D
ENCODING 1101
SWIDTH 1000 0
DWIDTH 36 0
BBX 23 32 6 0
BITMAP
7FFF80
FFFFE0
FFFFF0
FFFFF8
7FFFFC
0000FC
00007E
00003E
00003E
00003E
00003E
00003E
00003E
00003E
07FFFE
07FFFE
0FFFFE
07FFFE
07FFFE
00003E
00003E
00003E
00003E
00003E
00003E
00007E
0000FC
7FFFFC
FFFFF8
FFFFF0
FFFFE0
7FFF00
ENDCHAR
STARTCHAR uni044E
ENCODING 1102
SWIDTH 1000 0
DWIDTH 36 0
BBX 30 32 3 0
BITMAP
70003F00
F800FFC0
F801FFE0
F803FFF0
F807FFF8
F807E1F8
F80FC0FC
F80F807C
F80F807C
F80F807C
F80F807C
F80F807C
F80F807C
F80F807C
FFFF807C
FFFF807C
FFFF807C
FFFF807C
FFFF807C
F80F807C
F80F807C
F80F807C
F80F807C
F80F807C
F80F807C
F80FC0FC
F807E1F8
F807FFF8
F803FFF0
F801FFE0
F800FFC0
70003F00
ENDCHAR
STARTCHAR uni044F
ENCODING 1103
SWIDTH 1000 0
DWIDTH 43 0
BBX 23 32 10 0
BITMAP
03FFFC
0FFFFE
1FFFFE
3FFFFE
7FFFFE
7E003E
FC003E
F8003E
F8003E
F0003E
F8003E
F8003E
7C003E
7E003E
3FFFFE
3FFFFE
0FFFFE
07FFFE
00F83E
01F83E
03F03E
03E03E
07C03E
0FC03E
1F803E
1F003E
3E003E
7E003E
FC003E
F8003E
F0003E
70001C
ENDCHAR
STARTCHAR uni0450
ENCODING 1104
SWIDTH 1000 0
DWIDTH 36 0
BBX 30 45 3 0
BITMAP
01E00000
01F00000
01F80000
00FC0000
007E0000
003F0000
001F8000
000FC000
0007C000
0003C000
00000000
00000000
00000000
001FF000
00FFFC00
03FFFF00
07FFFF80
0FFFFFE0
1FFFFFE0
3FF83FF0
3FE00FF8
7FC007F8
7F8007F8
7F8003FC
FF0003FC
FF0003FC
FF0003FC
FFFFFFFC
FFFFFFFC
FFFFFFFC
FFFFFFF8
FFFFFFE0
FF000000
FF000000
7F000000
7F800078
7FC001FC
3FE003FC
3FF81FF8
1FFFFFF8
0FFFFFF0
07FFFFE0
03FFFFC0
00FFFF00
001FF800
ENDCHAR
STARTCHAR uni0451
ENCODING 1105
SWIDTH 1000 0
DWIDTH 36 0
BBX 23 45 6 0
BITMAP
0E0070
1F00F8
1F00F8
1F00F8
1F00F8
1F00F8
0E0070
000000
000000
000000
000000
000000
000000
000000
00FE00
03FFC0
0FFFE0
1FFFF0
3F83F8
3E00FC
7C007C
7C003C
F8003E
F8003E
F8001E
F8001E
F8001E
FFFFFE
FFFFFE
FFFFFE
FFFFFE
FFFFFE
F80000
F80000
F80000
F80000
F80000
F80000
FC0000
7E0000
7FFFFC
3FFFFE
1FFFFE
0FFFFE
03FFFC
ENDCHAR
STARTCHAR uni0452
ENCODING 1106
SWIDTH 1000 0
DWIDTH 36 0
BBX 31 52 1 0
BITMAP
07800000
0FC00000
1FE00000
1FE00000
1FE00000
1FE00000
1FE00000
7FFFFF00
FFFFFF80
FFFFFF80
7FFFFF00
1FE00000
1FE00000
1FE00000
1FE00000
1FE00000
1FE07F00
1FE1FFC0
1FE7FFF0
1FEFFFF8
1FFFFFF8
1FFFFFFC
1FFE0FFC
1FFC03FE
1FF803FE
1FF003FE
1FF001FE
1FE001FE
1FE001FE
1FE001FE
1FE001FE
1FE001FE
1FE001FE
1FE001FE
1FE001FE
1FE001FE
1FE001FE
1FE001FE
1FE001FE
1FE001FE
1FE001FE
1FE001FE
1FE001FE
1FE001FE
1FE001FE
1FE001FE
0FC001FE
078003FC
0000FFFC
0001FFF8
0001FFF0
0000FFC0
ENDCHAR
STARTCHAR uni0453
ENCODING 1107
SWIDTH 1000 0
DWIDTH 43 0
BBX 26 42 5 0
BITMAP
0001C000
0003E000
0007E000
000FE000
001FC000
003F8000
007F0000
00FE0000
00FC0000
00F80000
00700000
00000000
00000000
1FFFFF80
7FFFFFC0
7FFFFFC0
FFFFFFC0
FFFFFFC0
FFFFFF80
FF000000
FF000000
FF000000
FF000000
FF000000
FF000000
FF000000
FF000000
FF000000
FF000000
FF000000
FF000000
FF000000
FF000000
FF000000
FF000000
FF000000
FF000000
FF000000
FF000000
FF000000
7E000000
3C000000
ENDCHAR
STARTCHAR uni0454
ENCODING 1108
SWIDTH 1000 0
DWIDTH 36 0
BBX 30 32 3 0
BITMAP
001FF000
00FFFC00
03FFFF00
07FFFF80
0FFFFFE0
1FFFFFE0
3FF83FF0
3FE00FF8
7FC007F8
7F8007F8
7F8001F0
FF000000
FF000000
FF800000
FFFFFE00
FFFFFF00
FFFFFF00
FFFFFF00
FFFFFE00
FF800000
FF000000
7F000000
7F800078
7FC001FC
3FE003FC
3FF81FF8
1FFFFFF8
0FFFFFF0
07FFFFE0
03FFFFC0
00FFFF00
001FF800
ENDCHAR
STARTCHAR uni0455
ENCODING 1109
SWIDTH 1000 0
DWIDTH 33 0
BBX 27 32 3 0
BITMAP
00FF8000
07FFF000
0FFFFC00
3FFFFE00
7FFFFF00
7FC1FF80
FF807F80
FF003F80
FF003F80
FF000F00
FF800000
FFE00000
7FFE0000
7FFFE000
3FFFF800
0FFFFE00
03FFFF00
00FFFF80
000FFFC0
0001FFE0
00003FE0
7C003FE0
FC001FE0
FE001FE0
FF001FE0
FF803FC0
FFE07FC0
7FFFFF80
3FFFFF00
1FFFFE00
07FFF800
00FFC000
ENDCHAR
STARTCHAR uni0456
ENCODING 1110
SWIDTH 1000 0
DWIDTH 16 0
BBX 8 43 4 0
BITMAP
3C
7E
FF
FF
FF
FF
7E
3C
00
00
00
3C
7E
FF
FF
FF
FF
FF
FF
FF
FF
FF
FF
FF
FF
FF
FF
FF
FF
FF
FF
FF
FF
FF
FF
FF
FF
FF
FF
FF
FF
7E
3C
ENDCHAR
STARTCHAR uni0457
ENCODING 1111
SWIDTH 1000 0
DWIDTH 16 0
BBX 20 43 -2 0
BITMAP
3C03C0
7E07E0
FF0FF0
FF0FF0
FF0FF0
FF0FF0
7E07E0
3C03C0
000000
000000
000000
00F000
01F800
03FC00
03FC00
03FC00
03FC00
03FC00
03FC00
03FC00
03FC00
03FC00
03FC00
03FC00
03FC00
03FC00
03FC00
03FC00
03FC00
03FC00
03FC00
03FC00
03FC00
03FC00
03FC00
03FC00
03FC00
03FC00
03FC00
03FC00
03FC00
01F800
00F000
ENDCHAR
STARTCHAR uni0458
ENCODING 1112
SWIDTH 1000 0
DWIDTH 16 0
BBX 17 55 -5 -12
BITMAP
001E00
003F00
007F80
007F80
007F80
007F80
003F00
001E00
000000
000000
000000
001E00
003F00
007F80
007F80
007F80
007F80
007F80
007F80
007F80
007F80
007F80
007F80
007F80
007F80
007F80
007F80
007F80
007F80
007F80
007F80
007F80
007F80
007F80
007F80
007F80
007F80
007F80
007F80
007F80
007F80
007F80
007F80
007F80
007F80
007F80
007F80
00FF80
7FFF80
7FFF00
FFFF00
FFFE00
7FFE00
3FF800
0FE000
ENDCHAR
STARTCHAR uni0459
ENCODING 1113
SWIDTH 1000 0
DWIDTH 34 0
BBX 35 33 0 0
BITMAP
00FFF80000
01FFFC0000
03FFFE0000
03FFFF0000
03FFFF0000
03FFFF0000
03F03F0000
03F03F0000
03F03F0000
03F03F0000
03F03F0000
03F03F0000
03F03F0000
03F03F0000
03F03FF800
03F03FFE00
03F03FFF00
03F03FFF80
03F03FFF80
03F03F0FC0
03F03F07E0
03F03F03E0
07F03F03E0
07F03F03E0
0FF03F03E0
1FF03F03E0
7FE03F03E0
FFE03F07E0
FFC03F0FE0
FF003FFFC0
FE001FFF80
70000FFF80
000007FE00
ENDCHAR
STARTCHAR uni045A
ENCODING 1114
SWIDTH 1000 0
DWIDTH 34 0
BBX 31 33 2 0
BITMAP
30038000
7807C000
FC07C000
FC07C000
FC07C000
FC07C000
FC07C000
FC07C000
FC07C000
FC07C000
FC07C000
FC07C000
FC07C000
FFFFFF80
FFFFFFE0
FFFFFFF0
FFFFFFF8
FFFFFFFC
FC07C0FC
FC07C07E
FC07C03E
FC07C03E
FC07C03E
FC07C03E
FC07C03E
FC07C03E
FC07C03E
FC07C07E
FC07C0FC
FC07FFFC
FC07FFF8
7803FFF0
3001FFC0
ENDCHAR
STARTCHAR uni045B
ENCODING 1115
SWIDTH 1000 0
DWIDTH 36 0
BBX 31 47 1 0
BITMAP
07800000
0FC00000
1FE00000
1FE00000
1FE00000
1FE00000
1FE00000
1FE00000
7FFFF000
FFFFF800
FFFFF800
7FFFF000
1FE00000
1FE00000
1FE00000
1FE07F00
1FE1FFC0
1FE7FFF0
1FEFFFF8
1FFFFFF8
1FFFFFFC
1FFE0FFC
1FFC03FE
1FF803FE
1FF003FE
1FF001FE
1FE001FE
1FE001FE
1FE001FE
1FE001FE
1FE001FE
1FE001FE
1FE001FE
1FE001FE
1FE001FE
1FE001FE
1FE001FE
1FE001FE
1FE001FE
1FE001FE
1FE001FE
1FE001FE
1FE001FE
1FE001FE
1FE001FE
0FC000FC
07800078
ENDCHAR
STARTCHAR uni045C
ENCODING 1116
SWIDTH 1000 0
DWIDTH 44 0
BBX 35 44 7 0
BITMAP
0000380000
0000780000
0000F80000
0001F00000
0003E00000
0007C00000
000F800000
001F000000
001E000000
001C000000
0000000000
000000FF80
3C0003FFC0
7E0007FFE0
FF000FFFE0
FF001FFFC0
FF003FFF80
FF007FF800
FF00FFE000
FF01FFC000
FF03FF8000
FF87FF0000
FFFFFE0000
FFFFFC0000
FFFFF80000
FFFFF00000
FFFFE00000
FFFFE00000
FFFFF00000
FFFFF80000
FF8FFC0000
FF87FE0000
FF03FF0000
FF01FF8000
FF00FFC000
FF007FE000
FF003FF000
FF001FF800
FF000FF800
FF0007FC00
FF0003FC00
FF0001FC00
FE0000FC00
7C00007800
ENDCHAR
STARTCHAR uni045D
ENCODING 1117
SWIDTH 1000 0
DWIDTH 46 0
BBX 32 42 7 0
BITMAP
001C0000
001E0000
001F0000
000F8000
0007C000
0003E000
0001F000
0000F800
00007800
00003800
00000000
00000000
7C00003E
FE00007F
FF00007F
FF80007F
FFC0007F
FFE0007F
FFF0007F
FFF8007F
FFFC007F
FFFE007F
FFFF007F
FFFF807F
FF7FC07F
FF3FE07F
FF1FF07F
FF0FF87F
FF07FC7F
FF03FE7F
FF01FF7F
FF00FFFF
FF007FFF
FF003FFF
FF001FFF
FF000FFF
FF0007FF
FF0003FF
FF0001FF
FF0000FF
FF00007F
7E00003E
ENDCHAR
STARTCHAR uni045E
ENCODING 1118
SWIDTH 1000 0
DWIDTH 33 0
BBX 30 53 1 -12
BITMAP
03800380
03800380
03C00780
03C00780
01E00F00
00F83E00
007FFC00
003FF800
001FF000
1E000070
3F0000F8
7F0001FC
7F8001FC
7F8003FC
7F8003FC
3FC003F8
3FC007F8
1FC007F0
1FE007F0
1FE00FF0
0FE00FE0
0FF00FE0
07F01FE0
07F01FC0
07F81FC0
03F83F80
03F83F80
03FC3F80
01FC7F00
01FC7F00
00FEFF00
00FEFE00
00FEFE00
007FFC00
007FFC00
003FFC00
003FF800
003FF800
001FF000
001FF000
000FF000
001FE000
001FE000
003FE000
003FC000
007FC000
00FF8000
7FFF8000
FFFF0000
FFFF0000
FFFE0000
7FF80000
1FE00000
ENDCHAR
STARTCHAR uni045F
ENCODING 1119
SWIDTH 1000 0
DWIDTH 43 0
BBX 25 35 9 -2
BITMAP
38000E00
7C001F00
FE003F80
FE003F80
FE003F80
FE003F80
FE003F80
FE003F80
FE003F80
FE003F80
FE003F80
FE003F80
FE003F80
FE003F80
FE003F80
FE003F80
FE003F80
FE003F80
FE003F80
FE003F80
FE003F80
FFFFFF80
FFFFFF80
FFFFFF80
FFFFFF80
FFFFFF80
7FFFFF00
3FFFFE00
003F0000
003F0000
003F0000
003F0000
003F0000
003F0000
001E0000
ENDCHAR
STARTCHAR $2013
ENCODING 8211
SWIDTH 500 0
DWIDTH 30 0
BBX 30 6 0 12
BITMAP
FFFFFFFC
FFFFFFFC
FFFFFFFC
FFFFFFFC
FFFFFFFC
FFFFFFFC
ENDCHAR
STARTCHAR $2014
ENCODING 8212
SWIDTH 1000 0
DWIDTH 60 0
BBX 60 6 0 12
BITMAP
FFFFFFFFFFFFFFF0
FFFFFFFFFFFFFFF0
FFFFFFFFFFFFFFF0
FFFFFFFFFFFFFFF0
FFFFFFFFFFFFFFF0
FFFFFFFFFFFFFFF0
ENDCHAR
STARTCHAR $2018
ENCODING 8216
SWIDTH 316 0
DWIDTH 19 0
BBX 9 17 5 26
BITMAP
0700
0F80
1F80
3F00
3E00
7C00
7800
F800
F800
FE00
FF00
FF80
FF80
FF80
7F80
7F00
1E00
ENDCHAR
STARTCHAR $2019
ENCODING 8217
SWIDTH 316 0
DWIDTH 19 0
BBX 9 17 5 26
BITMAP
3C00
7E00
FF00
FF80
FF80
FF80
7F80
7F80
0F80
0F80
0F00
1F00
3E00
7E00
FC00
F800
7000
ENDCHAR
STARTCHAR $201A
ENCODING 8218
SWIDTH 316 0
DWIDTH 19 0
BBX 9 17 5 -9
BITMAP
3C00
7F00
FF00
FF80
FF80
FF80
7F80
7F80
0F80
0F80
0F00
1F00
3E00
7E00
FC00
F800
7000
ENDCHAR
STARTCHAR $201C
ENCODING 8220
SWIDTH 450 0
DWIDTH 27 0
BBX 22 17 3 26
BITMAP
070038
0F807C
1F80FC
3F01F8
3E01F0
7C03E0
7803C0
F807C0
F807C0
FE07F0
FF07F8
FF87FC
FF87FC
FF87FC
7F83FC
7F03F8
1E00F0
ENDCHAR
STARTCHAR $201D
ENCODING 8221
SWIDTH 450 0
DWIDTH 27 0
BBX 21 17 3 26
BITMAP
3C03C0
7F07F0
FF0FF0
FF8FF8
FF8FF8
FF8FF8
7F87F8
7F87F8
0F80F8
0F80F8
0F00F0
1F01F0
3E03E0
7E07E0
FC0FC0
F80F80
700700
ENDCHAR
STARTCHAR $201E
ENCODING 8222
SWIDTH 450 0
DWIDTH 27 0
BBX 22 17 3 -9
BITMAP
3C01E0
7F03F8
FF07F8
FF87FC
FF87FC
FF87FC
7F83FC
7F83FC
0F807C
0F807C
0F0078
1F00F8
3E01F0
7E03F0
FC07E0
F807C0
700380
ENDCHAR
STARTCHAR $2020
ENCODING 8224
SWIDTH 600 0
DWIDTH 36 0
BBX 31 55 2 -12
BITMAP
00038000
0007C000
000FE000
000FE000
000FE000
000FE000
000FE000
000FE000
000FE000
000FE000
000FE000
000FE000
7FFFFFFC
FFFFFFFE
FFFFFFFE
FFFFFFFE
FFFFFFFE
7FFFFFFC
000FE000
000FE000
000FE000
000FE000
000FE000
000FE000
000FE000
000FE000
000FE000
000FE000
000FE000
000FE000
000FE000
000FE000
000FE000
000FE000
000FE000
000FE000
000FE000
000FE000
000FE000
000FE000
000FE000
000FE000
000FE000
000FE000
000FE000
000FE000
000FE000
000FE000
000FE000
000FE000
000FE000
000FE000
000FE000
0007C000
00038000
ENDCHAR
STARTCHAR $2021
ENCODING 8225
SWIDTH 600 0
DWIDTH 36 0
BBX 31 55 2 -12
BITMAP
00038000
0007C000
000FE000
000FE000
000FE000
000FE000
000FE000
000FE000
000FE000
000FE000
000FE000
7FFFFFFC
FFFFFFFE
FFFFFFFE
FFFFFFFE
FFFFFFFE
7FFFFFFC
000FE000
000FE000
000FE000
000FE000
000FE000
000FE000
000FE000
000FE000
000FE000
000FE000
000FE000
000FE000
000FE000
000FE000
000FE000
000FE000
000FE000
000FE000
000FE000
000FE000
7FFFFFFC
FFFFFFFE
FFFFFFFE
FFFFFFFE
FFFFFFFE
7FFFFFFC
000FE000
000FE000
000FE000
000FE000
000FE000
000FE000
000FE000
000FE000
000FE000
000FE000
0007C000
00038000
ENDCHAR
STARTCHAR $2022
ENCODING 8226
SWIDTH 350 0
DWIDTH 21 0
BBX 17 17 2 13
BITMAP
03E000
0FF800
3FFC00
3FFE00
7FFF00
7FFF00
FFFF80
FFFF80
FFFF80
FFFF80
FFFF80
7FFF00
7FFF00
3FFE00
3FFE00
0FF800
03E000
ENDCHAR
STARTCHAR $2026
ENCODING 8230
SWIDTH 1000 0
DWIDTH 60 0
BBX 49 9 6 0
BITMAP
3C0003E0003E00
7F0007F0007F00
FF800FF800FF80
FF800FF800FF80
FF800FF800FF80
FF800FF800FF80
FF800FF800FF80
7F0007F0007F00
3E0003E0003E00
ENDCHAR
STARTCHAR $2030
ENCODING 8240
SWIDTH 1200 0
DWIDTH 72 0
BBX 70 44 1 -1
BITMAP
03F800000E00000000
0FFE00001E00000000
1FFF00001E00000000
3FFF80003E00000000
7F1FC0007C00000000
7E0FC0007C00000000
7C0FC000F800000000
FC07E001F000000000
FC07E001F000000000
FC07E003E000000000
FC07E003C000000000
FC07E007C000000000
FC07E00F8000000000
FC07E00F0000000000
FC07E01F0000000000
FC07E03E0000000000
7C0FC03E0000000000
7E0FC07C0000000000
3F1F80F80000000000
3FFF80F80000000000
1FFF01F00000000000
07FC01E00100000800
004003E03FF001FF80
000007C07FFC03FFE0
00000780FFFE07FFF0
00000F81FC7F0FE3F0
00001F01F83F0FC1F8
00001F01F01F0F80F8
00003E03F01F9F80FC
00007C03F01F9F80FC
00007C03F01F9F80FC
0000F803F01F9F80FC
0001F003F01F9F80FC
0001F003F01F9F80FC
0003E003F01F9F80FC
0003C003F01F9F80FC
0007C003F03F1F81F8
000F8001F83F0FC1F8
000F8001FC7F0FE3F8
001F0000FFFE07FFF0
003E00007FFC03FFE0
003E00003FF801FFC0
003C00000FE0007F00
003800000000000000
ENDCHAR
STARTCHAR $2039
ENCODING 8249
SWIDTH 366 0
DWIDTH 22 0
BBX 12 27 5 2
BITMAP
00E0
01F0
03F0
03F0
07E0
0FE0
0FC0
1FC0
3F80
3F00
7F00
7E00
FE00
FC00
FE00
7E00
7F00
3F00
1F80
1FC0
0FC0
0FE0
07E0
03F0
03F0
01F0
00E0
ENDCHAR
STARTCHAR $203A
ENCODING 8250
SWIDTH 366 0
DWIDTH 22 0
BBX 12 27 5 2
BITMAP
7000
F800
FC00
FC00
7E00
7F00
3F00
1F80
1FC0
0FC0
0FE0
07E0
03F0
03F0
07F0
07E0
0FE0
0FC0
1F80
3F80
3F00
7F00
7E00
FC00
FC00
F800
7000
ENDCHAR
STARTCHAR $2122
ENCODING 8482
SWIDTH 1000 0
DWIDTH 60 0
BBX 46 24 7 19
BITMAP
FFFFE3FC03FC
FFFFE3FC03FC
FFFFE3FC03FC
FFFFE3FE07FC
01F003FE07FC
01F003FE07FC
01F003FE07FC
01F003EF0F7C
01F003EF0F7C
01F003EF0F7C
01F003EF0F7C
01F003E79E7C
01F003E79E7C
01F003E79E7C
01F003E79E7C
01F003E3FC7C
01F003E3FC7C
01F003E3FC7C
01F003E1F87C
01F003E1F87C
01F003E1F87C
01F003E1F87C
01F003E0F07C
01F003E0F07C
ENDCHAR
STARTCHAR $2126
ENCODING 8486
SWIDTH 766 0
DWIDTH 46 0
BBX 42 41 2 0
BITMAP
0000FFC00000
000FFFFC0000
003F807F0000
00FC000FC000
01F80007E000
03F00003F000
07E00001F800
0FC00000FC00
1FC00000FE00
1F8000007E00
3F8000007F00
3F0000003F00
3F0000003F00
7F0000003F80
7F0000003F80
7F0000003F80
7F0000003F80
7F0000003F80
7F0000003F80
7F0000003F80
7F0000003F80
3F0000003F00
3F0000003F00
3F8000007F00
1F8000007E00
1F8000007E00
0FC00000FC00
0FC00000FC00
07E00001F800
03F00003F000
01F80007E000
807E001F8040
801F003E0040
C003003000C0
C003003000C0
FFFF003FFFC0
FFFF807FFFC0
FFFF807FFFC0
FFFF807FFFC0
FFFF807FFFC0
FFFF807FFFC0
ENDCHAR
STARTCHAR $2202
ENCODING 8706
SWIDTH 500 0
DWIDTH 30 0
BBX 26 45 2 -1
BITMAP
07FC0000
3FFF8000
1F01C000
0C00F000
00007000
00003800
00001C00
00001E00
00001E00
00000F00
00000F00
00000F80
00000F80
00000780
00000780
000007C0
000007C0
000007C0
000007C0
000007C0
00FC07C0
03FF07C0
07FFC7C0
0FE0E7C0
1FC03FC0
3F001FC0
3F000F80
7E000F80
7E000F80
7C001F80
FC001F80
F8001F80
F8001F00
F8001F00
F8003F00
F8003E00
F8003E00
F8007C00
78007C00
7800F800
3C00F000
1C01F000
0E07E000
07DF8000
01FE0000
ENDCHAR
STARTCHAR $2206
ENCODING 8710
SWIDTH 616 0
DWIDTH 37 0
BBX 36 40 0 0
BITMAP
0000300000
0000300000
0000380000
0000780000
0000780000
0000FC0000
0000FC0000
0001FE0000
0001FE0000
0003FE0000
00033F0000
00073F0000
00063F8000
000E1F8000
000C1FC000
001C0FC000
001C0FC000
003807E000
003807E000
003007F000
007003F000
006003F000
00E001F800
00C001F800
01C001FC00
018000FC00
038000FC00
0300007E00
0700007E00
0600007F00
0E00003F00
0E00003F80
1C00001F80
1C00001F80
1800000FC0
3800000FC0
3000000FE0
7FFFFFFFE0
7FFFFFFFE0
FFFFFFFFF0
ENDCHAR
STARTCHAR $220F
ENCODING 8719
SWIDTH 816 0
DWIDTH 49 0
BBX 47 51 1 -6
BITMAP
FFFFFFFFFFFE
FFFFFFFFFFFE
1FFFFFFFFFF0
07FFFFFFFFC0
07F800003FC0
03F800003F80
03F800003F80
03F800003F80
03F800003F80
03F800003F80
03F800003F80
03F800003F80
03F800003F80
03F800003F80
03F800003F80
03F800003F80
03F800003F80
03F800003F80
03F800003F80
03F800003F80
03F800003F80
03F800003F80
03F800003F80
03F800003F80
03F800003F80
03F800003F80
03F800003F80
03F800003F80
03F800003F80
03F800003F80
03F800003F80
03F800003F80
03F800003F80
03F800003F80
03F800003F80
03F800003F80
03F800003F80
03F800003F80
03F800003F80
03F800003F80
03F800003F80
03F800003F80
03F800003F80
03F800003F80
03F800003F80
03F800003F80
03F800003F80
07FC00007FC0
0FFE0000FFE0
FFFFE00FFFFE
FFFFE00FFFFE
ENDCHAR
STARTCHAR $2211
ENCODING 8721
SWIDTH 716 0
DWIDTH 43 0
BBX 40 51 2 -6
BITMAP
FFFFFFFFE0
7FFFFFFFE0
7FFFFFFFE0
3FC00003E0
1FE00000E0
0FE0000070
0FF0000070
07F8000030
03FC000030
01FC000030
01FE000000
00FF000000
007F800000
003F800000
003FC00000
001FE00000
000FF00000
0007F00000
0007F80000
0003FC0000
0001FE0000
0000FF0000
0000FF0000
00007F8000
00003FC000
00001F8000
00001F0000
00000E0000
00001C0000
00003C0000
0000780000
0000F00000
0001E00000
0003C00000
0003800000
0007000000
000F000000
001E000000
003C000003
0078000003
00F0000002
01E0000006
01C0000006
038000000E
078000003E
0FFFFFFFFC
1FFFFFFFFC
3FFFFFFFFC
7FFFFFFFFC
FFFFFFFFFC
FFFFFFFFFC
ENDCHAR
STARTCHAR $2215
ENCODING 8725
SWIDTH 150 0
DWIDTH 9 0
BBX 29 45 -10 -2
BITMAP
00000038
00000078
00000078
000000F8
000001F0
000001E0
000003E0
000007C0
000007C0
00000F80
00000F00
00001F00
00003E00
00003C00
00007C00
0000F800
0000F800
0001F000
0001E000
0003E000
0007C000
00078000
000F8000
001F0000
001F0000
003E0000
003C0000
007C0000
00F80000
00F00000
01F00000
03E00000
03E00000
07C00000
07800000
0F800000
1F000000
1E000000
3E000000
7C000000
7C000000
F8000000
F0000000
F0000000
E0000000
ENDCHAR
STARTCHAR $2219
ENCODING 8729
SWIDTH 316 0
DWIDTH 19 0
BBX 9 9 5 17
BITMAP
1C00
7F00
7F00
FF80
FF80
FF80
FF80
7F00
3E00
ENDCHAR
STARTCHAR $221A
ENCODING 8730
SWIDTH 550 0
DWIDTH 33 0
BBX 30 56 1 -1
BITMAP
0000000C
0000000C
0000001C
00000018
00000018
00000018
00000018
00000018
00000038
00000030
00000030
00000030
00000030
00000030
00000070
00000070
00000060
00000060
00000060
00000060
00000060
000000E0
000000C0
000000C0
018000C0
078000C0
1FC000C0
79C001C0
E1E00180
C0E00180
00F00180
00700180
00780180
00780380
003C0380
003C0300
001E0300
001E0300
000E0300
000F0300
00070700
00078600
00038600
0003C600
0001C600
0001E600
0000EE00
0000FC00
00007C00
00007C00
00003C00
00003C00
00001C00
00001800
00000800
00000800
ENDCHAR
STARTCHAR $221E
ENCODING 8734
SWIDTH 716 0
DWIDTH 43 0
BBX 39 17 2 7
BITMAP
03C0000780
0FF8003FE0
1FFE00FFF0
380F01E038
7007C7C01C
7003EF801C
E000FE000E
E0007C000E
E0007C000E
E000FE000E
E001FF000E
F003EF801C
7807C7C03C
3C1F83F078
3FFE00FFF8
1FFC007FF0
07E0000FC0
ENDCHAR
STARTCHAR $222B
ENCODING 8747
SWIDTH 266 0
DWIDTH 16 0
BBX 17 60 0 -6
BITMAP
001F00
003F80
007F80
007F80
00CF00
00C000
00C000
00C000
00C000
01C000
01C000
01C000
01C000
01C000
01E000
01E000
01E000
01E000
01E000
01E000
01E000
01E000
01E000
01E000
01E000
01E000
01E000
01E000
01E000
01E000
01E000
01E000
01E000
01E000
01E000
01E000
01E000
01E000
01E000
01E000
01E000
01E000
01E000
01E000
01E000
01E000
01E000
01C000
01C000
01C000
01C000
01C000
01C000
018000
718000
F98000
FF8000
FF0000
7F0000
7C0000
ENDCHAR
STARTCHAR $2248
ENCODING 8776
SWIDTH 550 0
DWIDTH 33 0
BBX 31 16 1 8
BITMAP
0000000C
07FC001E
1FFFE03C
3FFFFFF8
7807FFF0
F0003FC0
20000000
00000000
00000000
0000000C
07FC001E
1FFFE03C
3FFFFFF8
7807FFF0
F0003FC0
20000000
ENDCHAR
STARTCHAR $2260
ENCODING 8800
SWIDTH 550 0
DWIDTH 33 0
BBX 31 35 1 -2
BITMAP
00000100
00000380
00000780
00000780
00000F00
00000F00
00001E00
00001E00
00003C00
00003C00
FFFFFFFE
FFFFFFFE
FFFFFFFE
FFFFFFFE
0001E000
0001E000
0003C000
00078000
00078000
000F0000
001E0000
FFFFFFFE
FFFFFFFE
FFFFFFFE
FFFFFFFE
00780000
00F00000
00F00000
01E00000
01E00000
03C00000
03C00000
07800000
07800000
01000000
ENDCHAR
STARTCHAR $2264
ENCODING 8804
SWIDTH 550 0
DWIDTH 33 0
BBX 30 38 2 0
BITMAP
00000004
0000001C
000000FC
000003FC
00000FF0
00003FC0
0000FF00
0007FC00
001FE000
007F8000
01FE0000
07F80000
1FE00000
FF000000
FC000000
F0000000
FC000000
FF000000
1FC00000
07F80000
01FE0000
007F8000
001FE000
0003FC00
0000FF00
00003FC0
00000FF0
000003FC
0000007C
0000001C
00000004
00000000
00000000
00000000
FFFFFFFC
FFFFFFFC
FFFFFFFC
FFFFFFFC
ENDCHAR
STARTCHAR $2265
ENCODING 8805
SWIDTH 550 0
DWIDTH 33 0
BBX 30 38 2 0
BITMAP
80000000
E0000000
F8000000
FF000000
3FC00000
0FF00000
03FC0000
00FF0000
001FE000
0007F800
0001FE00
00007F80
00001FE0
000003FC
000000FC
0000003C
000000FC
000003FC
00000FE0
00007F80
0001FE00
0007F800
001FE000
00FF8000
03FC0000
0FF00000
3FC00000
FF000000
FC000000
E0000000
80000000
00000000
00000000
00000000
FFFFFFFC
FFFFFFFC
FFFFFFFC
FFFFFFFC
ENDCHAR
STARTCHAR $25CA
ENCODING 9674
SWIDTH 500 0
DWIDTH 30 0
BBX 27 45 1 0
BITMAP
001F0000
001F0000
003F8000
003F8000
007BC000
007BC000
00F1E000
00F1E000
01E0F000
01E07000
03C07800
03803800
07803C00
07001C00
0F001E00
0E000E00
1E000F00
3C000780
3C000780
780003C0
780003C0
F00001E0
F00001E0
700001C0
780003C0
38000380
3C000780
1C000700
1E000F00
0E000E00
0F001E00
07001C00
07803C00
03803800
03C07800
01C07000
01E0F000
00E0E000
00F1E000
0071C000
007BC000
003B8000
003F8000
001F0000
001F0000
ENDCHAR
STARTCHAR F001
ENCODING 61441
SWIDTH 600 0
DWIDTH 36 0
BBX 33 43 -1 0
BITMAP
003FF81E00
007FFE3F00
00FFFE7F80
01FFFE7F80
01FFFE7F80
03FF007F80
03FE003F00
03FC001E00
03FC000000
03FC000000
03FC000000
03FC001E00
3FFFE03F00
FFFFF07F80
FFFFF87F80
FFFFF87F80
FFFFF07F80
7FFFE07F80
03FC007F80
03FC007F80
03FC007F80
03FC007F80
03FC007F80
03FC007F80
03FC007F80
03FC007F80
03FC007F80
03FC007F80
03FC007F80
03FC007F80
03FC007F80
03FC007F80
03FC007F80
03FC007F80
03FC007F80
03FC007F80
03FC007F80
03FC007F80
03FC007F80
03FC007F80
03FC007F80
01F8003F00
00F0001E00
ENDCHAR
STARTCHAR F002
ENCODING 61442
SWIDTH 600 0
DWIDTH 36 0
BBX 33 43 -1 0
BITMAP
000FF01E00
007FFC3F00
00FFFE7F80
01FFFE7F80
01FFFE7F80
03FFFE7F80
03FF007F80
03FE007F80
03FC007F80
03FC007F80
03FC007F80
03FC007F80
3FFFE07F80
FFFFF07F80
FFFFF87F80
FFFFF87F80
FFFFF07F80
7FFFE07F80
03FC007F80
03FC007F80
03FC007F80
03FC007F80
03FC007F80
03FC007F80
03FC007F80
03FC007F80
03FC007F80
03FC007F80
03FC007F80
03FC007F80
03FC007F80
03FC007F80
03FC007F80
03FC007F80
03FC007F80
03FC007F80
03FC007F80
03FC007F80
03FC007F80
03FC007F80
03FC007F80
01F8003F00
00F0001E00
ENDCHAR
ENDFONT
